<?xml version="1.0" encoding="UTF-8" standalone="no"?>
<svg width="20px" height="11px" viewBox="0 0 20 11" version="1.1" xmlns="http://www.w3.org/2000/svg" xmlns:xlink="http://www.w3.org/1999/xlink" xmlns:sketch="http://www.bohemiancoding.com/sketch/ns">
    <!-- Generator: Sketch 3.5.2 (25235) - http://www.bohemiancoding.com/sketch -->
    <title>Group 3</title>
    <desc>Created with Sketch.</desc>
    <defs></defs>
    <g id="Image-Uploader" stroke="none" stroke-width="1" fill="none" fill-rule="evenodd" sketch:type="MSPage">
        <g id="Upload-new-media" sketch:type="MSArtboardGroup" transform="translate(-1196.000000, -451.000000)" fill="#545454">
            <g id="media-library" sketch:type="MSLayerGroup" transform="translate(-4.000000, -3.000000)">
                <g id="Group-3" transform="translate(1200.000000, 454.000000)" sketch:type="MSShapeGroup">
                    <path d="M0.686315466,10.8333333 L0.416666667,10.8333333 C0.186666667,10.8333333 0,10.6466667 0,10.4166667 L0,0.416666667 C0,0.186666667 0.186666667,0 0.416666667,0 L5.41666667,0 C5.5275,0 5.63333333,0.0441666667 5.71166667,0.121666667 L7.25583333,1.66666667 L14.5833333,1.66666667 C14.8133333,1.66666667 15,1.85333333 15,2.08333333 L15,3 L5.71110026,3 C5.48110026,3 5.18462312,3.18666667 5.04932093,3.41666667 L0.686315466,10.8333333 Z" id="Fill-61"></path>
                    <path d="M6.04932093,4.41666667 L2.34315773,10.4166667 C2.20785554,10.6466667 2.28471173,10.8333333 2.51471173,10.8333333 L14.6813784,10.8333333 C14.9113784,10.8333333 15.2078555,10.6466667 15.3431577,10.4166667 L19.0002984,4.5 C19.1356006,4.27 19.0244336,4 18.7944336,4 L6.71110026,4 C6.48110026,4 6.18462312,4.18666667 6.04932093,4.41666667 Z" id="Fill-61"></path>
                </g>
            </g>
        </g>
    </g>
</svg>