<?xml version="1.0" encoding="utf-8"?>
<!-- Generator: Adobe Illustrator 19.1.0, SVG Export Plug-In . SVG Version: 6.00 Build 0)  -->
<svg version="1.1" id="Layer_1" xmlns="http://www.w3.org/2000/svg" xmlns:xlink="http://www.w3.org/1999/xlink" x="0px" y="0px"
	 viewBox="-375 197 40 40" style="enable-background:new -375 197 40 40;" xml:space="preserve">
<style type="text/css">
	.st0{fill:#FA4132;}
</style>
<g>
	<path class="st0" d="M-344.9,201.9v-3.1h-3.1v3.1h-3v-3.1h-3.1v3.1h-3.1v-3.1h-3.1v3.1h-3.1v-3.1h-3.1v3.1h-6.1v9.3v3.1v20h33.9
		v-20v-3.1v-9.3H-344.9z M-341.8,231.2h-27.7v-17h27.8L-341.8,231.2L-341.8,231.2z M-369.5,211.1V205h3.1v3h3.1v-3h3.1v3h3.1v-3h3.1
		v3h3v-3h3v3h3.1v-3h3.1v6.2L-369.5,211.1L-369.5,211.1z"/>
	<polygon class="st0" points="-360.3,223.5 -357.2,223.5 -357.2,226.5 -354.1,226.5 -354.1,223.5 -351,223.5 -351,220.4 
		-354.1,220.4 -354.1,217.3 -357.2,217.3 -357.2,220.4 -360.3,220.4 	"/>
</g>
</svg>
