<?xml version="1.0" encoding="utf-8"?>
<!-- Generator: Adobe Illustrator 19.1.0, SVG Export Plug-In . SVG Version: 6.00 Build 0)  -->
<svg version="1.1" id="Layer_1" xmlns="http://www.w3.org/2000/svg" xmlns:xlink="http://www.w3.org/1999/xlink" x="0px" y="0px"
	 viewBox="-375 197 40 40" style="enable-background:new -375 197 40 40;" xml:space="preserve">
<style type="text/css">
	.st0{fill:#CBCBCB;}
</style>
<g>
	<path class="st0" d="M-352.9,202.8C-352.9,202.8-352.9,202.8-352.9,202.8C-352.9,202.8-352.9,202.8-352.9,202.8 M-353.2,202.8
		L-353.2,202.8L-353.2,202.8C-353.2,202.8-353.2,202.8-353.2,202.8 M-353.2,202.7C-353.2,202.8-353.2,202.8-353.2,202.7
		L-353.2,202.7L-353.2,202.7C-353.2,202.8-353.2,202.7-353.2,202.7 M-353.3,202.7L-353.3,202.7
		C-353.3,202.7-353.3,202.7-353.3,202.7L-353.3,202.7C-353.3,202.7-353.3,202.7-353.3,202.7 M-345.1,206.7L-345.1,206.7
		c-0.3-0.3-0.5-0.4-0.7-0.6c0,0-0.1,0-0.1-0.1C-345.6,206.3-345.4,206.4-345.1,206.7L-345.1,206.7
		C-345.1,206.7-345.1,206.7-345.1,206.7 M-341.6,212C-341.6,212-341.6,212.1-341.6,212L-341.6,212L-341.6,212 M-341.7,211.7
		c0,0.1,0.1,0.2,0.1,0.3l0,0c0,0,0,0,0-0.1l0,0l0,0l0,0C-341.7,211.9-341.7,211.8-341.7,211.7 M-342.5,210.1L-342.5,210.1
		c-0.2-0.4-0.3-0.5-0.5-0.8c0.1,0.2,0.3,0.4,0.4,0.7C-342.5,210.1-342.5,210.1-342.5,210.1 M-343.7,208.3L-343.7,208.3
		C-343.7,208.3-343.7,208.3-343.7,208.3L-343.7,208.3 M-345.1,206.7C-345.1,206.8-345,206.8-345.1,206.7
		C-345,206.8-345,206.8-345.1,206.7C-345.1,206.7-345.1,206.7-345.1,206.7L-345.1,206.7 M-343.5,224.7
		C-343.6,224.7-343.6,224.7-343.5,224.7c0.2-0.2,0.3-0.3,0.5-0.7C-343.1,224.1-343.3,224.4-343.5,224.7 M-342.5,223L-342.5,223
		c0.2-0.4,0.3-0.5,0.5-0.9c0,0,0,0,0,0C-342.2,222.4-342.3,222.7-342.5,223 M-341.5,220.8C-341.5,220.8-341.5,220.9-341.5,220.8
		c0.1-0.3,0.2-0.5,0.3-0.9v0C-341.4,220.3-341.4,220.6-341.5,220.8L-341.5,220.8 M-340.8,216.7
		C-340.8,216.7-340.8,216.7-340.8,216.7C-340.8,216.7-340.8,216.7-340.8,216.7 M-340.8,216.6C-340.8,216.6-340.8,216.6-340.8,216.6
		C-340.8,216.6-340.8,216.6-340.8,216.6C-340.8,216.6-340.8,216.6-340.8,216.6 M-340.8,216.6C-340.8,216.6-340.8,216.6-340.8,216.6
		C-340.8,216.6-340.8,216.6-340.8,216.6C-340.8,216.6-340.8,216.6-340.8,216.6C-340.8,216.6-340.8,216.6-340.8,216.6 M-341,214.6
		c0,0.2,0.1,0.4,0.1,0.7C-340.9,215-341,214.8-341,214.6 M-356.4,206.8C-356.4,206.8-356.4,206.8-356.4,206.8c0-0.1,0-0.1,0-0.2
		l-0.1,0l-0.1,0.1l0,0.2C-356.6,206.9-356.5,206.9-356.4,206.8L-356.4,206.8 M-356.8,206.6L-356.8,206.6L-356.8,206.6
		C-356.8,206.6-356.9,206.6-356.8,206.6c-0.1,0-0.1,0-0.1,0c0,0,0,0-0.1,0.1c0,0,0,0-0.1,0c0,0,0,0,0.1,0c0,0,0,0,0.1,0
		C-356.9,206.7-356.9,206.7-356.8,206.6C-356.9,206.7-356.9,206.7-356.8,206.6 M-355.9,204.3l0.1,0l-0.1-0.1l-0.2,0c0,0-0.1,0-0.1,0
		l0,0.1l0,0.1L-355.9,204.3L-355.9,204.3 M-353.4,202.7L-353.4,202.7L-353.4,202.7c0,0-0.1,0-0.1,0l0,0l0,0l0,0
		C-353.5,202.7-353.5,202.7-353.4,202.7L-353.4,202.7L-353.4,202.7L-353.4,202.7c0.1,0,0.2,0,0.2,0l0.1,0c0,0,0.1,0,0.1,0h0l0,0l0,0
		h0l0,0h0l0,0c0,0,0,0,0.1,0l0,0l0,0c0,0-0.2,0-0.3,0l0,0l-0.1,0C-353.3,202.7-353.3,202.7-353.4,202.7L-353.4,202.7L-353.4,202.7
		 M-353.1,202.8C-353.1,202.8-353.1,202.8-353.1,202.8c-0.1,0-0.2,0-0.2,0l0,0C-353.3,202.7-353.2,202.8-353.1,202.8L-353.1,202.8
		C-353.1,202.8-353.1,202.8-353.1,202.8L-353.1,202.8L-353.1,202.8C-353.1,202.8-353,202.8-353.1,202.8
		C-353,202.8-353,202.8-353.1,202.8L-353.1,202.8c0.1,0,0.1,0,0.2,0C-352.9,202.8-353,202.8-353.1,202.8L-353.1,202.8L-353.1,202.8
		c0.1,0,0.1,0,0.2,0c0,0,0.1,0,0.1,0c0,0,0.1,0,0.1,0c0,0,0,0,0.1,0c0,0-0.1,0-0.2,0c0,0,0,0,0,0l0,0l0,0l0,0
		C-353,202.8-353,202.8-353.1,202.8 M-352.5,202.9c0,0-0.1,0-0.1,0C-352.6,202.9-352.6,202.9-352.5,202.9L-352.5,202.9
		c-0.2,0-0.2,0-0.3,0c0.1,0,0.1,0,0.2,0c0,0,0,0,0,0l-0.1,0l0,0c0,0,0,0,0,0c0,0,0,0,0.1,0v0l0,0l0,0
		C-352.6,202.9-352.6,202.9-352.5,202.9c-0.1,0-0.2,0-0.2,0c0,0,0,0-0.1,0C-352.7,202.9-352.6,202.9-352.5,202.9L-352.5,202.9
		C-352.5,202.9-352.5,202.9-352.5,202.9L-352.5,202.9C-352.5,202.9-352.5,202.9-352.5,202.9L-352.5,202.9c0.1,0,0.1,0.1,0.2,0.1
		c0,0,0.1,0,0.1,0l0,0l0,0c0,0,0.1,0,0.1,0c0,0-0.1,0-0.1,0c0,0,0,0,0,0C-352.3,203-352.3,203-352.5,202.9 M-352.3,203L-352.3,203
		L-352.3,203L-352.3,203 M-351.3,203.2L-351.3,203.2c-0.1,0-0.1,0-0.1,0l0,0c0,0,0,0-0.2,0l0,0c-0.1,0-0.2-0.1-0.3-0.1
		c0,0-0.1,0-0.2,0c0,0,0,0,0,0c0,0,0,0-0.1,0c0,0-0.1,0-0.1,0c-0.1,0-0.2,0-0.3-0.1l0,0c0,0,0.1,0,0.1,0c0,0,0,0,0,0
		c0.2,0,0.2,0,0.2,0.1c0,0,0,0-0.1,0c0,0,0,0,0,0c0,0,0,0,0,0c0,0,0,0,0,0c-0.1,0-0.1,0-0.1,0c0,0,0.1,0,0.1,0v0c0,0-0.1,0-0.1,0
		c0,0-0.1,0-0.1,0c0,0,0,0,0.1,0l0,0c0.2,0.1,0.4,0.1,0.6,0.2c-0.1,0-0.1,0-0.2-0.1c0,0,0.3,0.1,0.3,0.1c0,0,0,0-0.1,0
		c0.1,0,0.1,0,0.2,0l0,0c0,0-0.1,0-0.2-0.1c0,0-0.1,0-0.1,0l0,0c0.1,0,0.1,0,0.2,0l0,0l-0.1,0l0,0c0,0,0.1,0,0.1,0c0,0,0,0,0,0l0,0
		l0,0l0,0c0,0,0,0,0,0c0,0,0,0,0.1,0c0,0,0.1,0,0.1,0l0,0l0,0l0,0c0,0,0,0-0.1,0l0,0C-351.6,203.2-351.4,203.2-351.3,203.2
		L-351.3,203.2C-351.4,203.2-351.4,203.2-351.3,203.2c0.1,0.1,0.3,0.1,0.4,0.2l0,0C-350.9,203.4-351.2,203.3-351.3,203.2
		c-0.1,0-0.2,0-0.2,0c0,0,0,0-0.3-0.1l0,0C-351.5,203.2-351.5,203.2-351.3,203.2L-351.3,203.2C-351.3,203.2-351.3,203.2-351.3,203.2
		c0,0,0,0,0.1,0.1l0,0C-351.2,203.2-351.2,203.2-351.3,203.2L-351.3,203.2L-351.3,203.2 M-345.1,206.9L-345.1,206.9L-345.1,206.9
		L-345.1,206.9C-345.1,206.8-345.1,206.8-345.1,206.9L-345.1,206.9L-345.1,206.9L-345.1,206.9L-345.1,206.9
		C-345.1,206.8-345.1,206.8-345.1,206.9 M-348.3,204.4c-0.1,0-0.1-0.1-0.2-0.1l0,0l0,0l0,0l0,0
		C-348.4,204.3-348.4,204.4-348.3,204.4L-348.3,204.4 M-347.2,205l-0.8-0.5l0,0c0,0-0.1,0-0.1,0l0,0c0,0,0.1,0,0.1,0.1l0,0
		c0,0-0.1,0-0.1-0.1c0,0,0,0,0,0c0,0-0.1,0-0.1-0.1l0,0c0,0,0,0,0.1,0c0,0,0,0-0.1,0c0,0,0,0-0.1,0l-0.1-0.1c-0.1,0-0.1-0.1-0.2-0.1
		l0,0c0,0,0.1,0,0.1,0.1c0,0,0,0-0.1,0c0,0,0,0-0.1,0c0,0,0,0,0,0l0,0c0.1,0.1,0.1,0.1,0.2,0.1c0,0,0,0,0,0l0,0l0,0
		c-0.1-0.1-0.1-0.1-0.2-0.1l0,0l-0.1-0.1l0,0l0,0c0.1,0,0.2,0.1,0.2,0.1l0,0c0,0,0,0-0.1-0.1c0,0,0,0,0,0c0.1,0.1,0.2,0.1,0.2,0.1
		c0,0,0.1,0,0.1,0.1l0,0c0,0,0,0-0.1,0l0,0c0.2,0.1,0.2,0.1,0.2,0.1c-0.1,0-0.1,0-0.3-0.1c0,0,0.1,0,0.1,0c0.1,0,0.2,0.1,0.3,0.2
		c0,0,0,0-0.1-0.1c0,0,0.1,0.1,0.1,0.1c0,0,0.1,0,0.1,0.1c0,0,0,0,0,0l0,0c0,0,0,0-0.2-0.1c0,0,0.1,0.1,0.1,0.1l0,0l0,0
		c0,0,0.1,0.1,0.1,0.1l0,0c0,0,0,0,0.1,0l0,0c0,0,0,0,0.1,0.1l0,0l0,0l0,0c-0.1-0.1-0.1-0.1-0.1-0.1l0,0l0,0l0,0l0,0c0,0,0,0,0.1,0
		c0,0.1,0.7,0.6,0.7,0.6l0,0c0.1,0.1,0.1,0.1,0.2,0.2c0,0,0,0,0,0c0,0,0,0,0.3,0.3c0,0,0,0,0,0c0,0,0,0,0,0l0.1,0.1
		c0,0,0.1,0,0.1,0.1l0,0l0,0h0l0,0h0l0,0v0h0h0c0,0,0,0,0.2,0.2l0,0c0.1,0.1,0.2,0.2,0.3,0.3l0,0l0,0c0,0,0,0,0.1,0.1l0,0
		c0.2,0,0.1,0.2,0.3,0.2c0.1,0.1,0.1,0.1,0.1,0.1c0.1,0,0.1,0,0.2,0c0,0,0-0.1-0.1-0.1l0,0l0,0c0,0,0,0-0.1-0.1c0,0,0.1,0,0.2,0.2
		c0.1,0,0.2,0,0.2-0.1c-0.1-0.2-0.1-0.2-0.2-0.2c0,0,0,0,0,0c-0.1-0.1-0.2-0.1-0.3-0.2c-0.1-0.1-0.2-0.2-0.3-0.3c0,0-0.4-0.4-1-0.9
		l0,0l0,0v0v0h0l0,0l0,0l0,0c0,0,0.1,0.1,0.1,0.1c0,0,0,0,0,0c0,0,0,0,0.1,0.1c0,0,0.1,0.1,0.1,0.1l0,0c0.2,0.1,0.2,0.1,0.3,0.2l0,0
		c0.1,0.1,0.1,0.1,0.6,0.6l0,0c0.1,0.1,0.2,0.1,0.3,0.2l0,0c0,0,0,0-0.1-0.1l0,0c0,0,0,0-0.1-0.1l0,0l0,0l0,0l0,0c0,0,0,0,0.1,0.1
		l0,0l0,0c0.1,0.1,0.2,0.2,0.2,0.2c0,0,0,0-0.1,0c0,0,0,0,0,0.1l0,0c0,0,0,0.1,0.1,0.1c0,0,0-0.1,0-0.1l-0.1-0.1
		c-1.1-1-1.1-1-1.7-1.4l-0.2-0.1l0,0c-0.1-0.1-0.1-0.1-0.3-0.2C-347.3,205-347.2,205-347.2,205L-347.2,205 M-345.4,207L-345.4,207
		c-0.1,0-0.1,0-0.2,0l0,0l0,0c0,0,0,0,0,0l0,0l0,0l0,0l0,0l0,0l0,0c0,0,0,0,0.1,0l0,0l0,0l0,0c0,0,0,0,0,0c0,0,0,0,0,0l0,0
		c0,0,0,0,0,0C-345.3,207.1-345.3,207.1-345.4,207C-345.4,207.1-345.4,207.1-345.4,207 M-345.1,206.9c-0.1,0-0.1,0-0.2,0.1
		c0,0,0.1,0.1,0.1,0.1l0,0c0.1,0.1,0.1,0.1,0.1,0.1c0.1,0.1,0.1,0.1,0.1,0.1l0,0l0,0c0,0,0,0,0.2,0.1c0,0,0.1,0.1,0.1,0.1l0,0
		c0,0,0,0,0.1,0.1c0,0,0,0,0.1,0c-0.1-0.1-0.1-0.1-0.1-0.2l0,0l0,0c0,0,0,0,0,0c0,0,0,0,0-0.1l0,0c0,0-0.1-0.1-0.1-0.1l0,0
		c0,0-0.1-0.1-0.1-0.1l0,0l0,0l0,0c0,0,0,0,0,0c-0.1-0.1-0.1-0.1-0.2-0.2C-345.1,207-345.1,206.9-345.1,206.9 M-343.7,208.3
		c-0.4-0.5-1-1.1-1.4-1.6c0,0,0,0.1,0,0.1l0,0l0,0v0l0,0v0l0,0h0v0l0,0c0.1,0,0.1,0.1,0.2,0.2c0,0,0,0-0.1-0.1c0,0,0,0,0.3,0.3l0,0
		c0,0,0,0-0.1-0.1c0,0,0,0,0,0c0,0,0,0,0,0c0,0,0,0,0,0c0.2,0.2,0.3,0.4,0.5,0.6l0,0c0,0,0,0-0.1,0c0,0,0,0,0.2,0.2l0,0
		c-0.1,0-0.1-0.1-0.2-0.1c0,0.1,0.1,0.1,0.1,0.2l0,0l0,0l0,0c0,0,0,0-0.1-0.1c0,0,0,0,0,0l0,0c0,0,0,0,0,0c0,0,0,0,0.1,0.1l0,0
		c0,0,0,0-0.1-0.1l0,0l0,0c0,0,0,0,0-0.1c0,0,0,0,0,0c0,0,0,0,0,0c0,0,0,0,0.1,0c0-0.1-0.2-0.3-0.2-0.3c0,0,0,0,0,0c0,0,0,0,0,0.1
		l0,0v0c0,0,0,0-0.1-0.1c0,0,0-0.1-0.1-0.1l0,0c-0.2-0.2-0.2-0.2-0.2-0.3c0,0.1,0.1,0.1,0.1,0.2c0,0,0,0,0,0c0,0,0,0,0,0
		c0.1,0.1,0.2,0.3,0.3,0.4c0,0,0,0,0,0c0,0,0,0.1,0.1,0.1c0,0,0.1,0.1,0.1,0.1c0,0,0,0.1,0.1,0.1l0,0l0,0l0,0c0,0,0,0-0.1,0
		c0,0,0,0,0,0.1l0,0c0.1,0.1,0.1,0.1,0.1,0.1h0l0,0l0,0c0,0,0,0.1,0,0.1l0.1,0c0,0,0.1,0.1,0.1,0.1c0,0,0,0,0,0.2c0,0,0,0,0,0l0,0
		c0,0.1,0.1,0.2,0.1,0.2c0,0,0,0-0.1,0c0,0.1,0,0.1,0.1,0.1c0,0,0,0-0.1,0l0,0c0,0,0,0-0.1,0c0,0,0,0,0,0c0,0,0,0-0.1,0
		c0,0,0,0.1,0.1,0.1c0,0,0.1,0.1,0.1,0.1l0,0c0,0,0,0,0,0c-0.1,0-0.2,0-0.2,0c0,0,0,0-0.1,0c0,0,0,0.1,0,0.1l0,0
		c0.1,0.1,0.1,0.1,0.1,0.1l0,0c0.1,0.1,0.1,0.1,0.2,0.2c0,0.1,0.1,0.1,0.1,0.2c0.3,0.3,0.3,0.3,0.4,0.7c0,0,0,0,0,0.1c0,0,0,0,0,0
		c-0.1,0-0.2,0-0.2-0.1c-0.1,0-0.1,0-0.2,0c-0.1,0-0.1,0-0.1,0h0l0,0c0,0,0,0,0,0.1c0,0-0.1,0-0.1,0l0,0c0.1,0.1,0.1,0.3,0.2,0.4
		c0,0.1,0.1,0.2,0.1,0.3c0,0.1,0,0.3,0.1,0.4c0,0,0,0,0,0.1c0,0,0,0,0,0l0,0c0,0.1,0,0.1,0,0.2c0,0,0.1,0,0.1,0c0,0,0,0,0.1,0
		c0,0,0,0,0.1,0.1c0,0,0,0,0.1,0c0,0,0.1,0,0.1,0.1c0,0,0.1,0.1,0.1,0.2c0,0,0,0,0-0.1l0,0l0,0c0.1,0,0-0.2,0.2-0.2
		c0.1-0.1,0.1-0.2,0.2-0.3c0,0,0-0.1-0.1-0.1c-0.1-0.2-0.1-0.2-0.1-0.4c0,0,0,0,0-0.1c0,0,0,0,0,0c0-0.1,0-0.1,0-0.2c0,0,0,0,0.1,0
		c0,0,0-0.1-0.1-0.1c0,0,0,0,0,0c-0.1-0.2-0.2-0.3,0-0.3l0,0l0,0h0h0h0l0,0h0h0c0,0,0.1,0,0.1,0.1c0,0,0,0,0,0l0,0c0,0,0,0-0.1-0.2
		c0,0,0,0,0,0l0,0c0-0.1,0-0.1,0-0.1c0.2,0,0.2,0.3,0.3,0.4c0,0,0,0,0.1,0.1c0.1,0.1,0.4,0.4,0.6,0.8c0,0,0,0,0,0.1c0,0,0,0-0.1,0
		c0,0,0,0,0,0.1c0.1,0.1,0.1,0.1,0.1,0.2c0,0,0.1,0,0.1,0c0-0.1,0-0.1-0.1-0.2c0-0.2-0.1-0.5-0.1-0.5c0,0,0,0,0,0l0,0c0,0,0,0,0,0
		c0,0,0,0,0-0.1l0,0c0,0,0,0,0.1,0.1c0-0.2-0.2-0.3-0.3-0.4c-0.1,0-0.3-0.3-0.3-0.4l0,0c0,0,0,0-0.1-0.1l0,0c0,0-0.1-0.1-0.1-0.1
		l0,0l0,0l0,0c0,0-0.1-0.1-0.1-0.1l0,0c0.3,0.3,0.4,0.5,0.5,0.5c0.1,0.1,0.2,0.3,0.3,0.4c0.2,0.4,0.2,0.4,0.2,0.4
		c0,0.1,0.1,0.1,0.1,0.2l0,0l0,0c0,0,0,0.1,0.1,0.2c0,0,0,0,0-0.1l0,0c0,0.1,0.1,0.2,0.1,0.3c0,0,0,0,0,0c0,0,0,0,0-0.1
		c0,0,0,0,0-0.1c0,0,0-0.1,0-0.1l0,0l0,0c0,0,0-0.1-0.1-0.2c0,0,0,0,0-0.1c0,0,0,0,0,0.1c0-0.1-0.2-0.3-0.2-0.4c0,0,0,0,0,0l0,0l0,0
		c0,0,0,0,0,0.1l0,0l0,0c0-0.1-0.1-0.1-0.1-0.2c0,0,0.1,0.1,0.1,0.2c0,0,0,0.1,0,0.1c0,0.1,0.1,0.2,0.1,0.3c0,0,0,0,0,0.1
		c0,0,0,0.1,0,0.1c0,0,0,0.1,0,0.1l0,0l0,0l0,0l0,0l0,0c0,0,0,0.1,0,0.1l0,0l0,0c0,0,0,0.1,0,0.1l0,0l0,0c0,0,0-0.1,0-0.1
		c0,0,0,0,0-0.1c0,0,0-0.1,0-0.1c0,0,0,0,0-0.1l0,0l0,0l0,0c-0.2-0.5-0.5-1.2-0.8-1.8C-343.2,209-343.3,208.8-343.7,208.3
		 M-346.3,207.2L-346.3,207.2L-346.3,207.2C-346.3,207.3-346.3,207.3-346.3,207.2L-346.3,207.2L-346.3,207.2c0,0.1,0,0.1,0,0.1
		c0,0,0,0,0,0.1c0,0,0,0,0,0l0,0l0,0l0,0c0,0,0,0,0-0.1l0,0c0,0,0,0,0,0C-346.2,207.4-346.2,207.3-346.3,207.2L-346.3,207.2
		C-346.3,207.3-346.3,207.3-346.3,207.2 M-344.5,208.6C-344.6,208.6-344.6,208.6-344.5,208.6c-0.1-0.1-0.2-0.2-0.2-0.2l0,0
		c0,0,0.1,0.1,0,0.1c0,0,0,0-0.2-0.2c0,0,0,0,0,0c-0.1-0.1-0.1-0.2-0.2-0.2c0,0,0,0,0,0c0,0-0.1-0.1-0.1-0.1c-0.1,0-0.1-0.1-0.1-0.1
		c0,0-0.1,0-0.2-0.1l0-0.1l0,0c0,0,0,0,0,0c0,0,0-0.1-0.1-0.1c0,0-0.1-0.1-0.1-0.1c0,0-0.1,0-0.2,0c-0.1-0.2-0.1-0.2-0.2-0.2l0,0
		l0,0c0,0,0,0-0.1,0c0,0,0,0,0.1,0.1c0,0,0.1,0.1,0.1,0.1c0,0-0.1,0-0.1,0c0,0,0.1,0.1,0.2,0.2c0,0,0,0,0,0c0,0,0,0,0,0
		c0,0,0.1,0.1,0.1,0.1c0,0,0,0,0,0.1c0,0,0,0,0,0l0,0c0,0,0.1,0,0.1,0.1l0,0c0,0,0,0,0-0.1c0,0,0.1,0.1,0.2,0.2l0,0l0,0
		c0,0,0,0,0.1,0.1c0,0,0.1,0,0.1,0l0,0c0.1,0,0.1,0.2,0.2,0.2c0,0.1,0.1,0.1,0.1,0.2c0,0-0.1,0-0.1,0l0,0l0,0c0,0,0,0,0,0
		c0,0,0,0,0,0l0,0c0,0.1,0,0.1,0.1,0.1c0.1-0.1,0.1,0,0.1,0.1l0,0c0,0,0,0,0,0.1l0,0h0l0,0l0,0h0h0l0,0l0,0h0c0,0,0.1,0.1,0.1,0.1
		c0,0,0,0,0,0l0.1,0c0,0,0.1,0.1,0,0.1c0,0,0,0,0,0.1l0,0l0,0c0.1,0.1,0.1,0.1,0,0.2l0,0c0,0,0,0,0,0c0,0,0,0,0-0.1c0,0,0,0,0.1,0
		c0,0,0,0,0.1,0c-0.1-0.1-0.1-0.1-0.1-0.1c0,0,0,0,0.1,0c0,0,0,0,0.1,0c0,0,0,0,0-0.1l0,0c0,0,0.1,0,0.1,0.1l0,0c0,0,0,0,0.1,0
		c0,0,0,0,0-0.1l0,0l0,0c0,0-0.1-0.1-0.1-0.1l0,0C-344.6,208.7-344.6,208.7-344.5,208.6L-344.5,208.6
		C-344.5,208.7-344.6,208.7-344.5,208.6L-344.5,208.6 M-345.8,208.2L-345.8,208.2L-345.8,208.2L-345.8,208.2 M-345.5,208.2l-0.2-0.2
		c0,0,0,0-0.1,0c0,0,0,0,0,0h0c0,0,0,0,0,0c0,0,0,0,0,0.1c0,0-0.1,0-0.1-0.1l0,0c0,0.1,0.1,0.1,0.1,0.2l0,0l0,0l0,0l0,0c0,0,0,0,0,0
		l0,0c0.1,0.1,0.1,0.2,0.2,0.3c0,0,0,0,0.1,0c0,0,0.1,0.1,0.1,0.1c0,0,0,0,0,0c0,0,0,0.1,0,0.1c0,0,0,0.1,0,0.1l0,0
		c0,0.1,0.1,0.1,0.1,0.1c0,0,0,0,0.1,0c0,0,0,0,0-0.1c0.1,0,0.1,0,0.2,0c0,0,0,0,0-0.1c0,0,0,0,0,0c0,0,0,0,0,0l0,0
		c0-0.1-0.1-0.2-0.2-0.3C-345.5,208.3-345.5,208.3-345.5,208.2L-345.5,208.2C-345.5,208.3-345.5,208.3-345.5,208.2 M-341,214.3
		l-0.2-1.1c-0.1-0.1-0.1-0.2-0.2-0.3c0,0.2,0.1,0.4,0.1,0.6c0,0,0,0,0,0c0,0-0.1-0.1-0.1-0.2c0,0,0,0-0.1,0l-0.7-1.4
		c0,0.1-0.2,0.1-0.2,0.2c-0.1-0.1-0.1-0.1-0.2-0.1c0,0.1-0.1,0.1-0.1,0.2c-0.1,0-0.1,0-0.2,0.1c0,0.2,0,0.2,0,0.2c0,0-0.1,0-0.1,0
		c0,0,0,0-0.1,0.1l0,0c0,0-0.1,0-0.1,0c0,0,0,0,0,0c-0.1,0-0.1,0-0.2-0.1c0,0,0,0-0.1,0c0,0.1,0,0.3,0.1,0.4c0,0-0.1,0-0.2,0
		c0,0.1,0.1,0.2,0.1,0.4c-0.1,0-0.1,0-0.2,0.1c0,0.2,0,0.4,0.1,0.6c0,0.1,0,0.1,0,0.2c0,0-0.1,0-0.2,0c0,0.1-0.1,0.3-0.1,0.4
		c-0.4,0.2,0,0.7-0.3,1c0,0,0,0,0,0c0,0-0.1,0-0.1,0c0,0,0,0-0.1,0.7c0,0.1,0,0.1,0,0.2c0.1,0,0.2,0,0.3,0c0,0,0,0.1,0,0.1
		c-0.1,0.2-0.1,0.2-0.1,0.8c0,0,0,0.1,0,0.2c0,0.1,0,0.1-0.1,0.2c0,0.1,0,0.2,0,0.3c0,0,0,0.1,0,0.1c0,0.2,0,0.3,0.2,0.5
		c0,0,0.1,0,0.1,0c0,0.1,0,0.2,0.1,0.2c0,0,0.1,0,0.1,0c0,0.4,0,0.4,0.3,0.6c0,0.1,0,0.2,0,0.2c0.1,0.1,0.2,0.3,0.3,0.3
		c0-0.1,0.1-0.1,0.1-0.2c0,0,0.1,0,0.2,0l0,0c0,0,0.1,0,0.2,0c0,0,0,0.1,0,0.1c0.2,0,0.2-0.4,0.5-0.3c0,0,0,0,0,0
		c0,0,0.1-0.1,0.1-0.1c0,0,0,0,0.1,0c0,0.3,0,0.3,0,0.4c0.1,0,0.2,0,0.2-0.1c0,0.1,0,0.2-0.1,0.3c-0.6,2.2-0.6,2.2-0.7,2.4
		c0,0,0,0.1,0,0.1c-0.2,0.5-0.4,0.8-1.5,2.6c-0.1,0.1-0.2,0.2-0.3,0.4c-0.5,0.6-0.5,0.7-1.1,1.2c0,0,0,0-0.1,0.1
		c-0.1,0.1-0.1,0.1-0.2,0.2v0c-0.1,0.1-0.1,0.1-0.2,0.2l0,0c0.4-0.4,1-0.9,1.4-1.3c0.5-0.6,0.5-0.6,1.3-1.7c0.4-0.6,0.4-0.6,1-1.9
		c0.3-0.7,0.3-0.7,0.7-2.1c0.3-1.3,0.4-2.5,0.4-3.4C-340.8,215.8-340.8,215.8-341,214.3 M-347.7,222.8c0-0.4,0-0.5-0.1-0.5
		c-0.1,0-0.1,0-0.2,0c-0.2-0.1-0.3-0.4-0.5-0.3c-0.1,0-0.2,0-0.3,0c-0.2-0.1-0.3-0.2-0.3,0c0,0-0.1,0.1-0.2,0c0,0,0,0,0.1-0.1
		c-0.3-0.2-0.3-0.2-0.5-0.2c0,0,0,0-0.1,0c-0.1-0.1-0.1-0.1-0.2,0c0,0.1,0,0.1,0,0.2c-0.1,0-0.1,0-0.2,0c0,0,0-0.1,0-0.1
		c0,0,0.1-0.1,0.1-0.1c0,0,0,0,0.1,0c0,0,0,0,0-0.1c0,0-0.1,0-0.2-0.1c0,0,0,0,0,0c0,0,0,0,0,0c0,0,0,0-0.1,0c0,0.1,0,0.2-0.2,0.2
		c0,0,0-0.1,0-0.1c0.3-0.3,0.3-0.3,0.2-0.5c0,0-0.1,0-0.1,0c0-0.1,0-0.2,0-0.2c-0.1-0.3-0.1-0.3-0.1-0.3c0,0-0.5-0.2-0.6-0.3
		c-0.1-0.1-0.2,0-0.4,0c0,0-0.1,0-0.1,0c-0.4-0.1-0.5-0.2-0.6-0.4c0,0,0,0-0.3-0.1c0,0,0,0,0,0c-0.2,0-0.2-0.1-0.2-0.2
		c0,0,0,0-0.1,0c-0.2,0.1-0.2,0.1-0.2,0.1c0-0.1,0-0.1,0-0.2c0,0,0.1,0,0.1,0c0-0.1-0.1-0.1-0.2-0.1l-0.1,0.1c0,0,0,0,0,0
		c-0.1,0-0.1,0-0.2,0c-0.1,0.2-0.1,0.2-0.2,0.2c-0.1-0.1-0.2-0.2-0.3-0.2c-0.1,0-0.2,0-0.3,0c0,0-0.1,0-0.1,0c0,0,0-0.1,0-0.1
		c-0.1,0-0.2-0.2-0.4-0.1c0,0.1,0,0.1-0.1,0.2c-0.1,0-0.2,0.1-0.2,0.1c-0.1,0.1,0.1,0.3,0,0.4c-0.2-0.1,0-0.4-0.1-0.5
		c0-0.1,0.2-0.2,0.2-0.2l0,0h-0.1c-0.1,0-0.2,0-0.2,0.2c-0.1,0-0.2,0-0.3,0c-0.1,0.1-0.2,0.2-0.5,0.2c0,0.1,0,0.2,0,0.3
		c-0.1,0.1-0.1,0.1-0.2,0.1c-0.1,0.1-0.1,0.2-0.1,0.2c-0.2,0.1-0.2,0.2-0.2,0.3c0,0,0.1,0,0.1,0c0,0.2,0.2,0.4,0,0.6
		c0,0.3,0,0.3-0.1,0.3c0,0-0.1,0-0.1,0c0,0,0,0.1,0,0.2c0,0-0.1,0.1-0.1,0.1c0,0,0,0.1,0,0.1c-0.1,0-0.2,0-0.2,0.3
		c-0.1,0-0.1,0-0.2,0c0,0.1,0,0.2,0,0.4c0,0,0,0,0.1,0c0.1,0,0.1,0,0.2,0c0,0,0,0.1,0,0.1c-0.1,0-0.1,0-0.2,0.1c0,0.1,0,0.1-0.1,0.2
		c0,0.1,0,0.1,0.1,0.2c0,0,0,0,0,0c0,0.4,0.6,0.4,0.6,0.8c0,0,0,0.1,0,0.1c0.7,1,0.7,1,0.8,1c0,0,0.3,0.1,0.7,0.5c0,0,0.1,0,0.1,0
		c0,0.1,0,0.2,0,0.4c0,0,0,0.1,0,0.1l0,0c0,0,0,0,0,0.1c0,0,0,0,0,0.1c0,0,0,0,0,0.1c0,0,0,0.1,0,0.1l0,0c0,0,0,0,0,0.1
		c0,0,0,0,0,0.1v0c0,0,0,0,0,0.1c0,0,0,0.1,0,0.1l0,0c0,0,0,0,0,0.1c0,0.1-0.1,0.2-0.1,0.3c-0.1,0.4-0.1,0.4-0.2,0.5c0,0,0,0,0,0
		c0.1,0.4,0.1,0.5-0.1,0.7c0,0,0,0,0,0.1c0,0,0,0,0,0.1l0,0c0,0.1-0.1,0.1-0.2,0.2c0.1,0.2,0.1,0.2,0,0.4c0,0,0,0,0,0.1
		c0,0,0,0.1,0,0.1c0,0,0,0-0.1,0c0,0.1,0,0.1,0,0.2c0,0,0,0,0.1,0c0,0,0.1,0,0.1,0l0-0.2c0,0,0.1,0,0.1,0c0,0,0,0,0,0.1
		c0,0,0,0-0.1,0c0,0,0,0.1,0,0.1c0,0,0,0,0,0.2c0,0-0.1,0-0.1-0.1c0,0,0,0,0-0.1c0,0,0,0,0,0c0,0,0,0,0.1,0.1c0,0,0,0.1,0,0.1
		c0,0-0.1-0.1-0.1-0.1c0,0,0,0,0,0.1c0,0,0,0,0,0.1c0,0,0.1,0,0.1,0c0,0,0,0,0,0.1c0,0,0,0,0.1,0c0,0,0,0,0,0.1c-0.1,0-0.1,0-0.2,0
		c0,0,0,0,0,0.1c0,0,0,0,0,0c0,0,0,0,0,0.1c0,0,0,0.1,0.1,0.1l0,0l0,0c0,0,0,0,0,0c0,0,0,0,0.1,0l0,0l0,0c0,0.1,0.1,0.1,0.2,0.2
		c0,0,0,0,0.1,0c0,0,0,0,0,0c0,0,0.1,0,0.1,0c0,0,0,0,0,0c0,0,0.1,0,0.2,0c0,0,0,0,0.1,0c0,0-0.1,0-0.1,0c0,0,0,0,0,0
		c0,0,0-0.1,0-0.1l0,0c0,0,0-0.1,0-0.1c0,0,0,0,0,0c0,0,0,0,0-0.1c0,0,0.1,0,0.1,0c0,0,0,0,0-0.1c0.1-0.1,0.2-0.1,0.3-0.2
		c0,0,0,0,0,0c0,0,0,0-0.1,0c-0.1-0.1-0.1-0.1-0.1-0.1c0,0,0,0,0,0c0,0,0.1,0,0.1-0.1c0.1,0,0.1,0,0.1,0c0,0,0-0.1,0.1-0.1
		c0,0,0,0,0.1-0.2c0.1,0,0.1,0,0.2,0c0,0,0,0,0,0h0h0l0,0h0h0h0h0c0,0,0,0,0,0c0,0-0.1,0-0.1,0c0,0,0-0.1,0-0.1c0,0,0,0,0-0.1
		c0,0,0,0,0.1,0c0,0,0,0,0.1,0c0.1,0,0.1,0,0.2,0c0,0,0,0,0-0.1c0,0,0,0,0,0c0,0,0-0.1,0-0.1c0,0,0,0,0-0.1c0,0,0.1,0,0.2,0
		c0,0,0,0,0.1,0c0,0,0.1,0,0.1,0c0,0,0.1,0,0.2,0c0,0,0.2-0.2,0.3-0.3l0-0.1c0,0,0-0.1,0-0.1c0,0,0,0-0.1,0c0,0,0,0,0-0.1
		c0,0,0,0-0.1-0.1c0,0,0,0,0-0.1c0,0,0.1,0,0.1,0c0.5,0.1,0.5,0.1,0.7-0.1c0.5-0.5,0.5-0.5,0.5-0.5c0,0-0.1,0.1-0.1,0.1
		c0,0,0.7-0.5,0.7-0.7c0-0.1,0-0.2,0.6-0.6c0.1,0,0.1,0,0.2,0c0,0,0,0,0.2-0.1c0.1,0,0.3,0,0.4,0c0,0,0-0.1,0.1-0.1
		c0.1,0,0.1,0,0.5-0.6c0,0,0,0,0.2-0.3c0,0,0,0,0-0.1c0.1-0.1,0.1-0.2,0.2-0.3c0,0,0,0,0-0.1c0,0,0,0,0-0.1c0,0,0-0.1,0-0.1
		c0-0.1,0-0.2,0.1-0.2c0,0,0.4-0.3,0.5-0.4l0.4-0.4C-347.7,222.9-347.7,222.9-347.7,222.8 M-353.7,217.4L-353.7,217.4
		C-353.8,217.4-353.8,217.4-353.7,217.4c-0.1-0.1-0.1-0.1-0.1-0.2c-0.2,0-0.2,0-0.3,0c0,0-0.1,0-0.1,0c-0.1,0-0.1,0-0.1,0
		c0,0,0,0,0,0c0,0-0.1,0.1-0.1,0.1c0,0-0.2,0-0.2,0c-0.1,0-0.1-0.1-0.2-0.1c-0.1,0-0.1-0.1-0.2-0.1l-0.3,0c-0.1,0-0.1,0-0.2,0
		c0,0.1,0,0.2,0,0.3c0,0,0.1,0.2,0.2,0.2c0,0,0.1,0,0.1,0c0.1,0,0.2-0.1,0.3-0.1c0.1,0,0.1,0,0.2,0c0.1,0,0.1,0,0.2,0
		c0.2,0,0.3,0,0.4,0c0,0,0.1,0,0.1,0c0,0,0.2,0,0.2,0C-353.9,217.4-353.9,217.4-353.7,217.4C-353.8,217.4-353.8,217.4-353.7,217.4
		 M-356.3,217.5L-356.3,217.5c0,0,0-0.1,0-0.1c0,0-0.1,0-0.1,0c0,0-0.1,0-0.1,0l0,0c-0.1,0-0.2,0-0.3,0c0,0,0,0.1,0.1,0.1l0,0
		c0,0,0,0,0.1,0c0,0,0.1,0.1,0.1,0.1c0,0,0,0,0,0.1c0,0,0,0,0,0C-356.5,217.6-356.4,217.6-356.3,217.5
		C-356.4,217.6-356.4,217.6-356.3,217.5 M-356.6,216.9c0.2,0,0.5,0,0.7,0c-0.1-0.1-0.3-0.3-0.4-0.3c0,0-0.1,0-0.1,0
		c-0.1,0-0.2,0-0.3,0c-0.1,0-0.1-0.1-0.2-0.1c-0.1-0.1-0.2-0.1-0.3-0.1c-0.1-0.1-0.1-0.1-0.1-0.1c0,0,0-0.1-0.1-0.1
		c-0.1,0-0.2,0-0.2,0c0,0,0,0-0.1,0c0,0-0.1,0-0.1,0c-0.1,0-0.1,0-0.2,0c-0.2,0-0.2,0-0.2,0c-0.2,0.2,0.1,0.4,0.4,0.3
		c0.1,0,0.1-0.1,0.2-0.1c0,0,0.1,0,0.2,0c0,0,0.2,0.1,0.2,0.2c0,0,0,0,0,0.1c0,0,0.2,0.1,0.2,0.1c0.1,0,0.1,0,0.1,0.1
		C-356.8,216.8-356.8,216.9-356.6,216.9 M-348.3,205.9c0,0-0.1-0.1-0.1-0.1c0,0,0,0-0.1-0.1c-0.1,0-0.1,0-0.1,0l0,0
		c0,0-0.1-0.1-0.1-0.1c0,0-0.1,0-0.1-0.1c0,0-0.1,0-0.1,0c0,0,0,0,0,0c0,0,0,0.1,0,0.1l0,0c0,0-0.1,0-0.1,0c-0.1,0-0.1,0-0.1,0.1
		c0,0,0,0,0,0c0,0,0,0-0.1,0c0,0,0,0-0.1-0.1c0,0,0,0-0.1-0.1c0,0-0.1,0-0.1-0.1l0,0c0,0,0,0,0.1,0.1c-0.1,0-0.1,0-0.1,0
		c0,0-0.1,0-0.1,0c0,0.1,0.1,0.2,0.1,0.1l0,0c0.1,0,0.2,0.1,0.2,0.1c0,0-0.1,0-0.2,0c0,0,0.1,0.1,0.1,0.1l0,0c0,0,0.1,0,0.1,0l0,0
		c0,0,0.1,0.1,0.1,0.1l0.1,0.1c0,0,0,0,0,0c0.1,0,0.1,0,0.1,0c0,0,0,0,0,0c0.1,0,0.1,0,0.2,0.1c0.1,0,0.1,0,0.2,0l0-0.1
		c0-0.1,0-0.1,0-0.1c0,0,0,0,0,0l0,0c0,0,0-0.1,0-0.1C-348.4,205.9-348.4,205.9-348.3,205.9 M-351.7,210.1L-351.7,210.1
		c0,0,0-0.1,0-0.1c-0.1,0-0.1,0-0.1,0c0,0-0.1-0.1-0.2-0.1c0,0,0,0-0.1,0c-0.1,0-0.1,0-0.2,0c0,0-0.1,0-0.1,0c0-0.1,0-0.1,0-0.2
		c0,0,0,0,0.1,0c0,0,0-0.1,0-0.1c0,0,0,0,0,0c0,0,0,0-0.1,0c0,0-0.1,0-0.1,0c0,0,0,0,0,0.1c0,0,0,0.1,0,0.1c0,0,0,0,0,0
		c0,0-0.1,0.2-0.2,0.3c0,0-0.1,0.1-0.1,0.1c0,0,0,0.1,0,0.1c0,0,0,0.1,0,0.1c0.2,0,0.4,0,0.6,0c0,0,0.1,0,0.1,0.1
		c0.1,0.1,0.2,0.1,0.2,0.2c0,0,0,0,0,0c0,0,0.1,0,0-0.2C-351.7,210.2-351.7,210.2-351.7,210.1 M-353.3,209.8L-353.3,209.8
		C-353.4,209.8-353.4,209.8-353.3,209.8c-0.1,0-0.1,0-0.1,0c0,0,0,0-0.1,0c-0.1,0-0.1-0.1-0.1-0.1c0,0,0,0-0.1,0c0,0,0,0-0.1,0
		c0,0-0.1,0-0.1,0c0,0,0.1,0,0.1,0c0,0,0,0,0.1,0.1l0,0c0,0,0.1,0,0.1,0.1c0,0,0,0,0.1,0.1c0,0,0,0,0.1,0
		C-353.5,210-353.4,210-353.3,209.8 M-353.8,202.9c-0.1,0-0.1,0-0.2,0l0,0l0,0h0v0h0l0,0l0,0h0v0
		C-353.9,202.9-353.9,202.9-353.8,202.9c-0.1,0-0.1,0-0.1,0C-353.8,202.9-353.8,202.9-353.8,202.9L-353.8,202.9L-353.8,202.9
		L-353.8,202.9L-353.8,202.9L-353.8,202.9L-353.8,202.9L-353.8,202.9L-353.8,202.9c0,0.1,0.1,0.1,0.1,0.1c-0.1,0-0.2-0.1-0.2-0.1
		c0,0-0.1,0-0.1,0c-0.1,0-0.2,0-0.2,0l0,0l0,0c0.1,0,0.1,0,0.2,0l0,0l0,0c0,0-0.1,0-0.1,0l0,0c0,0-0.1,0-0.1,0c0,0,0,0-0.1,0l0,0h0
		l0,0h0l0,0h0h0v0l0,0h0h0l0,0h0l0,0h0l0,0l0,0c-0.1,0-0.1,0-0.1,0c0,0,0.1,0,0.1,0l0,0c0,0,0,0,0.1,0c0,0,0,0-0.1,0c0,0,0,0,0,0
		c0,0-0.1,0-0.1,0l0,0l0,0c0,0-0.1,0-0.2,0c0,0,0,0,0,0c0,0,0,0,0,0c0,0,0,0-0.1,0l0,0l0,0l0,0l0,0l0,0l0,0l0,0l0,0c0,0,0,0-0.1,0
		c0,0,0.1,0,0.1,0c-0.1,0-0.1,0-0.1,0l0,0c0,0,0,0-0.1,0c0,0,0,0,0,0c0,0,0,0-0.1,0c0,0,0,0,0,0l0,0l0,0c0.1,0,0.1,0,0.1,0l0,0l0,0
		c-0.1,0-0.1,0-0.1,0l0,0c0,0,0,0,0,0l0,0l0,0l0,0l0,0l0,0l0,0c0,0,0,0,0,0l0,0l0,0c0,0,0,0,0.1,0l0,0l0,0l0,0l0,0l0,0l0,0l0,0h0
		l0,0l0,0l0,0l0,0l0,0l0,0l0,0l0,0c0,0,0,0,0,0l0,0l0,0l0,0h0l0,0l0,0l0,0l0,0l0,0l0,0l0,0l0,0l0,0l0,0l0,0l0,0l0,0l0,0l0,0
		c0,0,0,0-0.1,0l0,0l0,0l0,0l0,0l0,0l0,0h0l0,0l0,0l0,0l0,0c0,0,0,0-0.1,0c0,0,0,0,0.1,0h0l0,0l0,0l0,0l0,0l0,0l0,0l0,0l0,0l0,0l0,0
		l0,0l0,0l0,0l0,0l0,0l0,0l0,0l0,0l0,0l0,0l0,0l0,0c0,0,0,0,0,0l0,0l0,0l0,0l0,0l0,0l0,0c0,0,0,0,0,0c0,0,0,0,0,0l0,0l0,0l0,0l0,0
		l0,0l0,0c0,0,0,0,0,0l0,0l0,0l0,0l0,0l0,0l0,0l0,0l0,0l0,0l0,0l0,0l0,0l0,0l0,0l0,0l0,0l0,0l0,0h0l0,0v0l0,0l0,0l0,0l0,0l0,0l0,0
		c0,0,0,0,0,0l0,0l0,0l0,0l0,0l0,0l0,0l0,0l0,0l0,0h0h0l0,0h0h0l0,0l0,0l0,0l0,0l0,0l0,0l0,0h0l0,0h0l0,0l0,0h0l0,0h0l0,0l0,0l0,0
		l0,0l0,0l0,0h0l0,0l0,0l0,0l0,0l0,0l0,0l0,0l0,0h0l0,0l0,0l0,0l0,0l0,0l0,0l0,0l0,0l0,0v0l0,0l0,0l0,0l0,0l0,0l0,0l0,0c0,0,0,0,0,0
		c0,0,0,0,0,0l0,0l0,0c0,0,0,0,0,0l0,0l0,0l0,0l0,0l0,0l0,0h0l0,0l0,0l0,0l0,0l0,0l0,0h0l0,0l0,0l0,0l0,0c0,0,0,0,0,0l0,0l0,0h0l0,0
		l0,0l0,0l0,0l0,0l0,0l0,0c0,0,0,0,0,0l0,0l0,0l0,0l0,0l0,0l0,0h0l0,0c0,0,0,0,0,0l0,0c0,0,0,0,0,0l0,0c0,0,0,0,0,0c0,0-0.1,0-0.1,0
		l0,0l0,0l0,0l0,0l0,0l0,0l0,0l0,0h0c0,0,0,0,0,0.1c0,0,0,0,0.1,0c0,0,0,0,0.1,0l0,0l0,0c0,0,0,0,0,0h0l0,0l0,0c0,0,0,0,0,0l0,0
		c0,0,0,0,0,0l0,0c0,0,0,0,0,0.1l0,0l0,0h0h0l0,0h0l0,0l0,0h0h0h0h0h0l0,0h0h0c0,0,0,0,0,0l0,0h0c0,0,0,0,0,0h0l0,0c0,0,0,0,0,0l0,0
		l0,0l0,0c0,0,0.1,0,0.1,0l0,0l0,0l0,0l0,0l0,0l0,0l0,0l0,0l0,0l0,0l0,0l0,0l0,0l0,0l0,0h0h0l0,0l0,0c0,0,0,0,0,0c0,0,0,0,0,0
		c0,0,0,0,0.1,0l0,0l0,0l0,0l0,0l0,0h0l0,0c0,0,0,0,0.1,0l0,0l0,0l0,0l0,0h0h0h0h0l0,0h0h0l0,0h0l0,0l0,0h0h0l0,0h0l0,0l0,0
		c0,0,0,0,0.1,0l0,0l0,0l0,0h0c0,0,0,0,0,0l0,0l0,0l0,0c0,0,0,0,0.1,0l0,0c0,0,0,0,0,0l0,0l0,0h0l0,0l0,0c0,0,0,0,0,0l0,0
		c0,0,0,0,0,0.1l0,0l0,0l0,0l0,0h0l0,0l0,0l0,0l0,0l0,0c0,0,0,0,0,0l0,0l0,0l0,0c0,0,0,0,0.1,0c0,0,0,0,0,0l0,0l0,0c0,0,0,0,0,0
		c0,0,0,0,0.1,0.1c0,0,0,0,0,0.1c0,0,0,0,0,0c0,0,0,0,0,0c0,0,0,0,0,0l0,0c0,0,0,0.1,0,0.1c0,0,0,0,0,0c0,0,0,0,0,0.1c0,0,0,0,0.1,0
		c0,0,0,0,0,0l0,0c0,0,0.1,0,0.1,0l0,0c0.1-0.1,0.2,0.1,0.3,0.1h0h0h0l0,0h0h0h0l0,0c0.1,0,0.1,0.1,0.1,0.1l0,0c0,0,0,0,0,0l0,0l0,0
		h0c-0.1,0-0.2-0.1-0.3,0c0,0,0.1,0.1,0.1,0.1l0,0l0,0c0,0-0.1,0,0,0.1c0.1,0.1,0.1,0,0.2,0.1l0,0c0,0,0,0,0,0c0,0,0,0,0.1,0
		c0,0,0-0.1-0.1-0.1c0,0-0.1,0-0.1,0l0,0c0,0,0,0-0.1,0l0,0c0,0,0,0,0.1,0c0.1,0,0.1,0,0.1,0c0,0,0,0,0.1,0c0,0,0,0,0.1,0l0,0l0,0
		l0,0l0,0c0,0,0,0,0,0c0.1,0,0.1,0,0.1,0.1c0,0,0,0.1,0,0.1c0,0,0,0-0.1,0l0,0c0,0,0,0,0,0h0h0c0,0,0,0,0,0l0,0l0,0c0,0,0,0.1,0,0.1
		c0,0,0,0-0.1,0c0,0,0,0-0.1,0l0,0l0,0c0,0,0,0,0,0c0.1,0.1,0.2,0.1,0.2,0.2c0,0,0,0-0.1,0c0,0,0.1,0.2,0.2,0.2l0,0h0c0,0,0,0,0,0
		c0,0,0,0,0,0.1c0,0,0,0,0,0l0,0c0.1,0.2,0.1,0.2,0.2,0.2c0,0,0-0.1,0-0.1c0,0,0,0,0.1,0c0,0,0,0.1,0,0.1c0,0,0,0-0.1,0.1
		c-0.1,0.1,0.8,0.8,0.9,0.8c0,0,0,0,0,0c0,0,0,0,0.1,0l0,0c0.2,0,0.5,0.4,0.6,0.1l0,0c0,0,0,0,0-0.1c0-0.1,0-0.2,0-0.3
		c-0.1-0.1-0.1-0.1-0.2-0.2l0,0c0,0,0,0,0.1,0c0,0,0,0,0,0c0,0,0,0,0.1,0c0-0.1,0-0.1,0-0.1l0,0l0,0c0-0.1-0.1-0.1-0.1-0.2
		c0-0.1-0.1-0.1-0.1-0.2c0.1,0,0.1,0,0.1,0c0,0,0-0.1-0.1-0.1c0.1,0,0.1,0,0.2,0c0-0.1-0.1-0.1-0.1-0.1c0,0,0.1,0,0.1,0
		c0.1,0.1,0.1,0.1,0.1,0.1c0,0,0,0,0.1,0c0,0,0-0.1,0-0.1l0,0c0,0,0,0,0.1,0l0,0c0,0,0,0,0-0.1c0,0,0,0,0-0.1l0,0c0,0,0,0,0-0.1l0,0
		c0,0,0,0,0,0l0,0l0,0c0,0,0,0-0.1-0.1l0,0c0,0,0,0,0,0l0,0l0,0l0,0l0,0l0,0l0,0c0.2,0.1,0.2,0.1,0.2,0c0,0,0-0.1,0-0.1
		c0,0,0,0,0.1,0c0,0,0,0,0,0l0,0c0,0,0,0,0,0c0-0.1-0.1-0.1-0.1-0.2c0,0,0.1,0,0.1,0c0-0.1,0-0.1-0.1-0.1l0,0l0,0l0,0c0,0,0,0,0,0
		c-0.1,0-0.1-0.1-0.1-0.1l0,0c-0.1,0-0.2,0-0.2-0.1c0,0,0,0,0-0.1l0,0c0,0,0,0,0.1,0c0,0,0,0,0-0.1c0.1,0,0.2,0.1,0.2,0.2l0,0
		c0,0,0,0,0,0c0,0,0.1,0,0.1,0c0,0-0.3-0.2-0.6-0.3l0,0c0.1,0,0.1,0,0.1,0c0,0,0,0,0,0c0,0-0.1-0.1-0.1-0.1c0,0,0,0,0,0
		c-0.1-0.1-0.1-0.1-0.2-0.1l0,0c0,0,0,0-0.1,0c0,0,0,0,0,0c0,0,0,0-0.1,0l0,0c0,0,0,0,0.1,0c0,0,0.1,0,0.1,0.1c0,0,0,0,0.1,0l0,0
		c0,0,0,0,0,0c0,0,0,0,0.1,0c0,0-0.1-0.1-0.2-0.1l0,0c-0.1,0-0.1,0-0.1-0.1c0,0,0,0,0.1,0l0,0l0,0c0,0,0,0,0,0
		c-0.1-0.1-0.2-0.1-0.4-0.2l0,0l0,0c0,0-0.1,0-0.1-0.1c-0.1-0.1-0.3-0.1-0.4-0.1c0,0,0,0,0,0l0,0l0,0c0,0,0,0,0,0c0.1,0,0.1,0,0.1,0
		l0,0c0.1,0.1,0.1,0.1,0.2,0.1l0,0c-0.1,0-0.2-0.1-0.3-0.1c0,0,0,0,0,0c0,0,0,0,0,0c0,0-0.1,0-0.1,0l0,0c0,0,0,0,0,0
		c0,0-0.1,0-0.1-0.1l0,0l0,0c0,0-0.1-0.1-0.2,0c0,0,0,0,0,0c0,0-0.1-0.1-0.2-0.1c0,0,0,0-0.2-0.1l0,0c-0.1,0-0.1,0-0.1-0.1l0,0
		c-0.1-0.1-0.3-0.1-0.4-0.2l0,0c0,0,0,0-0.1,0c0,0-0.1,0-0.1,0c0,0,0,0,0.1,0l0,0c-0.1,0-0.1,0-0.1,0l0,0
		C-353.7,202.9-353.7,202.9-353.8,202.9 M-355.1,202.8L-355.1,202.8L-355.1,202.8L-355.1,202.8L-355.1,202.8l-0.1-0.1l0,0h0l0,0l0,0
		l0,0c0,0,0,0,0,0c0,0,0,0,0,0c0,0,0,0,0,0l0,0l0,0l0,0c0,0,0,0,0,0c0,0,0,0,0,0l0,0c0,0,0,0,0,0h0l0,0h0l0,0l0,0c0,0,0,0-0.1,0l0,0
		l0,0c0,0,0,0,0,0l0,0c0,0,0,0,0,0l0,0c0,0,0,0,0,0l0,0c0,0,0,0,0,0l0,0l0,0l0,0l0,0c0,0,0,0-0.1,0l0,0l0,0h0c0,0,0,0-0.1,0h0l0,0
		l0,0l0,0l0,0l0,0l0,0l0,0l0,0c0,0,0,0,0,0c0,0,0,0,0.1,0l0.1,0l0,0l0,0l0,0l0,0l0,0c0.1,0,0.1,0,0.2,0l0,0c0,0,0,0,0.1,0l0,0l0,0
		l0,0c0,0,0,0,0.1,0l0,0l0,0c0,0-0.1,0-0.1,0.1l0,0l0,0l0,0l0,0c0,0,0,0,0,0l0,0l0,0c0,0-0.1,0-0.1,0h0l0,0l0,0l0,0l0,0l0,0l0.1,0
		l0,0c0,0,0,0,0,0c0-0.1,0-0.1-0.1-0.1l-0.1,0l0,0l0,0l0,0l0,0.1l0,0c0,0,0,0,0.1,0c0,0-0.1,0-0.1,0c0,0,0,0,0,0l0-0.1l0,0l-0.1,0
		l0,0l-0.1,0c0,0,0,0,0,0l0,0l0,0l0.1,0l0.1,0l-0.1,0l0,0c0.1,0,0.1,0,0.2-0.1l0,0.1l-0.1,0l-0.1,0c0,0-0.1,0-0.1,0c0,0,0,0,0,0
		c0,0,0,0-0.1,0c0,0.1,0,0.1-0.1,0.1l-0.1,0l0,0.1l0,0c0,0,0.1,0,0.1,0c0,0,0.1,0,0.1,0c0,0,0,0,0.1,0c0,0,0,0,0.1,0c0,0,0,0,0.1,0
		c0,0,0,0,0,0l0,0c0,0,0.1,0,0.1,0c0,0,0,0,0,0c0.1-0.1,0.1-0.1,0.2-0.1l0,0l-0.1,0l0-0.1l0.1,0l0-0.1l0-0.1c0,0,0,0,0,0
		c0.1,0,0.1,0,0.1,0c0,0,0-0.1,0-0.1l0,0c0,0,0,0,0.1,0c0,0,0,0,0,0c0,0,0,0,0-0.1c0,0-0.1,0-0.1,0l0,0l0,0v0c0,0,0,0,0,0
		c0,0,0,0,0,0c0,0,0,0,0,0l0,0c0.1,0,0.1,0,0.1,0l0,0l0,0l0,0l0,0l0,0l0,0l0,0h0.1h0l0,0l0,0c0,0,0.1,0,0.1-0.1l0,0l0,0
		L-355.1,202.8c0,0.1-0.1,0.1-0.1,0.1c0,0,0,0-0.1,0l0,0l0,0C-355.3,202.9-355.2,202.9-355.1,202.8
		C-355.2,202.9-355.2,202.9-355.1,202.8C-355.2,202.9-355.2,202.9-355.1,202.8L-355.1,202.8C-355.1,202.8-355.1,202.8-355.1,202.8
		 M-356.1,203.2C-356.1,203.2-356.1,203.2-356.1,203.2C-356.1,203.1-356.1,203.1-356.1,203.2l0-0.1l0,0l0,0c0,0,0,0,0,0c0,0,0,0,0,0
		c0,0,0,0,0,0c0,0,0,0,0,0c0,0,0,0,0-0.1l0,0l0,0c0,0-0.1,0-0.1,0l0,0l0,0c0,0,0,0-0.1,0l0,0c0,0,0,0,0,0c0,0,0,0,0,0l0,0l0,0l0,0
		l0,0c0,0,0,0-0.1,0l0,0c0,0,0,0-0.1,0l0,0l0,0l0,0l0.1,0l0,0c0,0-0.1,0-0.1,0l0,0l-0.1,0l0,0l0,0.1l0.1,0l0.1,0l0,0l0,0l0,0
		c0,0,0,0,0,0l0,0l0,0C-356.2,203.3-356.2,203.3-356.1,203.2C-356.2,203.2-356.2,203.2-356.1,203.2
		C-356.2,203.2-356.2,203.3-356.1,203.2C-356.1,203.2-356.1,203.2-356.1,203.2 M-356.6,203.5C-356.6,203.5-356.6,203.5-356.6,203.5
		C-356.5,203.5-356.5,203.4-356.6,203.5L-356.6,203.5L-356.6,203.5L-356.6,203.5 M-356,203.9L-356,203.9L-356,203.9l-0.1-0.1l-0.1,0
		l-0.1,0l-0.1,0l-0.1,0l-0.1,0l-0.1,0l0-0.1l0-0.1l0-0.1c0,0-0.1,0-0.1,0c0,0,0,0-0.1,0c0,0.1,0,0.1-0.1,0.2l-0.1,0.1l0,0.1l0,0.1
		l0.1,0c0,0,0.1,0,0.1,0c0.1,0.1,0.1,0.1,0.2,0.1c0,0,0.1,0,0.1,0l0.1,0l0,0l0,0C-356.1,204-356.1,204-356,203.9
		C-356.1,203.9-356.1,203.9-356,203.9 M-357.5,204C-357.5,204-357.5,204-357.5,204L-357.5,204L-357.5,204 M-357.2,204L-357.2,204
		l0-0.1l0-0.1l-0.1,0l-0.1,0l-0.1,0l0,0.1c0,0,0,0,0.1,0L-357.2,204L-357.2,204 M-357,203.7L-357,203.7l0.1-0.1l0,0c0,0,0,0-0.1,0
		l0,0l-0.1,0l-0.1,0.1L-357,203.7L-357,203.7L-357,203.7 M-356.7,203.5C-356.7,203.4-356.7,203.4-356.7,203.5
		C-356.7,203.4-356.7,203.4-356.7,203.5C-356.8,203.4-356.8,203.4-356.7,203.5l-0.2,0l0,0l0.1,0L-356.7,203.5L-356.7,203.5
		 M-356.7,203.4L-356.7,203.4L-356.7,203.4L-356.7,203.4l0-0.1l-0.1,0L-356.7,203.4l-0.2,0l0,0L-356.7,203.4L-356.7,203.4
		L-356.7,203.4z M-356.7,203.1L-356.7,203.1l0.1-0.1L-356.7,203.1L-356.7,203.1C-356.6,203.1-356.6,203.1-356.7,203.1L-356.7,203.1
		L-356.7,203.1 M-357.1,203.4L-357.1,203.4l0.1-0.1l0,0l0,0l0,0l0,0l0,0l0,0l0,0l0,0l-0.1,0l0,0l0,0l0,0l-0.1,0c0,0,0,0,0,0l0,0l0,0
		l0,0L-357.1,203.4L-357.1,203.4L-357.1,203.4L-357.1,203.4L-357.1,203.4 M-357.2,203.4L-357.2,203.4L-357.2,203.4L-357.2,203.4
		L-357.2,203.4L-357.2,203.4L-357.2,203.4z M-357.2,203.7C-357.2,203.7-357.2,203.7-357.2,203.7
		C-357.2,203.7-357.2,203.6-357.2,203.7C-357.2,203.6-357.3,203.6-357.2,203.7l-0.1-0.1c0,0,0,0-0.1,0c0,0,0,0.2-0.1,0.1l0-0.1
		c0,0,0,0,0,0l-0.1,0.1l-0.1,0.1l0-0.1l0.1-0.1l0,0l-0.1,0.1c0,0,0,0,0,0c0,0.1,0,0.1,0,0.1l0,0l0.1,0l0,0l0,0l-0.1,0.1l0.1,0l0.1,0
		l0.1,0l0.1-0.1C-357.3,203.8-357.3,203.8-357.2,203.7C-357.3,203.7-357.2,203.7-357.2,203.7 M-357.8,203.8
		C-357.8,203.8-357.8,203.8-357.8,203.8L-357.8,203.8C-357.9,203.8-357.9,203.8-357.8,203.8l-0.1,0
		C-357.9,203.9-357.9,203.9-357.8,203.8C-357.9,203.9-357.8,203.9-357.8,203.8 M-357.5,203.5L-357.5,203.5l0.1-0.1l0,0
		C-357.5,203.4-357.5,203.4-357.5,203.5 M-355.8,205.5L-355.8,205.5l0-0.2c-0.2,0-0.2,0-0.2,0c0,0,0,0-0.1,0.1l0,0.1l0.1,0
		L-355.8,205.5 M-357.1,204.2C-357.1,204.2-357.1,204.2-357.1,204.2c0.1-0.1,0.1-0.1,0-0.1c0,0-0.1,0-0.1,0l-0.1,0
		c-0.1,0-0.1,0-0.1,0c0,0.1,0,0.1-0.1,0.1c0,0-0.1,0.1-0.1,0.1c-0.1,0.1-0.1,0.1-0.1,0.1l0.1,0l0.1,0l0.1-0.1l0.1,0L-357.1,204.2
		L-357.1,204.2 M-357.9,204.6l0.1-0.1l0-0.1l0-0.1l0,0c0.2-0.1,0.2-0.1,0.1-0.2l0,0l-0.1,0l-0.1,0.1l0,0l0,0l-0.1,0l0,0.1l0,0.1
		c-0.2,0.1-0.2,0.1-0.2,0l-0.1,0l-0.1,0.1l0,0.1l0,0c0,0,0,0,0.1,0c0,0,0,0.1,0,0.1l0,0c0,0,0.1,0.1,0.1,0.1c0,0,0.1-0.1,0.1-0.1
		L-357.9,204.6 M-358.3,204.2L-358.3,204.2l0.1-0.1l-0.1,0c0,0-0.1,0-0.1,0C-358.4,204.2-358.4,204.2-358.3,204.2
		C-358.4,204.2-358.4,204.2-358.3,204.2L-358.3,204.2 M-358.5,204.2L-358.5,204.2L-358.5,204.2L-358.5,204.2L-358.5,204.2
		L-358.5,204.2z M-357.4,203.3C-357.4,203.3-357.4,203.3-357.4,203.3C-357.4,203.3-357.4,203.3-357.4,203.3L-357.4,203.3
		L-357.4,203.3l-0.2,0c0,0,0,0,0,0C-357.6,203.3-357.5,203.3-357.4,203.3C-357.5,203.3-357.5,203.3-357.4,203.3L-357.4,203.3
		 M-357.6,203.4L-357.6,203.4L-357.6,203.4C-357.6,203.3-357.6,203.3-357.6,203.4L-357.6,203.4l-0.2,0l-0.1,0.1l0,0l0.1,0l0.1,0
		L-357.6,203.4L-357.6,203.4L-357.6,203.4 M-357.9,203.4L-357.9,203.4l0.1,0l0,0L-357.9,203.4L-357.9,203.4L-357.9,203.4
		L-357.9,203.4z M-358,203.8l0.1-0.1l0,0c0,0,0,0,0,0L-358,203.8l0-0.1l0-0.1c0,0,0,0,0.1,0l0.1-0.1c0,0,0,0,0,0l-0.1,0l-0.1,0l0,0
		c0,0,0,0-0.1,0.1l0,0c0,0,0,0-0.1,0c0,0,0,0-0.1,0l0,0l0.1-0.1l0,0c0,0,0,0,0,0l0,0l0,0l-0.1,0l-0.1,0.1l-0.1,0l-0.1,0l-0.1,0.1
		l0.1,0l0,0l0.1,0l0.1,0l0.1,0c0,0,0,0,0.1,0c0,0-0.1,0-0.1,0c0,0,0,0-0.1,0l-0.1,0l-0.1,0l0,0c0,0,0.1,0,0.1,0l0.1,0l0.1-0.1l0.1,0
		c0,0,0.1,0,0.1,0C-358.1,203.9-358.1,203.9-358,203.8L-358,203.8 M-358.1,203.5L-358.1,203.5l0.1,0
		C-358.1,203.5-358.1,203.5-358.1,203.5L-358.1,203.5L-358.1,203.5 M-358.7,203.7l0.2-0.1L-358.7,203.7L-358.7,203.7L-358.7,203.7
		L-358.7,203.7z M-358.1,203.5l0.1-0.1L-358.1,203.5L-358.1,203.5C-358.1,203.4-358.2,203.4-358.1,203.5l-0.1,0
		c-0.1,0-0.2,0.1-0.4,0.1c0,0,0,0,0,0l-0.1,0l-0.1,0.1l0,0l0.1,0l0,0l0.1,0l0.1,0l0,0l0.1,0l0.1,0l-0.1,0.1l0.1,0l0.1,0
		L-358.1,203.5 M-358.6,204.9L-358.6,204.9l0-0.1l-0.1-0.1v-0.1l0.1-0.1l0-0.1l0.1-0.1l0-0.1l0-0.1c0,0-0.1,0-0.1,0
		c0,0-0.1,0.1-0.1,0.1l-0.1,0.1l0,0.1l-0.1,0l0,0l0,0l0.1-0.1l0-0.1l0-0.1l-0.1,0l-0.1,0.1l0,0.1c0,0,0,0-0.1,0l-0.1,0l-0.1,0l0.1,0
		l0.1-0.1l0,0l0,0l-0.1,0l-0.1,0.1l0,0l0.1,0l0.1-0.1l0,0c0,0,0,0-0.1,0l-0.1,0l-0.1,0l-0.1,0l-0.1,0l-0.1,0.1l-0.1,0.1l-0.1,0
		c0,0,0,0,0,0l0,0l0.1,0l0.1,0l0,0.1l-0.1,0l-0.1,0l-0.1,0l0,0.1c0,0,0.1,0,0.1,0l0.1,0c0,0,0.1,0,0.1,0c0,0,0,0,0,0
		c0,0,0,0-0.1,0.1l-0.2,0c0,0-0.1,0-0.1,0l-0.2,0.1l-0.1,0.1l0.1,0c0,0,0.1,0,0.1,0l-0.1,0.1l0,0.1c0,0,0.1,0,0.1,0h0.1l0.1-0.1
		l0.1,0l0.1-0.1l0.1,0l0,0l0.1,0l0.1,0.1l0.1,0l0.1,0l0.1-0.1l0-0.1l0.1,0L-358.6,204.9 M-359.3,205.2L-359.3,205.2l-0.1,0l-0.2,0.1
		l0.1,0l0.1,0L-359.3,205.2L-359.3,205.2z M-359.2,204.2l0.1,0l0.1-0.1l0-0.1l0,0l-0.1,0l0,0l0,0l-0.1,0l-0.1,0c0,0-0.1,0-0.1,0
		l-0.1,0.1l-0.2,0.1l-0.4,0.2l0.1,0.1l-0.1,0.2l0.2-0.1c0,0,0.1,0,0.1,0l0.1-0.1c0.1-0.1,0.2-0.1,0.5-0.2L-359.2,204.2
		 M-352.4,209.2L-352.4,209.2l0-0.2l0-0.1l0-0.2l-0.2,0l-0.1-0.1c-0.1,0-0.1,0-0.2,0l-0.2,0.1l-0.1,0.1l-0.1,0l0-0.1l0.2-0.1
		l0.2-0.1l0.1-0.1l-0.2,0l-0.2-0.1l-0.2-0.1l-0.1-0.1l-0.2-0.1l-0.1-0.1l0.1,0l0-0.1l-0.2-0.2l-0.2-0.2l-0.3-0.3l-0.1-0.1l-0.1,0.2
		c0,0.1,0,0.1,0,0.2l-0.2,0.1l-0.1,0.1l-0.2,0l0-0.1l-0.1-0.1l-0.2,0l0-0.2c0-0.1,0-0.2,0-0.2l0-0.1l-0.2,0l-0.1-0.1l-0.1-0.1
		l-0.2-0.1l-0.1,0.1l-0.2,0l-0.1,0c-0.1,0-0.1,0-0.2,0l-0.1,0.1l0.1,0.1l0,0.2l0,0.1l0.1,0.2c0,0-0.1,0-0.1,0l0,0.2l-0.1,0.1
		l0.1,0.1l0.1,0.1l0,0.2c0,0.1,0,0.2,0,0.2l-0.1,0.2l-0.2,0.1l-0.2,0l0.1,0.2c0,0.1,0,0.2,0,0.3l0.1,0.2l0,0.1l-0.1,0.2l-0.2,0
		l-0.1-0.2l-0.1-0.2c0-0.1,0-0.1,0-0.2l0-0.2l0.1-0.2l-0.3,0l-0.2,0l-0.1-0.1l-0.2-0.1l-0.1-0.1l-0.2-0.1l-0.2-0.1l-0.3,0.1l0-0.1
		l0-0.3l-0.1-0.1l-0.1-0.1l0.1-0.3l0.2-0.2l0.2-0.2l0.2-0.1l0.2-0.1l0-0.1l-0.2-0.1l-0.2-0.1l0.2,0l0.2,0.1l0.1,0l0.1-0.1l0.2,0.1
		l0.1,0l0-0.1l0.1,0l0.1-0.1l-0.1,0l-0.1,0l0-0.1l-0.1-0.1l0.1,0l0.2,0.1l0.1,0l0.1,0l0.1-0.1l-0.1-0.1c0,0,0.1,0,0.1,0l0.1,0.1
		l-0.1,0.1l-0.1,0.2c0,0.1,0,0.1-0.1,0.2l-0.1,0l0,0.1l0.1,0c0,0,0,0.1,0,0.1c0.1,0,0.1,0,0.2,0l0.1-0.1l0.2,0l0.1,0l0.1,0
		c0,0,0.1,0,0.1,0l0-0.1l-0.1,0l0-0.1l-0.2,0l-0.1-0.1l-0.1,0c0,0,0-0.1,0-0.1l0.1,0l0.1-0.1l0-0.1c0,0,0.1,0,0.1,0l0.1-0.1l0.1-0.1
		l0.1-0.1l0-0.1l0-0.1l0.1,0l0.1-0.1l-0.1-0.1l-0.1-0.1l-0.1-0.1c0,0,0.1,0,0.2,0l0,0l0.1,0l0.1,0.1l0.1,0l0.1,0l-0.1-0.1l0.1,0
		l0.1,0.1l0.1,0l0,0.1l0.1,0l0,0.1l0.1,0l0,0.1l0.1,0l0.1,0.1l0,0.1l-0.1,0.1l-0.1,0.1l0.1,0.1l-0.2,0l-0.1,0c0,0-0.1,0-0.1,0
		l-0.2,0.1c0,0,0,0.1,0,0.1l0.2,0l0.1,0l0-0.1l0.1,0l0.1,0l0.2,0.1l0.2,0.2l0,0.1l0.1,0.1c0.1,0,0.1,0,0.2,0l0.2,0.2l0.2,0l0.2,0.1
		l0-0.1l-0.3-0.2l-0.1-0.1l-0.1-0.1l0.2,0.1l0.3,0.1l0.2,0.1c0,0,0-0.1,0-0.1l0.1-0.1l-0.1-0.1l-0.1-0.2l-0.2-0.1l-0.2-0.2l0.1-0.1
		l0.1-0.1l0.3,0.2l0.1,0.1l0.1,0l0-0.2l0.1-0.1l0-0.1c0,0,0.1,0,0.1,0l0-0.1l0-0.1c-0.1,0-0.1,0-0.2,0c0,0,0,0,0-0.1l-0.1-0.1
		l-0.1,0l-0.1-0.1c0,0-0.1,0-0.1,0l0-0.1l0-0.1l-0.2,0l-0.1,0c0,0,0-0.1,0-0.1c0,0,0.1,0,0.1,0l0-0.1l-0.1,0l0,0l0.1,0l-0.1-0.1
		l-0.1,0l0-0.1l-0.1,0l-0.1,0l0-0.1l-0.1,0l0,0l0.1-0.1l-0.1,0l-0.1,0l-0.1-0.1l0-0.1l-0.1,0l0-0.1l-0.1,0c-0.1,0-0.1,0-0.2,0l0,0.1
		l-0.1,0l-0.1,0l0,0.1l-0.1,0l0-0.1l0.1-0.1l0-0.1l0-0.1c0,0-0.1,0-0.1,0l-0.1,0.1l-0.1,0l-0.1,0l0,0.1l0,0.1l-0.1,0.1l0,0.1l-0.1,0
		l-0.1-0.1l0-0.1l0-0.1l0.1-0.1l0.1-0.1c0,0-0.1,0-0.1,0l-0.1,0l-0.2,0.1l-0.2,0.2l-0.1,0.2l0.1,0l0.1,0l0,0.1l-0.1,0l-0.1,0l0,0.1
		c0,0,0.1,0,0.1,0l0.1,0l0.1,0.1l0.1,0.1l-0.1,0l0,0.1l0.1,0.1l-0.2,0.2l-0.1,0.1l-0.1,0.1l-0.1,0l0-0.2l0.1-0.1l-0.1-0.1l-0.2,0.1
		l-0.1-0.2l0,0l0.1-0.1l0-0.1l-0.1,0l0-0.1l-0.1-0.1l-0.1,0l-0.1,0.1l-0.1,0l-0.1,0.1l0,0.1l-0.1,0.1l0,0.1l0.1,0.1l-0.1,0.1l-0.1,0
		l0,0.1l0.1,0l0.2-0.1c0,0,0,0.1-0.1,0.1l-0.3,0.1l-0.1,0.2l-0.1-0.1l0.1-0.1c0,0-0.1,0-0.1,0l0.1-0.1c0,0,0.1,0,0.1,0l0.1-0.2
		l-0.1-0.1l-0.1,0.1l-0.1,0l0.1,0.1l-0.1,0.1l-0.1,0.1l-0.3,0l-0.1-0.1l-0.1,0l-0.1-0.1l-0.2,0.1l-0.2,0.1l0,0.1l-0.2,0.2l0.1-0.2
		l-0.1-0.1l-0.2,0l-0.3-0.1l0.1-0.1l0.2,0l-0.1-0.1l-0.1,0l-0.2-0.1l0-0.1l-0.1,0l-0.1,0l-0.1,0.1l-0.1,0l0.1-0.2l-0.2,0.1l-0.1,0
		l0.2-0.2l0,0l-0.2,0.1l-0.1,0.1l-0.1,0l-0.2,0l-0.2,0.1l0.2-0.1l0.1,0l0.1,0l0.1-0.1l0,0l-0.2,0l-0.2,0.1h-0.1c0,0,0,0-0.1,0
		l-0.3,0.1l-0.1,0l0.1-0.1l-0.1,0l0-0.1l0,0l-0.1,0l0-0.1c0,0,0,0-0.1,0l0-0.1c0,0,0,0-0.1,0l0,0c-1,0.6-1.9,1.2-2.7,2l0.1,0l0,0.1
		l-0.2,0.1l-0.1,0.1c0,0,0,0-0.1,0.1l-0.1,0.1l0.3-0.1l0.1,0c0-0.1,0.1-0.2,0.2-0.2l0.1,0l0,0.1l0,0.1l0,0.1l0.1,0l0,0.1
		c0,0,0,0,0.1,0l0,0.1l0,0.1c0,0.1,0,0.1,0,0.2c0,0,0.1,0,0.1,0l0,0.1l0,0.1l0.1,0.1l-0.1,0.1l0.1,0.1l-0.1,0.1l0,0.1l0.1,0
		l-0.1,0.1l0,0.1l-0.1,0.2l-0.1,0.1l0.1,0l-0.1,0.2l0,0.2l0,0.1l0.1,0.1l0.1,0.1l0.1,0.1l0,0.1l0.1,0.1l0.1,0.1l0,0.2
		c0,0.1-0.1,0.1-0.1,0.2l0-0.1l0-0.2l0-0.1l-0.1-0.1l-0.1,0l0.1-0.2c0,0-0.1,0-0.1,0l0-0.1l0,0l-0.1,0l-0.1,0l0,0.1l0,0.1l0,0.1
		l0.1,0.2l0,0.2l0,0.2l-0.1,0.2l-0.1,0.3c0,0.1-0.1,0.2-0.1,0.3l-0.1,0.1c0,0.1,0,0.1-0.1,0.2l0,0.2l-0.1,0.2l0,0.2l0,0.1l-0.1,0.2
		l0,0.2l0.1,0.1l0,0.3l0.1,0.1l0,0.2l0.1,0.2c0,0,0.1,0,0.2,0l0.1,0.1l0.2,0.1l0.1,0.2l0,0.2l0,0.2l0,0.3l0.1,0.1l0.1,0.2l0,0.1
		l-0.1,0.1l0.1,0.1l0.1,0.1l0.2,0.2l0.1,0.2l0,0.1l0,0.1l0.1,0.1l0.1,0.1l0.1,0.1l0,0.1l0.1,0l0-0.2l0-0.2l-0.1-0.1l0-0.2l-0.1-0.1
		l0-0.2l0-0.2l-0.1-0.1l0-0.2l-0.1-0.1l0-0.2l-0.1-0.2l0-0.3l0.1,0l0.1,0.1l0.1,0.1l0,0.2l0.1,0.3l0.2,0.2l0.1,0.2l0.1,0.2l0,0.2
		l0.2,0.1l0.1,0.2l0.1,0.2l0.2,0.3l0.1,0.2l0.1,0.1l-0.1,0.1l0,0.1l0.2,0.2l0.2,0.2l0.2,0.1l0.3,0.2l0.3,0.2l0.3,0.2l0.3,0.1l0.2,0
		l0.1-0.1l0.2,0l0.2,0.1l0.2,0.2l0.1,0.2c0.1,0,0.1,0,0.2,0l0.1,0l0.1,0.1l0.1,0.2l0.3,0.1l0-0.1l0.1,0.1c0.4,0.6,0.4,0.6,0.4,0.7
		l0.1,0.1l0.1,0l0.1,0.1c0.3,0.3,0.3,0.3,0.4,0.2l0.4,0.2l0.2,0.1l0-0.2l0.1-0.1l0.3,0l0,0.1l0.1,0l0.1-0.1l-0.1-0.1
		c-0.1,0-0.2,0-0.3,0l-0.2,0l-0.3,0l-0.2-0.1l-0.2-0.2l0-0.2c0-0.1,0-0.2,0-0.2l0.1-0.3c0-0.1,0-0.1,0-0.2l-0.1-0.2l-0.2-0.1l-0.3,0
		l-0.2-0.1l-0.2,0.1l-0.2-0.1l0.1-0.1c0,0,0-0.1,0-0.1c0,0,0-0.1,0-0.1l0.1-0.1l0.1-0.2c0-0.1,0-0.2,0-0.2l0.1-0.1l0-0.2l-0.1-0.1
		l-0.3,0l-0.2,0l-0.1,0.2l-0.1,0.2l-0.1,0.2l-0.2,0l-0.3,0.1l-0.3,0l-0.1-0.2l-0.2-0.1l-0.1-0.2l-0.1-0.3l-0.1-0.4l0-0.3l0.1-0.2
		l0.1-0.3l-0.1-0.3l0.2-0.3l0.2,0l0.2-0.1l0.2-0.2l0.2,0l0.2,0.1l0.1-0.1l0.1,0.2c0.1,0,0.1,0,0.2,0l0.2,0l0-0.1l0.1-0.2l0.2,0
		l0.2,0l0.3,0l0.1,0.2c0,0,0.1,0,0.1,0l0.1-0.1l0.1,0l0.1,0.1l0.1,0.2c0,0.1,0,0.1,0,0.2l0.1,0.1l0,0.1l0.1,0.1l0.1,0.1l0.1,0.1
		l0,0.2l0.1,0l0.1-0.1l0.1-0.2l-0.1-0.2l-0.1-0.3l-0.1-0.3c0-0.1,0-0.2,0-0.4c0-0.1,0.1-0.1,0.1-0.2l0.1-0.3l0.2-0.1l0.2-0.2
		l0.2-0.1l0.2-0.1l0-0.1l0.2-0.1l-0.1-0.2l-0.1-0.1l0-0.1l-0.1-0.1l0.2-0.1l0.1,0.2l0.1-0.2l0.1-0.2l0.1-0.1l0.1-0.3
		c0.1,0,0.2,0,0.3,0l0.2-0.1l0.2,0l-0.1-0.1l0-0.3l0.1-0.2c0.1,0,0.1,0,0.2,0l0.1-0.1l0.2,0l0.2-0.1l0.1-0.2c0.4,0,0.4,0,0.5,0
		c0,0,0,0-0.1,0.1c-0.1,0-0.2,0-0.3,0c0,0-0.1,0.1-0.2,0.1c0,0,0,0.1,0,0.2l0.1,0.1l0.1-0.1l0.1-0.1l0.2-0.1l0.2-0.1l0.2,0l0.1-0.2
		l0.1-0.1l0-0.1l-0.2,0.1l-0.1,0.2l-0.2,0l-0.2-0.1l-0.2-0.2l-0.1-0.3l0.2-0.1l0-0.2l-0.3,0l-0.3,0.1l-0.3,0.2l-0.3,0.3l-0.2,0.2
		l0.1-0.2l0.1-0.2l0.1-0.1l-0.2-0.1c0.1,0,0.2,0,0.3,0l0.1-0.1l0.2-0.1l0.2,0l0.1-0.2l0.2-0.1c0.1,0,0.2,0,0.3,0l0.5,0l0.2,0l0.2,0
		l0.2-0.1l0.1-0.2l0.3,0L-352.4,209.2"/>
	<path class="st0" d="M-355.1,231.9c-8.2,0-14.9-6.7-14.9-14.9c0-8.2,6.7-14.9,14.9-14.9c8.2,0,14.9,6.7,14.9,14.9
		C-340.2,225.2-346.9,231.9-355.1,231.9z M-355.1,203.2c-7.6,0-13.8,6.2-13.8,13.8s6.2,13.8,13.8,13.8s13.8-6.2,13.8-13.8
		S-347.5,203.2-355.1,203.2z"/>
</g>
</svg>
