<?xml version="1.0" encoding="utf-8"?>
<!-- Generator: Adobe Illustrator 19.1.0, SVG Export Plug-In . SVG Version: 6.00 Build 0)  -->
<svg version="1.1" id="Layer_1" xmlns="http://www.w3.org/2000/svg" xmlns:xlink="http://www.w3.org/1999/xlink" x="0px" y="0px"
	 viewBox="-375 197 40 40" style="enable-background:new -375 197 40 40;" xml:space="preserve">
<style type="text/css">
	.st0{fill:#CBCBCB;}
	.st1{fill:#FFFFFF;}
</style>
<g>
	<path class="st0" d="M-337,226h-13v-0.1c0-4.2,2.3-6.8,6.5-6.8s6.5,2.7,6.5,6.8V226z M-349.7,225h11.7c-0.2-4-3.1-5.4-5.9-5.4
		S-349.5,221-349.7,225z"/>
	<path class="st0" d="M-343.8,219.4c-2,0-3.7-1.7-3.7-3.7c0-2,1.7-3.7,3.7-3.7s3.7,1.7,3.7,3.7
		C-340.1,217.7-341.8,219.4-343.8,219.4z M-343.8,212.9c-1.5,0-2.8,1.2-2.8,2.8c0,1.5,1.2,2.8,2.8,2.8c1.5,0,2.8-1.2,2.8-2.8
		C-341.1,214.1-342.3,212.9-343.8,212.9z"/>
	<path class="st0" d="M-358,226h-14v-0.1c0-4.2,2.8-6.8,7-6.8s7,2.7,7,6.8V226z M-371,225h11.7c-0.2-4-3.1-5.4-5.9-5.4
		S-370.8,221-371,225z"/>
	<path class="st0" d="M-365.1,219.4c-2,0-3.7-1.7-3.7-3.7c0-2,1.7-3.7,3.7-3.7s3.7,1.7,3.7,3.7C-361.4,217.7-363,219.4-365.1,219.4z
		 M-365.1,212.9c-1.5,0-2.8,1.2-2.8,2.8c0,1.5,1.2,2.8,2.8,2.8c1.5,0,2.8-1.2,2.8-2.8C-362.3,214.1-363.6,212.9-365.1,212.9z"/>
	<g>
		<path class="st1" d="M-345.9,226c0-5-4-8.8-8.8-8.8s-8.8,3.8-8.8,8.8H-345.9z"/>
		<path class="st0" d="M-346,226h-18v-0.1c0-5.6,3.4-9.3,9-9.3s9,3.7,9,9.3V226z M-363,225h16.7c-0.2-4-3.4-7.9-8.3-7.9
			C-359.6,217.1-362.8,221-363,225z"/>
	</g>
	<path class="st0" d="M-354.6,216.7c-2.7,0-5-2.2-5-5c0-2.7,2.2-5,5-5c2.7,0,5,2.2,5,5C-349.7,214.5-351.9,216.7-354.6,216.7z
		 M-354.6,207.7c-2.2,0-4,1.8-4,4c0,2.2,1.8,4,4,4s4-1.8,4-4C-350.6,209.5-352.4,207.7-354.6,207.7z"/>
</g>
</svg>
