<?xml version="1.0" encoding="utf-8"?>
<!-- Generator: Adobe Illustrator 19.1.0, SVG Export Plug-In . SVG Version: 6.00 Build 0)  -->
<svg version="1.1" id="Layer_1" xmlns="http://www.w3.org/2000/svg" xmlns:xlink="http://www.w3.org/1999/xlink" x="0px" y="0px"
	 viewBox="-375 197 40 40" style="enable-background:new -375 197 40 40;" xml:space="preserve">
<style type="text/css">
	.st0{fill:#CBCBCB;}
	.st1{fill:none;}
</style>
<path class="st0" d="M-362.1,235L-362.1,235c-0.2,0-0.4-0.1-0.5-0.3l-3.3-6.4c0-0.1-0.1-0.2-0.1-0.2v-28.4c0-0.3,0.2-0.5,0.5-0.5
	h6.6c0.3,0,0.5,0.2,0.5,0.5v28.4c0,0.1,0,0.2-0.1,0.2l-3.3,6.4C-361.7,234.9-361.9,235-362.1,235z M-364.9,228l2.8,5.4l2.8-5.4
	v-27.8h-5.6V228z"/>
<path class="st0" d="M-359.2,205h-6.2c-0.3,0-0.5-0.2-0.5-0.5s0.2-0.5,0.5-0.5h6.2c0.3,0,0.5,0.2,0.5,0.5S-358.9,205-359.2,205z"/>
<path class="st0" d="M-359.2,207h-6.2c-0.3,0-0.5-0.2-0.5-0.5s0.2-0.5,0.5-0.5h6.2c0.3,0,0.5,0.2,0.5,0.5S-358.9,207-359.2,207z"/>
<path class="st0" d="M-360.2,231h-3.6c-0.3,0-0.5-0.2-0.5-0.5s0.2-0.5,0.5-0.5h3.6c0.3,0,0.5,0.2,0.5,0.5S-359.9,231-360.2,231z"/>
<path class="st0" d="M-359.2,229h-6.2c-0.3,0-0.5-0.2-0.5-0.5s0.2-0.5,0.5-0.5h6.2c0.3,0,0.5,0.2,0.5,0.5S-358.9,229-359.2,229z"/>
<path class="st0" d="M-362.5,225.4c-0.3,0-0.5-0.2-0.5-0.5v-15.6c0-0.3,0.2-0.5,0.5-0.5s0.5,0.2,0.5,0.5v15.6
	C-362,225.2-362.2,225.4-362.5,225.4z"/>
<path class="st0" d="M-344.6,234.5h-6.6c-0.3,0-0.5-0.2-0.5-0.5v-34.3c0-0.3,0.2-0.5,0.5-0.5h6.6c0.3,0,0.5,0.2,0.5,0.5V234
	C-344.1,234.2-344.4,234.5-344.6,234.5z M-350.7,233.4h5.6v-33.2h-5.6V233.4z"/>
<path class="st0" d="M-349.3,205h-1.6c-0.3,0-0.5-0.2-0.5-0.5s0.2-0.5,0.5-0.5h1.6c0.3,0,0.5,0.2,0.5,0.5S-349,205-349.3,205z"/>
<path class="st0" d="M-347.2,207h-3.6c-0.3,0-0.5-0.2-0.5-0.5s0.2-0.5,0.5-0.5h3.6c0.3,0,0.5,0.2,0.5,0.5S-346.9,207-347.2,207z"/>
<path class="st0" d="M-349.3,210h-1.6c-0.3,0-0.5-0.2-0.5-0.5s0.2-0.5,0.5-0.5h1.6c0.3,0,0.5,0.2,0.5,0.5S-349,210-349.3,210z"/>
<path class="st0" d="M-347.2,213h-3.6c-0.3,0-0.5-0.2-0.5-0.5s0.2-0.5,0.5-0.5h3.6c0.3,0,0.5,0.2,0.5,0.5S-346.9,213-347.2,213z"/>
<path class="st0" d="M-349.3,215h-1.6c-0.3,0-0.5-0.2-0.5-0.5s0.2-0.5,0.5-0.5h1.6c0.3,0,0.5,0.2,0.5,0.5S-349,215-349.3,215z"/>
<path class="st0" d="M-347.2,218h-3.6c-0.3,0-0.5-0.2-0.5-0.5s0.2-0.5,0.5-0.5h3.6c0.3,0,0.5,0.2,0.5,0.5S-346.9,218-347.2,218z"/>
<path class="st0" d="M-349.3,221h-1.6c-0.3,0-0.5-0.2-0.5-0.5s0.2-0.5,0.5-0.5h1.6c0.3,0,0.5,0.2,0.5,0.5S-349,221-349.3,221z"/>
<path class="st0" d="M-347.2,224h-3.6c-0.3,0-0.5-0.7-0.5-1s0.2-1,0.5-1h3.6c0.3,0,0.5,0.7,0.5,1S-346.9,224-347.2,224z"/>
<path class="st0" d="M-349.3,226h-1.6c-0.3,0-0.5-0.2-0.5-0.5s0.2-0.5,0.5-0.5h1.6c0.3,0,0.5,0.2,0.5,0.5S-349,226-349.3,226z"/>
<path class="st0" d="M-347.2,229h-3.6c-0.3,0-0.5-0.2-0.5-0.5s0.2-0.5,0.5-0.5h3.6c0.3,0,0.5,0.2,0.5,0.5S-346.9,229-347.2,229z"/>
<path class="st0" d="M-349.3,231h-1.6c-0.3,0-0.5-0.2-0.5-0.5s0.2-0.5,0.5-0.5h1.6c0.3,0,0.5,0.2,0.5,0.5S-349,231-349.3,231z"/>
<path class="st1" d="M-349,233.7"/>
<path class="st1" d="M-357.4,233.7"/>
<path class="st1" d="M-349,208.9"/>
<path class="st1" d="M-348.2,224"/>
<path class="st1" d="M-349,224.9"/>
</svg>
