<?xml version="1.0" encoding="utf-8"?>
<!-- Generator: Adobe Illustrator 19.1.0, SVG Export Plug-In . SVG Version: 6.00 Build 0)  -->
<svg version="1.1" id="Layer_1" xmlns="http://www.w3.org/2000/svg" xmlns:xlink="http://www.w3.org/1999/xlink" x="0px" y="0px"
	 viewBox="-375 197 40 40" style="enable-background:new -375 197 40 40;" xml:space="preserve">
<style type="text/css">
	.st0{fill:#CBCBCB;}
	.st1{fill:#FFFFFF;}
</style>
<rect x="-348.6" y="217.6" transform="matrix(0.3484 0.9373 -0.9373 0.3484 -18.6175 463.039)" class="st0" width="12.4" height="1"/>
<rect x="-371.7" y="210.3" transform="matrix(0.9938 0.1113 -0.1113 0.9938 21.2405 41.1712)" class="st0" width="27.3" height="1"/>
<rect x="-375.8" y="218.2" transform="matrix(0.6755 0.7373 -0.7373 0.6755 43.4821 338.6075)" class="st0" width="25.6" height="1"/>
<g>
	<circle class="st1" cx="-371.6" cy="209.3" r="2.4"/>
	<path class="st0" d="M-371.6,212.2c-1.6,0-2.9-1.3-2.9-2.9c0-1.6,1.3-2.9,2.9-2.9c1.6,0,2.9,1.3,2.9,2.9
		C-368.7,210.9-370,212.2-371.6,212.2z M-371.6,207.4c-1,0-1.8,0.8-1.8,1.8c0,1,0.8,1.8,1.8,1.8c1,0,1.8-0.8,1.8-1.8
		C-369.8,208.3-370.6,207.4-371.6,207.4z"/>
</g>
<path class="st0" d="M-354.2,228.8l-13.1-6.3l10.5-11.6l19-5.9l-2,19.3l-14.3,4.2L-354.2,228.8z M-365.5,222.2l11,5.3l9.6-15.4
	l0.9,0.6l-9.1,14.6l12.5-3.7l1.8-17l-17.2,5.3L-365.5,222.2z"/>
<g>
	<circle class="st1" cx="-338.2" cy="205.7" r="2.2"/>
	<path class="st0" d="M-338.2,208.5c-1.5,0-2.7-1.2-2.7-2.7c0-1.5,1.2-2.7,2.7-2.7c1.5,0,2.7,1.2,2.7,2.7
		C-335.5,207.3-336.7,208.5-338.2,208.5z M-338.2,204c-0.9,0-1.7,0.8-1.7,1.7c0,0.9,0.8,1.7,1.7,1.7s1.7-0.8,1.7-1.7
		C-336.5,204.8-337.3,204-338.2,204z"/>
</g>
<g>
	<circle class="st1" cx="-344.9" cy="212.9" r="2.4"/>
	<path class="st0" d="M-344.9,215.8c-1.6,0-2.9-1.3-2.9-2.9c0-1.6,1.3-2.9,2.9-2.9s2.9,1.3,2.9,2.9
		C-342,214.5-343.3,215.8-344.9,215.8z M-344.9,211.1c-1,0-1.8,0.8-1.8,1.8c0,1,0.8,1.8,1.8,1.8s1.8-0.8,1.8-1.8
		C-343.1,211.9-343.9,211.1-344.9,211.1z"/>
</g>
<g>
	<circle class="st1" cx="-366.4" cy="222.4" r="2.4"/>
	<path class="st0" d="M-366.4,225.3c-1.6,0-2.9-1.3-2.9-2.9s1.3-2.9,2.9-2.9c1.6,0,2.9,1.3,2.9,2.9S-364.8,225.3-366.4,225.3z
		 M-366.4,220.5c-1,0-1.8,0.8-1.8,1.8c0,1,0.8,1.8,1.8,1.8c1,0,1.8-0.8,1.8-1.8C-364.6,221.4-365.4,220.5-366.4,220.5z"/>
</g>
<rect x="-363.8" y="219.2" transform="matrix(0.124 0.9923 -0.9923 0.124 -93.2569 545.1431)" class="st0" width="16.9" height="1"/>
<g>
	<circle class="st0" cx="-354.3" cy="228.1" r="2.4"/>
	<path class="st0" d="M-354.3,231c-1.6,0-2.9-1.3-2.9-2.9s1.3-2.9,2.9-2.9s2.9,1.3,2.9,2.9S-352.8,231-354.3,231z M-354.3,226.3
		c-1,0-1.8,0.8-1.8,1.8s0.8,1.8,1.8,1.8s1.8-0.8,1.8-1.8S-353.3,226.3-354.3,226.3z"/>
</g>
<g>
	<circle class="st1" cx="-356.4" cy="211.4" r="2.4"/>
	<path class="st0" d="M-356.4,214.3c-1.6,0-2.9-1.3-2.9-2.9s1.3-2.9,2.9-2.9c1.6,0,2.9,1.3,2.9,2.9S-354.9,214.3-356.4,214.3z
		 M-356.4,209.5c-1,0-1.8,0.8-1.8,1.8s0.8,1.8,1.8,1.8c1,0,1.8-0.8,1.8-1.8S-355.4,209.5-356.4,209.5z"/>
</g>
<g>
	<circle class="st1" cx="-340.2" cy="223.9" r="2.4"/>
	<path class="st0" d="M-340.2,226.8c-1.6,0-2.9-1.3-2.9-2.9c0-1.6,1.3-2.9,2.9-2.9c1.6,0,2.9,1.3,2.9,2.9
		C-337.3,225.5-338.6,226.8-340.2,226.8z M-340.2,222.1c-1,0-1.8,0.8-1.8,1.8c0,1,0.8,1.8,1.8,1.8c1,0,1.8-0.8,1.8-1.8
		C-338.4,222.9-339.2,222.1-340.2,222.1z"/>
</g>
</svg>
