<?xml version="1.0" encoding="utf-8"?>
<!-- Generator: Adobe Illustrator 19.1.0, SVG Export Plug-In . SVG Version: 6.00 Build 0)  -->
<svg version="1.1" id="Layer_1" xmlns="http://www.w3.org/2000/svg" xmlns:xlink="http://www.w3.org/1999/xlink" x="0px" y="0px"
	 viewBox="-375 197 40 40" style="enable-background:new -375 197 40 40;" xml:space="preserve">
<style type="text/css">
	.st0{fill:#FFFFFF;}
</style>
<path id="XMLID_417_" class="st0" d="M-343.7,200h-21.1c-3.6,0-7.2,6.5-7.2,10.2v7v14.1c0,3.7,3.6,2.8,7.2,2.8h21.1
	c3.7,0,5.7,0.9,5.7-2.8v-14.1v-7C-338,206.5-340.1,200-343.7,200z M-341.3,207.5h1.3v0.8v5.1h-6.3v-5.8L-341.3,207.5z M-359.1,217.2
	c1.1-1.5,2.9-2.5,4.9-2.5s3.8,1,4.9,2.5c0.7,1,1.1,2.2,1.1,3.5c0,3.3-2.7,6-6,6c-3.3,0-6-2.7-6-6
	C-360.3,219.4-359.9,218.2-359.1,217.2z M-340,231.2c0,1.8-1.9,0.8-3.7,0.8h-21.1c-1.8,0-2.2,1-2.2-0.8V215h4.1
	c-0.4,0-0.7,3.4-0.7,4.6c0,5.2,4.2,9.9,9.4,9.9c5.2,0,9.4-5,9.4-10.2c0-1.2-0.3-4.3-0.7-4.3h5.5V231.2z"/>
</svg>
