<?xml version="1.0" encoding="utf-8"?>
<!-- Generator: Adobe Illustrator 19.1.0, SVG Export Plug-In . SVG Version: 6.00 Build 0)  -->
<svg version="1.1" id="Layer_1" xmlns="http://www.w3.org/2000/svg" xmlns:xlink="http://www.w3.org/1999/xlink" x="0px" y="0px"
	 viewBox="-375 197 40 40" style="enable-background:new -375 197 40 40;" xml:space="preserve">
<style type="text/css">
	.st0{fill:#CBCBCB;}
</style>
<path class="st0" d="M-347.6,205.6c-0.3,0-0.5-0.2-0.5-0.5v-1.8h-12.9v1.8c0,0.3-0.2,0.5-0.5,0.5c-0.3,0-0.5-0.2-0.5-0.5v-2.3
	c0-0.3,0.2-0.5,0.5-0.5h13.9c0.3,0,0.5,0.2,0.5,0.5v2.3C-347.1,205.3-347.4,205.6-347.6,205.6z"/>
<path class="st0" d="M-338.8,228.9h-31.6c-0.3,0-0.5-0.2-0.5-0.5v-21.2c0-0.3,0.2-0.5,0.5-0.5h31.6c0.3,0,0.5,0.2,0.5,0.5v21.2
	C-338.3,228.7-338.5,228.9-338.8,228.9z M-369.9,227.9h30.6v-20.2h-30.6V227.9z"/>
<g>
	<path class="st0" d="M-366.9,212.7c-0.3,0-0.5-0.2-0.5-0.5v-2c0-0.3,0.2-0.5,0.5-0.5h2c0.3,0,0.5,0.2,0.5,0.5
		c0,0.3-0.2,0.5-0.5,0.5h-1.5v1.5C-366.4,212.5-366.7,212.7-366.9,212.7z"/>
	<path class="st0" d="M-342.3,212.7c-0.3,0-0.5-0.2-0.5-0.5v-1.5h-1.5c-0.3,0-0.5-0.2-0.5-0.5c0-0.3,0.2-0.5,0.5-0.5h2
		c0.3,0,0.5,0.2,0.5,0.5v2C-341.8,212.5-342,212.7-342.3,212.7z"/>
	<path class="st0" d="M-342.3,226.2h-2c-0.3,0-0.5-0.2-0.5-0.5c0-0.3,0.2-0.5,0.5-0.5h1.5v-1.5c0-0.3,0.2-0.5,0.5-0.5
		c0.3,0,0.5,0.2,0.5,0.5v2C-341.8,226-342,226.2-342.3,226.2z"/>
	<path class="st0" d="M-365,226.2h-2c-0.3,0-0.5-0.2-0.5-0.5v-2c0-0.3,0.2-0.5,0.5-0.5c0.3,0,0.5,0.2,0.5,0.5v1.5h1.5
		c0.3,0,0.5,0.2,0.5,0.5C-364.5,226-364.7,226.2-365,226.2z"/>
</g>
</svg>
