<?xml version="1.0" encoding="utf-8"?>
<!-- Generator: Adobe Illustrator 19.1.0, SVG Export Plug-In . SVG Version: 6.00 Build 0)  -->
<svg version="1.1" id="Layer_1" xmlns="http://www.w3.org/2000/svg" xmlns:xlink="http://www.w3.org/1999/xlink" x="0px" y="0px"
	 viewBox="-375 197 40 40" style="enable-background:new -375 197 40 40;" xml:space="preserve">
<style type="text/css">
	.st0{fill:#FFFFFF;}
</style>
<path class="st0" d="M-364.4,234v-22.1h-7.4V234H-364.4L-364.4,234z M-368.1,208.9c2.6,0,4.2-1.7,4.2-3.8c-0.1-2.2-1.6-3.9-4.1-3.9
	c-2.6,0-4.2,1.7-4.2,3.8C-372.2,207.2-370.6,208.9-368.1,208.9L-368.1,208.9L-368.1,208.9z"/>
<path class="st0" d="M-360.3,234h7.3v-12.3c0-0.7,0-1.3,0.2-1.8c0.5-1.3,1.7-2.7,3.8-2.7c2.7,0,3.7,2,3.7,5V234h7.4v-12.7
	c0-6.8-3.6-10-8.5-10c-4,0-5.7,2.2-6.7,3.7l0,0v-3.2h-7.4C-360.2,214-360.3,234-360.3,234L-360.3,234z"/>
</svg>
