<?xml version="1.0" encoding="utf-8"?>
<!-- Generator: Adobe Illustrator 19.1.0, SVG Export Plug-In . SVG Version: 6.00 Build 0)  -->
<svg version="1.1" id="Layer_1" xmlns="http://www.w3.org/2000/svg" xmlns:xlink="http://www.w3.org/1999/xlink" x="0px" y="0px"
	 viewBox="-375 197 40 40" style="enable-background:new -375 197 40 40;" xml:space="preserve">
<style type="text/css">
	.st0{fill:#FA4132;}
</style>
<g>
	<path class="st0" d="M-355,233.3l-10.5-14.8c-1-1.8-1.5-3.7-1.5-5.8c0-6.6,5.4-12,12-12l0,0c6.6,0,12,5.4,12,12c0,2-0.5,4-1.5,5.8
		l-0.1,0.1L-355,233.3z M-363.2,217.1l8.2,11.6l8.2-11.5c0.7-1.3,1.1-2.9,1.1-4.4c0-5.1-4.2-9.3-9.3-9.3s-9.3,4.2-9.3,9.3
		C-364.3,214.3-364,215.8-363.2,217.1z M-355,217.9c-2.8,0-5-2.3-5-5s2.3-5,5-5c2.8,0,5,2.3,5,5C-350,215.6-352.2,217.9-355,217.9z
		 M-355,210.5c-1.3,0-2.4,1.1-2.4,2.4c0,1.3,1.1,2.4,2.4,2.4s2.4-1.1,2.4-2.4S-353.7,210.5-355,210.5z"/>
</g>
</svg>
