<?xml version="1.0" encoding="utf-8"?>
<!-- Generator: Adobe Illustrator 19.1.0, SVG Export Plug-In . SVG Version: 6.00 Build 0)  -->
<svg version="1.1" id="Layer_1" xmlns="http://www.w3.org/2000/svg" xmlns:xlink="http://www.w3.org/1999/xlink" x="0px" y="0px"
	 viewBox="-375 197 40 40" style="enable-background:new -375 197 40 40;" xml:space="preserve">
<style type="text/css">
	.st0{fill:#FFFFFF;}
</style>
<path id="XMLID_428_" class="st0" d="M-355.1,198.4c-9.7,0-17.5,8-17.5,17.9c0,7.3,4.3,13.6,10.5,16.4c-0.1-1.3,0-2.8,0.3-4.1
	c0.3-1.5,2.3-9.8,2.3-9.8s-0.6-1.1-0.6-2.8c0-2.7,1.5-4.6,3.4-4.6c1.6,0,2.4,1.2,2.4,2.7c0,1.6-1,4.1-1.5,6.4
	c-0.4,1.9,0.9,3.5,2.8,3.5c3.3,0,5.5-4.4,5.5-9.5c0-3.9-2.6-6.9-7.3-6.9c-5.3,0-8.6,4.1-8.6,8.6c0,1.6,0.5,2.7,1.2,3.5
	c0.3,0.4,0.4,0.5,0.3,1c-0.1,0.3-0.3,1.1-0.4,1.4c-0.1,0.5-0.5,0.6-0.9,0.5c-2.4-1-3.6-3.8-3.6-6.8c0-5.1,4.2-11.2,12.5-11.2
	c6.7,0,11.1,5,11.1,10.3c0,7-3.8,12.3-9.4,12.3c-1.9,0-3.7-1-4.3-2.2c0,0-1,4.1-1.2,4.9c-0.4,1.4-1.1,2.8-1.8,3.8
	c1.6,0.5,3.2,0.7,5,0.7c9.7,0,17.5-8,17.5-17.9C-337.6,206.4-345.5,198.4-355.1,198.4"/>
</svg>
