<?xml version="1.0" encoding="utf-8"?>
<!-- Generator: Adobe Illustrator 19.1.0, SVG Export Plug-In . SVG Version: 6.00 Build 0)  -->
<svg version="1.1" id="Layer_1" xmlns="http://www.w3.org/2000/svg" xmlns:xlink="http://www.w3.org/1999/xlink" x="0px" y="0px"
	 viewBox="0 0 40 40" style="enable-background:new 0 0 40 40;" xml:space="preserve">
<style type="text/css">
	.st0{fill:#FFFFFF;}
</style>
<path class="st0" d="M23.6,2.6C15.7,2.6,9.2,9,9.2,17c0,2.9,0.9,5.6,2.3,7.8l-8,8l-0.9,0.9l1.2,1.2L6.1,37l0.9-0.9l7.9-7.9
	c2.4,1.9,5.5,3.1,8.8,3.1C31.5,31.3,38,24.9,38,17C38,9,31.5,2.6,23.6,2.6z M23.6,26.6c-5.3,0-9.7-4.3-9.7-9.7s4.3-9.7,9.7-9.7
	c5.3,0,9.7,4.3,9.7,9.7S28.9,26.6,23.6,26.6z"/>
</svg>
