<?xml version="1.0" encoding="utf-8"?>
<!-- Generator: Adobe Illustrator 19.1.0, SVG Export Plug-In . SVG Version: 6.00 Build 0)  -->
<svg version="1.1" id="Layer_1" xmlns="http://www.w3.org/2000/svg" xmlns:xlink="http://www.w3.org/1999/xlink" x="0px" y="0px"
	 viewBox="-375 197 40 40" style="enable-background:new -375 197 40 40;" xml:space="preserve">
<style type="text/css">
	.st0{fill:#FFFFFF;}
</style>
<g>
	<path class="st0" d="M-361,220.6h18.2l5-13.1h-25.4l-0.2-0.9l-8.6-3.5l-0.9,2.2l7,2.8L-361,220.6z M-341.1,209.9l-3.2,8.4h-15
		l-2.8-7.4l-0.3-1H-341.1z"/>
	<path class="st0" d="M-358.3,221.7c-2.3,0-4.1,1.8-4.1,4.1s1.8,4.1,4.1,4.1s4.1-1.8,4.1-4.1S-356,221.7-358.3,221.7z M-358.3,227.6
		c-1,0-1.8-0.8-1.8-1.8s0.8-1.8,1.8-1.8c1,0,1.8,0.8,1.8,1.8S-357.3,227.6-358.3,227.6z"/>
	<path class="st0" d="M-344.5,221.7c-2.3,0-4.1,1.8-4.1,4.1s1.8,4.1,4.1,4.1s4.1-1.8,4.1-4.1S-342.3,221.7-344.5,221.7z
		 M-344.5,227.6c-1,0-1.8-0.8-1.8-1.8s0.8-1.8,1.8-1.8s1.8,0.8,1.8,1.8S-343.6,227.6-344.5,227.6z"/>
</g>
</svg>
