<?xml version="1.0" encoding="utf-8"?>
<!-- Generator: Adobe Illustrator 19.1.0, SVG Export Plug-In . SVG Version: 6.00 Build 0)  -->
<svg version="1.1" id="Layer_1" xmlns="http://www.w3.org/2000/svg" xmlns:xlink="http://www.w3.org/1999/xlink" x="0px" y="0px"
	 viewBox="-375 197 40 40" style="enable-background:new -375 197 40 40;" xml:space="preserve">
<style type="text/css">
	.st0{fill:#CBCBCB;}
	.st1{fill:#FFFFFF;}
</style>
<path class="st0" d="M-344.8,223h-20.4c-0.4,0-0.7-0.6-0.7-1s0.3-1,0.7-1h20.4c0.4,0,0.7,0.6,0.7,1S-344.4,223-344.8,223z"/>
<path class="st0" d="M-344.1,235.3c-0.3,0-0.6-0.2-0.7-0.4l-10.3-23.7l-10.3,23.7c-0.2,0.4-0.6,0.5-1,0.4c-0.4-0.2-0.5-0.6-0.4-1
	l11.6-26.8l11.6,26.8c0.2,0.4,0,0.8-0.4,1C-343.9,235.3-344,235.3-344.1,235.3z"/>
<path class="st0" d="M-355,225.9c-0.4,0-1-0.3-1-0.7v-5.8c0-0.4,0.6-0.7,1-0.7s1,0.3,1,0.7v5.8C-354,225.5-354.6,225.9-355,225.9z"
	/>
<path class="st0" d="M-355,204c-0.4,0-1-0.3-1-0.7v-4.4c0-0.4,0.6-0.7,1-0.7s1,0.3,1,0.7v4.4C-354,203.7-354.6,204-355,204z"/>
<g>
	<circle class="st1" cx="-355" cy="207.6" r="4.4"/>
	<path class="st0" d="M-355,212.7c-2.8,0-5.1-2.3-5.1-5.1s2.3-5.1,5.1-5.1c2.8,0,5.1,2.3,5.1,5.1S-352.2,212.7-355,212.7z M-355,204
		c-2,0-3.6,1.6-3.6,3.6c0,2,1.6,3.6,3.6,3.6c2,0,3.6-1.6,3.6-3.6C-351.4,205.6-353,204-355,204z"/>
</g>
</svg>
