<?xml version="1.0" encoding="utf-8"?>
<!-- Generator: Adobe Illustrator 19.1.0, SVG Export Plug-In . SVG Version: 6.00 Build 0)  -->
<svg version="1.1" id="Layer_1" xmlns="http://www.w3.org/2000/svg" xmlns:xlink="http://www.w3.org/1999/xlink" x="0px" y="0px"
	 viewBox="-375 197 40 40" style="enable-background:new -375 197 40 40;" xml:space="preserve">
<style type="text/css">
	.st0{fill:#FFFFFF;}
</style>
<path id="XMLID_429_" class="st0" d="M-337.7,205.8c-1.3,0.6-2.6,1-4,1.1c1.5-0.9,2.6-2.3,3.1-4c-1.4,0.8-2.9,1.4-4.5,1.7
	c-1.3-1.4-3.1-2.3-5.1-2.3c-3.9,0-7,3.2-7,7.2c0,0.6,0.1,1.1,0.2,1.6c-5.9-0.3-11-3.2-14.5-7.5c-0.6,1.1-1,2.3-1,3.6
	c0,2.5,1.6,4.7,3.4,6c-1.2,0.1-2.9-0.2-2.9-0.7v0.1c0,3.5,2.1,6.4,5.3,7.1c-0.6,0.2-1.4,0.3-2,0.3c-0.5,0-1,0-1.4-0.1
	c0.9,2.9,3.5,4.9,6.5,5c-2.4,1.9-5.5,3.1-8.8,3.1c-0.6,0-1.1,0-1.7-0.1c3.1,2,6.8,3.2,10.8,3.2c13,0,20-11,20-20.5
	c0-0.3,0-0.6,0-0.9C-339.8,208.5-338.6,207.3-337.7,205.8"/>
</svg>
