<?xml version="1.0" standalone="no"?>
<!DOCTYPE svg PUBLIC "-//W3C//DTD SVG 1.1//EN" "http://www.w3.org/Graphics/SVG/1.1/DTD/svg11.dtd" >
<svg>
<metadata>
Created by FontForge 20120702 at Wed Feb 12 21:49:18 2014

Copyright (c) 2013 Jeremy Mickel, MCKL, Inc. All rights reserved.
</metadata>
<defs>
<font id="Architype-Bold" horiz-adv-x="278" >
  <font-face 
    font-family="Architype Bold"
    font-weight="700"
    font-stretch="normal"
    units-per-em="1000"
    panose-1="0 0 0 0 0 0 0 0 0 0"
    ascent="750"
    descent="-250"
    x-height="505"
    cap-height="700"
    bbox="-60 -335 991 954"
    underline-thickness="50"
    underline-position="-50"
    unicode-range="U+0020-FB02"
  />
<missing-glyph horiz-adv-x="233" 
 />
    <glyph glyph-name="fi" unicode="fi" horiz-adv-x="634" 
d="M239 442v-442h-150v442h-80v63h80v42q0 40 11 76.5t35 64.5t61 45t89 17q49 0 84 -14v-118q-23 8 -49 8q-34 0 -57.5 -19.5t-23.5 -62.5v-39h121v-63h-121zM570 505v-505h-150v505h150zM494 568q-36 0 -61.5 25t-25.5 61q0 18 7 33.5t18.5 27t27.5 18t34 6.5t34 -6.5
t28 -18t19 -27t7 -33.5q0 -36 -25.5 -61t-62.5 -25z" />
    <glyph glyph-name="fl" unicode="fl" horiz-adv-x="634" 
d="M239 442v-442h-150v442h-80v63h80v42q0 40 11 76.5t35 64.5t61 45t89 17q49 0 84 -14v-118q-23 8 -49 8q-34 0 -57.5 -19.5t-23.5 -62.5v-39h121v-63h-121zM570 700v-700h-150v700h150z" />
    <glyph glyph-name=".notdef" horiz-adv-x="233" 
 />
    <glyph glyph-name="A" unicode="A" horiz-adv-x="692" 
d="M500 0l-46 150h-226l-46 -150h-168l241 700h182l241 -700h-178zM250 221h182l-91 294z" />
    <glyph glyph-name="B" unicode="B" horiz-adv-x="666" 
d="M371 700q57 0 102.5 -15.5t78 -42t50 -62.5t17.5 -78q0 -45 -22 -80t-62 -60q48 -24 74.5 -63t26.5 -92q0 -47 -19 -85t-54 -65t-83.5 -42t-106.5 -15h-293v700h291zM374 123q49 0 73 24.5t24 60.5q0 37 -24.5 62.5t-72.5 25.5h-126v-173h126zM367 418q42 0 64.5 22
t22.5 55t-23.5 57.5t-63.5 24.5h-119v-159h119z" />
    <glyph glyph-name="C" unicode="C" horiz-adv-x="728" 
d="M536 461q-17 60 -55.5 87t-90.5 27q-42 0 -75.5 -17.5t-56 -48.5t-34.5 -73.5t-12 -91.5q0 -50 13 -91t36.5 -69.5t55 -44t69.5 -15.5q54 0 92.5 25.5t59.5 83.5h168q-19 -71 -50.5 -118.5t-73.5 -75.5t-91.5 -39.5t-104.5 -11.5q-72 0 -135 23t-109.5 68t-73 111.5
t-26.5 153.5q0 85 25 153t71 116t110 73.5t142 25.5q55 0 106.5 -12t94.5 -41t73.5 -77t42.5 -121h-171z" />
    <glyph glyph-name="D" unicode="D" horiz-adv-x="745" 
d="M365 700q75 0 137.5 -24.5t107 -70.5t69 -110.5t24.5 -144.5t-24.5 -144.5t-69 -110.5t-107 -70.5t-137.5 -24.5h-285v700h285zM365 132q39 0 70 16.5t52.5 46t33 69t11.5 86.5q0 46 -11.5 86t-33 69.5t-52.5 46t-70 16.5h-112v-436h112z" />
    <glyph glyph-name="E" unicode="E" horiz-adv-x="616" 
d="M572 568h-319v-179h266v-72h-266v-185h326v-132h-499v700h492v-132z" />
    <glyph glyph-name="F" unicode="F" horiz-adv-x="592" 
d="M572 568h-319v-184h261v-72h-261v-312h-173v700h492v-132z" />
    <glyph glyph-name="G" unicode="G" horiz-adv-x="752" 
d="M635 0l-3 106q-42 -61 -105 -89.5t-132 -28.5q-79 0 -144 25.5t-111.5 73t-72 114t-25.5 149.5q0 82 25 149t71 114.5t110 73t142 25.5q54 0 105 -12t93 -41t72 -77t42 -121h-171q-17 60 -53.5 87t-86.5 27q-42 0 -75.5 -17t-56.5 -47.5t-35 -71.5t-12 -89t12.5 -89
t35.5 -71.5t57 -47.5t78 -17q25 0 50 7.5t47 24t38 42.5t23 62h-169v70h316v-331h-65z" />
    <glyph glyph-name="H" unicode="H" horiz-adv-x="753" 
d="M253 700v-311h247v311h173v-700h-173v317h-247v-317h-173v700h173z" />
    <glyph glyph-name="I" unicode="I" horiz-adv-x="412" 
d="M23 51h97v598h-97v51h366v-51h-96v-598h96v-51h-366v51z" />
    <glyph glyph-name="J" unicode="J" horiz-adv-x="632" 
d="M287 -12q-48 0 -94.5 13t-85 42t-64.5 75.5t-33 114.5h168q3 -32 13 -53t25 -33.5t33.5 -17.5t37.5 -5q50 0 78.5 36.5t28.5 88.5v451h173v-440q0 -62 -20.5 -112.5t-57 -86t-88 -54.5t-114.5 -19z" />
    <glyph glyph-name="K" unicode="K" horiz-adv-x="708" 
d="M80 700h173v-311h52l210 311h183l-234 -333l236 -367h-193l-198 319h-56v-319h-173v700z" />
    <glyph glyph-name="L" unicode="L" horiz-adv-x="602" 
d="M80 700h173v-568h324v-132h-497v700z" />
    <glyph glyph-name="M" unicode="M" horiz-adv-x="903" 
d="M273 347l-42 88l2 -104l3 -331h-156v700h179l159 -329l36 -77l35 77l159 329h175v-700h-158l3 336l1 99l-41 -89l-113 -226h-129z" />
    <glyph glyph-name="N" unicode="N" horiz-adv-x="773" 
d="M273 405l-39 68l1 -85l4 -388h-159v700h198l221 -371l40 -70l-1 81l-4 360h159v-700h-179z" />
    <glyph glyph-name="O" unicode="O" horiz-adv-x="780" 
d="M390 -12q-78 0 -142 25.5t-110 73t-71 114t-25 149.5q0 82 25 149t71 114.5t110 73t142 25.5t142 -25.5t109.5 -73t71 -114.5t25.5 -149q0 -83 -25.5 -149.5t-71 -114t-109.5 -73t-142 -25.5zM390 575q-42 0 -75.5 -17.5t-56 -48t-34.5 -71.5t-12 -88t12 -88t34.5 -71.5
t56 -48t75.5 -17.5t74.5 17.5t55.5 48t35 71.5t12 88t-12 88t-35 71.5t-55.5 48t-74.5 17.5z" />
    <glyph glyph-name="P" unicode="P" horiz-adv-x="693" 
d="M380 700q64 0 116.5 -17.5t89.5 -50.5t57 -79t20 -103t-21 -103t-59 -79t-91 -50.5t-117 -17.5h-122v-200h-173v700h300zM375 332q56 0 86.5 33.5t30.5 84.5t-30.5 84.5t-86.5 33.5h-122v-236h122z" />
    <glyph glyph-name="Q" unicode="Q" horiz-adv-x="780" 
d="M395 -12q-79 0 -144 25.5t-111.5 73t-72 114t-25.5 149.5q0 82 25.5 149t72 114.5t111.5 73t144 25.5q76 0 139.5 -25.5t108.5 -73t70 -114.5t25 -149q0 -110 -43.5 -191t-119.5 -125l77 -122h-80l-59 94q-27 -8 -56.5 -13t-61.5 -5zM371 233h80l44 -71q35 30 53.5 79
t18.5 109q0 47 -11.5 88t-34 71.5t-54.5 48t-72 17.5q-44 0 -78 -17.5t-57 -48t-35.5 -71.5t-12.5 -88t12.5 -88t35.5 -71.5t57 -48t78 -17.5q11 0 21 1t19 4z" />
    <glyph glyph-name="R" unicode="R" horiz-adv-x="679" 
d="M378 700q62 0 112.5 -16t86 -45.5t55 -70.5t19.5 -91q0 -69 -38 -117.5t-104 -72.5l157 -287h-188l-142 267h-83v-267h-173v700h298zM373 337q51 0 79 30.5t28 75.5q0 54 -28 89.5t-79 35.5h-120v-231h120z" />
    <glyph glyph-name="S" unicode="S" horiz-adv-x="627" 
d="M321 -12q-56 0 -106.5 12.5t-90.5 39t-66.5 68t-33.5 100.5h168q11 -46 41 -68.5t87 -22.5q24 0 44.5 4t35.5 14t24 26t9 39q0 24 -15 39.5t-39.5 25.5t-57 17t-66.5 15q-39 9 -78 22t-69.5 36t-50 58.5t-19.5 90.5q0 33 12 69.5t42 67t80.5 51t127.5 20.5q51 0 97 -12
t82 -37.5t60 -65.5t32 -96h-168q-26 82 -112 82q-40 0 -68 -16t-28 -50q0 -24 14.5 -39t38.5 -24.5t55 -15.5t65 -13q40 -8 81 -20.5t73 -36.5t52.5 -62.5t20.5 -98.5q0 -49 -19 -89t-54 -69t-86 -45t-115 -16z" />
    <glyph glyph-name="T" unicode="T" horiz-adv-x="601" 
d="M387 567v-567h-173v567h-204v133h581v-133h-204z" />
    <glyph glyph-name="U" unicode="U" horiz-adv-x="713" 
d="M238 236q0 -47 32 -79t92 -32q54 0 83.5 32t29.5 79v464h173v-440q0 -62 -21 -112.5t-58.5 -86t-90 -54.5t-116.5 -19q-67 0 -121.5 19t-93.5 54.5t-60.5 86t-21.5 112.5v440h173v-464v0z" />
    <glyph glyph-name="V" unicode="V" horiz-adv-x="691" 
d="M435 0h-178l-243 700h178l159 -511l159 511h168z" />
    <glyph glyph-name="W" unicode="W" horiz-adv-x="976" 
d="M10 700h171l92 -413l17 -87l18 87l99 412h167l99 -412l18 -87l17 87l92 413h166l-191 -700h-180l-91 385l-16 78l-16 -78l-91 -385h-180z" />
    <glyph glyph-name="X" unicode="X" horiz-adv-x="641" 
d="M410 353l221 -353h-183l-134 229l-131 -229h-173l218 350l-218 350h183l132 -225l128 225h173z" />
    <glyph glyph-name="Y" unicode="Y" horiz-adv-x="647" 
d="M12 700h182l135 -296l135 296h171l-225 -445v-255h-173v260z" />
    <glyph glyph-name="Z" unicode="Z" horiz-adv-x="575" 
d="M20 104l332 466l-76 -2h-240v132h509v-103l-333 -467l98 2h228v-132h-518v104z" />
    <glyph glyph-name="Aacute" unicode="&#xc1;" horiz-adv-x="692" 
d="M500 0l-46 150h-226l-46 -150h-168l241 700h182l241 -700h-178zM250 221h182l-91 294zM398 770h-127v5l75 120h174v-6z" />
    <glyph glyph-name="acute" unicode="&#xb4;" horiz-adv-x="550" 
d="M317 575h-127v5l75 120h174v-6z" />
    <glyph glyph-name="Abreve" unicode="&#x102;" horiz-adv-x="692" 
d="M500 0l-46 150h-226l-46 -150h-168l241 700h182l241 -700h-178zM250 221h182l-91 294zM346 848q30 0 47.5 12t19.5 35h98q-4 -68 -46.5 -97t-118.5 -29t-118.5 29t-46.5 97h98q2 -23 19.5 -35t47.5 -12z" />
    <glyph glyph-name="breve" unicode="&#x2d8;" horiz-adv-x="550" 
d="M275 653q30 0 47.5 12t19.5 35h98q-4 -68 -46.5 -97t-118.5 -29t-118.5 29t-46.5 97h98q2 -23 19.5 -35t47.5 -12z" />
    <glyph glyph-name="Acircumflex" unicode="&#xc2;" horiz-adv-x="692" 
d="M500 0l-46 150h-226l-46 -150h-168l241 700h182l241 -700h-178zM250 221h182l-91 294zM290 771h-124v4l113 120h135l115 -120v-4h-131l-55 47z" />
    <glyph glyph-name="circumflex" unicode="&#x2c6;" horiz-adv-x="550" 
d="M221 576h-124v4l113 120h135l115 -120v-4h-131l-55 47z" />
    <glyph glyph-name="Adieresis" unicode="&#xc4;" horiz-adv-x="692" 
d="M500 0l-46 150h-226l-46 -150h-168l241 700h182l241 -700h-178zM250 221h182l-91 294zM452 769q-34 0 -57.5 23t-23.5 57q0 33 23.5 56t57.5 23q35 0 58.5 -23t23.5 -56q0 -34 -23.5 -57t-58.5 -23zM242 769q-34 0 -57.5 23t-23.5 57q0 33 23.5 56t57.5 23q35 0 58.5 -23
t23.5 -56q0 -34 -23.5 -57t-58.5 -23z" />
    <glyph glyph-name="dieresis" unicode="&#xa8;" horiz-adv-x="550" 
d="M386 574q-34 0 -57.5 23t-23.5 57q0 33 23.5 56t57.5 23q35 0 58.5 -23t23.5 -56q0 -34 -23.5 -57t-58.5 -23zM176 574q-34 0 -57.5 23t-23.5 57q0 33 23.5 56t57.5 23q35 0 58.5 -23t23.5 -56q0 -34 -23.5 -57t-58.5 -23z" />
    <glyph glyph-name="AE" unicode="&#xc6;" horiz-adv-x="995" 
d="M411 700h540v-132h-319v-179h266v-72h-266v-185h326v-132h-499v138h-212l-75 -138h-168zM459 209v317l-173 -317h173z" />
    <glyph glyph-name="Agrave" unicode="&#xc0;" horiz-adv-x="692" 
d="M500 0l-46 150h-226l-46 -150h-168l241 700h182l241 -700h-178zM250 221h182l-91 294zM170 889v6h179l72 -120v-5h-129z" />
    <glyph glyph-name="grave" unicode="`" horiz-adv-x="550" 
d="M104 694v6h179l72 -120v-5h-129z" />
    <glyph glyph-name="Amacron" unicode="&#x100;" horiz-adv-x="692" 
d="M500 0l-46 150h-226l-46 -150h-168l241 700h182l241 -700h-178zM250 221h182l-91 294zM484 784h-275v89h275v-89z" />
    <glyph glyph-name="macron" unicode="&#xaf;" horiz-adv-x="550" 
d="M406 589h-275v89h275v-89z" />
    <glyph glyph-name="Aring" unicode="&#xc5;" horiz-adv-x="692" 
d="M500 0l-46 150h-226l-46 -150h-168l241 700h182l241 -700h-178zM250 221h182l-91 294zM345 803q18 0 31.5 13t13.5 33t-13.5 33t-31.5 13t-31.5 -13t-13.5 -33t13.5 -33t31.5 -13zM345 954q21 0 40 -7.5t34 -21.5t24 -33t9 -43t-9 -43t-24 -33t-34 -21.5t-40 -7.5
t-40 7.5t-34 21.5t-24 33t-9 43t9 43t24 33t34 21.5t40 7.5z" />
    <glyph glyph-name="ring" unicode="&#x2da;" horiz-adv-x="550" 
d="M276 608q18 0 31.5 13t13.5 33t-13.5 33t-31.5 13t-31.5 -13t-13.5 -33t13.5 -33t31.5 -13zM276 759q21 0 40 -7.5t34 -21.5t24 -33t9 -43t-9 -43t-24 -33t-34 -21.5t-40 -7.5t-40 7.5t-34 21.5t-24 33t-9 43t9 43t24 33t34 21.5t40 7.5z" />
    <glyph glyph-name="Atilde" unicode="&#xc3;" horiz-adv-x="692" 
d="M500 0l-46 150h-226l-46 -150h-168l241 700h182l241 -700h-178zM250 221h182l-91 294zM520 895q3 -35 -5.5 -59t-23 -38t-33 -20t-36.5 -6q-21 0 -39 5t-33.5 11.5t-29.5 11.5t-27 5q-17 0 -21.5 -10.5t-4.5 -23.5h-95q-3 36 5 60t22.5 38.5t33 20.5t36.5 6q21 0 39 -5.5
t34 -12t29.5 -12t27.5 -5.5q16 0 20.5 10t4.5 24h96z" />
    <glyph glyph-name="tilde" unicode="&#x2dc;" horiz-adv-x="550" 
d="M455 700q3 -35 -5.5 -59t-23 -38t-33 -20t-36.5 -6q-21 0 -39 5t-33.5 11.5t-29.5 11.5t-27 5q-17 0 -21.5 -10.5t-4.5 -23.5h-95q-3 36 5 60t22.5 38.5t33 20.5t36.5 6q21 0 39 -5.5t34 -12t29.5 -12t27.5 -5.5q16 0 20.5 10t4.5 24h96z" />
    <glyph glyph-name="Cacute" unicode="&#x106;" horiz-adv-x="728" 
d="M536 461q-17 60 -55.5 87t-90.5 27q-42 0 -75.5 -17.5t-56 -48.5t-34.5 -73.5t-12 -91.5q0 -50 13 -91t36.5 -69.5t55 -44t69.5 -15.5q54 0 92.5 25.5t59.5 83.5h168q-19 -71 -50.5 -118.5t-73.5 -75.5t-91.5 -39.5t-104.5 -11.5q-72 0 -135 23t-109.5 68t-73 111.5
t-26.5 153.5q0 85 25 153t71 116t110 73.5t142 25.5q55 0 106.5 -12t94.5 -41t73.5 -77t42.5 -121h-171zM444 770h-127v5l75 120h174v-6z" />
    <glyph glyph-name="Ccaron" unicode="&#x10c;" horiz-adv-x="728" 
d="M536 461q-17 60 -55.5 87t-90.5 27q-42 0 -75.5 -17.5t-56 -48.5t-34.5 -73.5t-12 -91.5q0 -50 13 -91t36.5 -69.5t55 -44t69.5 -15.5q54 0 92.5 25.5t59.5 83.5h168q-19 -71 -50.5 -118.5t-73.5 -75.5t-91.5 -39.5t-104.5 -11.5q-72 0 -135 23t-109.5 68t-73 111.5
t-26.5 153.5q0 85 25 153t71 116t110 73.5t142 25.5q55 0 106.5 -12t94.5 -41t73.5 -77t42.5 -121h-171zM451 895h123v-2l-114 -122h-134l-114 122v2h130l55 -46z" />
    <glyph glyph-name="caron" unicode="&#x2c7;" horiz-adv-x="550" 
d="M333 700h123v-2l-114 -122h-134l-114 122v2h130l55 -46z" />
    <glyph glyph-name="Ccedilla" unicode="&#xc7;" horiz-adv-x="728" 
d="M380 -252q-25 0 -47.5 6.5t-40 20t-27.5 34.5t-10 49h87q0 -15 10.5 -23.5t26.5 -8.5q17 0 28 9t11 26q0 16 -11 27t-31 11q-10 0 -22 -3l-24 15v81q-41 5 -79 19q-63 23 -109.5 68t-73 111.5t-26.5 153.5q0 85 25 153t71 116t110 73.5t142 25.5q55 0 106.5 -12t94.5 -41
t73.5 -77t42.5 -121h-171q-17 60 -55.5 87t-90.5 27q-42 0 -75.5 -17.5t-56 -48.5t-34.5 -73.5t-12 -91.5q0 -50 13 -91t36.5 -69.5t55 -44t69.5 -15.5q54 0 92.5 25.5t59.5 83.5h168q-19 -71 -50.5 -118.5t-73.5 -75.5t-92 -39q-33 -8 -69 -11v-29q38 -2 66 -29.5t28 -72.5
q0 -28 -11 -49t-29.5 -34.5t-43 -20t-51.5 -6.5z" />
    <glyph glyph-name="cedilla" unicode="&#xb8;" horiz-adv-x="550" 
d="M295 -252q-25 0 -47.5 6.5t-40 20t-27.5 34.5t-10 49h87q0 -15 10.5 -23.5t26.5 -8.5q17 0 28 9t11 26q0 16 -11 27t-31 11q-10 0 -22 -3l-24 15v89h91v-40q38 -2 66 -29.5t28 -72.5q0 -28 -11 -49t-29.5 -34.5t-43 -20t-51.5 -6.5z" />
    <glyph glyph-name="Ccircumflex" unicode="&#x108;" horiz-adv-x="728" 
d="M536 461q-17 60 -55.5 87t-90.5 27q-42 0 -75.5 -17.5t-56 -48.5t-34.5 -73.5t-12 -91.5q0 -50 13 -91t36.5 -69.5t55 -44t69.5 -15.5q54 0 92.5 25.5t59.5 83.5h168q-19 -71 -50.5 -118.5t-73.5 -75.5t-91.5 -39.5t-104.5 -11.5q-72 0 -135 23t-109.5 68t-73 111.5
t-26.5 153.5q0 85 25 153t71 116t110 73.5t142 25.5q55 0 106.5 -12t94.5 -41t73.5 -77t42.5 -121h-171zM336 771h-124v4l113 120h135l115 -120v-4h-131l-55 47z" />
    <glyph glyph-name="Cdotaccent" unicode="&#x10a;" horiz-adv-x="728" 
d="M536 461q-17 60 -55.5 87t-90.5 27q-42 0 -75.5 -17.5t-56 -48.5t-34.5 -73.5t-12 -91.5q0 -50 13 -91t36.5 -69.5t55 -44t69.5 -15.5q54 0 92.5 25.5t59.5 83.5h168q-19 -71 -50.5 -118.5t-73.5 -75.5t-91.5 -39.5t-104.5 -11.5q-72 0 -135 23t-109.5 68t-73 111.5
t-26.5 153.5q0 85 25 153t71 116t110 73.5t142 25.5q55 0 106.5 -12t94.5 -41t73.5 -77t42.5 -121h-171zM393 769q-34 0 -57.5 23t-23.5 57q0 33 23.5 56t57.5 23q35 0 58.5 -23t23.5 -56q0 -34 -23.5 -57t-58.5 -23z" />
    <glyph glyph-name="dotaccent" unicode="&#x2d9;" horiz-adv-x="550" 
d="M276 574q-34 0 -57.5 23t-23.5 57q0 33 23.5 56t57.5 23q35 0 58.5 -23t23.5 -56q0 -34 -23.5 -57t-58.5 -23z" />
    <glyph glyph-name="Dcaron" unicode="&#x10e;" horiz-adv-x="745" 
d="M365 700q75 0 137.5 -24.5t107 -70.5t69 -110.5t24.5 -144.5t-24.5 -144.5t-69 -110.5t-107 -70.5t-137.5 -24.5h-285v700h285zM365 132q39 0 70 16.5t52.5 46t33 69t11.5 86.5q0 46 -11.5 86t-33 69.5t-52.5 46t-70 16.5h-112v-436h112zM450 895h123v-2l-114 -122h-134
l-114 122v2h130l55 -46z" />
    <glyph glyph-name="Eacute" unicode="&#xc9;" horiz-adv-x="616" 
d="M572 568h-319v-179h266v-72h-266v-185h326v-132h-499v700h492v-132zM378 770h-127v5l75 120h174v-6z" />
    <glyph glyph-name="Ebreve" unicode="&#x114;" horiz-adv-x="616" 
d="M572 568h-319v-179h266v-72h-266v-185h326v-132h-499v700h492v-132zM326 848q30 0 47.5 12t19.5 35h98q-4 -68 -46.5 -97t-118.5 -29t-118.5 29t-46.5 97h98q2 -23 19.5 -35t47.5 -12z" />
    <glyph glyph-name="Ecaron" unicode="&#x11a;" horiz-adv-x="616" 
d="M572 568h-319v-179h266v-72h-266v-185h326v-132h-499v700h492v-132zM385 895h123v-2l-114 -122h-134l-114 122v2h130l55 -46z" />
    <glyph glyph-name="Ecircumflex" unicode="&#xca;" horiz-adv-x="616" 
d="M572 568h-319v-179h266v-72h-266v-185h326v-132h-499v700h492v-132zM270 771h-124v4l113 120h135l115 -120v-4h-131l-55 47z" />
    <glyph glyph-name="Edieresis" unicode="&#xcb;" horiz-adv-x="616" 
d="M572 568h-319v-179h266v-72h-266v-185h326v-132h-499v700h492v-132zM432 769q-34 0 -57.5 23t-23.5 57q0 33 23.5 56t57.5 23q35 0 58.5 -23t23.5 -56q0 -34 -23.5 -57t-58.5 -23zM222 769q-34 0 -57.5 23t-23.5 57q0 33 23.5 56t57.5 23q35 0 58.5 -23t23.5 -56
q0 -34 -23.5 -57t-58.5 -23z" />
    <glyph glyph-name="Edotaccent" unicode="&#x116;" horiz-adv-x="616" 
d="M572 568h-319v-179h266v-72h-266v-185h326v-132h-499v700h492v-132zM327 769q-34 0 -57.5 23t-23.5 57q0 33 23.5 56t57.5 23q35 0 58.5 -23t23.5 -56q0 -34 -23.5 -57t-58.5 -23z" />
    <glyph glyph-name="Egrave" unicode="&#xc8;" horiz-adv-x="616" 
d="M572 568h-319v-179h266v-72h-266v-185h326v-132h-499v700h492v-132zM150 889v6h179l72 -120v-5h-129z" />
    <glyph glyph-name="Emacron" unicode="&#x112;" horiz-adv-x="616" 
d="M572 568h-319v-179h266v-72h-266v-185h326v-132h-499v700h492v-132zM464 784h-275v89h275v-89z" />
    <glyph glyph-name="Gbreve" unicode="&#x11e;" horiz-adv-x="752" 
d="M635 0l-3 106q-42 -61 -105 -89.5t-132 -28.5q-79 0 -144 25.5t-111.5 73t-72 114t-25.5 149.5q0 82 25 149t71 114.5t110 73t142 25.5q54 0 105 -12t93 -41t72 -77t42 -121h-171q-17 60 -53.5 87t-86.5 27q-42 0 -75.5 -17t-56.5 -47.5t-35 -71.5t-12 -89t12.5 -89
t35.5 -71.5t57 -47.5t78 -17q25 0 50 7.5t47 24t38 42.5t23 62h-169v70h316v-331h-65zM392 848q30 0 47.5 12t19.5 35h98q-4 -68 -46.5 -97t-118.5 -29t-118.5 29t-46.5 97h98q2 -23 19.5 -35t47.5 -12z" />
    <glyph glyph-name="Gcircumflex" unicode="&#x11c;" horiz-adv-x="752" 
d="M635 0l-3 106q-42 -61 -105 -89.5t-132 -28.5q-79 0 -144 25.5t-111.5 73t-72 114t-25.5 149.5q0 82 25 149t71 114.5t110 73t142 25.5q54 0 105 -12t93 -41t72 -77t42 -121h-171q-17 60 -53.5 87t-86.5 27q-42 0 -75.5 -17t-56.5 -47.5t-35 -71.5t-12 -89t12.5 -89
t35.5 -71.5t57 -47.5t78 -17q25 0 50 7.5t47 24t38 42.5t23 62h-169v70h316v-331h-65zM336 771h-124v4l113 120h135l115 -120v-4h-131l-55 47z" />
    <glyph glyph-name="Gcommaaccent" unicode="&#x122;" horiz-adv-x="752" 
d="M635 0l-3 106q-42 -61 -105 -89.5t-132 -28.5q-79 0 -144 25.5t-111.5 73t-72 114t-25.5 149.5q0 82 25 149t71 114.5t110 73t142 25.5q54 0 105 -12t93 -41t72 -77t42 -121h-171q-17 60 -53.5 87t-86.5 27q-42 0 -75.5 -17t-56.5 -47.5t-35 -71.5t-12 -89t12.5 -89
t35.5 -71.5t57 -47.5t78 -17q25 0 50 7.5t47 24t38 42.5t23 62h-169v70h316v-331h-65zM324 -269q29 7 48 23t24 44q-32 2 -52 22.5t-20 49.5q0 32 21.5 53t56.5 21t58 -23.5t23 -69.5q0 -35 -10 -68t-30 -58.5t-50 -41.5t-69 -18v66z" />
    <glyph glyph-name="commaaccent" unicode="&#xf6c3;" horiz-adv-x="550" 
d="M199 -269q29 7 48 23t24 44q-32 2 -52 22.5t-20 49.5q0 32 21.5 53t56.5 21t58 -23.5t23 -69.5q0 -35 -10 -68t-30 -58.5t-50 -41.5t-69 -18v66z" />
    <glyph glyph-name="Gdotaccent" unicode="&#x120;" horiz-adv-x="752" 
d="M635 0l-3 106q-42 -61 -105 -89.5t-132 -28.5q-79 0 -144 25.5t-111.5 73t-72 114t-25.5 149.5q0 82 25 149t71 114.5t110 73t142 25.5q54 0 105 -12t93 -41t72 -77t42 -121h-171q-17 60 -53.5 87t-86.5 27q-42 0 -75.5 -17t-56.5 -47.5t-35 -71.5t-12 -89t12.5 -89
t35.5 -71.5t57 -47.5t78 -17q25 0 50 7.5t47 24t38 42.5t23 62h-169v70h316v-331h-65zM393 769q-34 0 -57.5 23t-23.5 57q0 33 23.5 56t57.5 23q35 0 58.5 -23t23.5 -56q0 -34 -23.5 -57t-58.5 -23z" />
    <glyph glyph-name="Hcircumflex" unicode="&#x124;" horiz-adv-x="753" 
d="M253 700v-311h247v311h173v-700h-173v317h-247v-317h-173v700h173zM320 771h-124v4l113 120h135l115 -120v-4h-131l-55 47z" />
    <glyph glyph-name="Iacute" unicode="&#xcd;" horiz-adv-x="412" 
d="M23 51h97v598h-97v51h366v-51h-96v-598h96v-51h-366v51zM259 770h-127v5l75 120h174v-6z" />
    <glyph glyph-name="Ibreve" unicode="&#x12c;" horiz-adv-x="412" 
d="M23 51h97v598h-97v51h366v-51h-96v-598h96v-51h-366v51zM207 848q30 0 47.5 12t19.5 35h98q-4 -68 -46.5 -97t-118.5 -29t-118.5 29t-46.5 97h98q2 -23 19.5 -35t47.5 -12z" />
    <glyph glyph-name="Icircumflex" unicode="&#xce;" horiz-adv-x="412" 
d="M23 51h97v598h-97v51h366v-51h-96v-598h96v-51h-366v51zM151 771h-124v4l113 120h135l115 -120v-4h-131l-55 47z" />
    <glyph glyph-name="Idieresis" unicode="&#xcf;" horiz-adv-x="412" 
d="M23 51h97v598h-97v51h366v-51h-96v-598h96v-51h-366v51zM313 769q-34 0 -57.5 23t-23.5 57q0 33 23.5 56t57.5 23q35 0 58.5 -23t23.5 -56q0 -34 -23.5 -57t-58.5 -23zM103 769q-34 0 -57.5 23t-23.5 57q0 33 23.5 56t57.5 23q35 0 58.5 -23t23.5 -56q0 -34 -23.5 -57
t-58.5 -23z" />
    <glyph glyph-name="Idotaccent" unicode="&#x130;" horiz-adv-x="412" 
d="M23 51h97v598h-97v51h366v-51h-96v-598h96v-51h-366v51zM208 769q-34 0 -57.5 23t-23.5 57q0 33 23.5 56t57.5 23q35 0 58.5 -23t23.5 -56q0 -34 -23.5 -57t-58.5 -23z" />
    <glyph glyph-name="Igrave" unicode="&#xcc;" horiz-adv-x="412" 
d="M23 51h97v598h-97v51h366v-51h-96v-598h96v-51h-366v51zM31 889v6h179l72 -120v-5h-129z" />
    <glyph glyph-name="Imacron" unicode="&#x12a;" horiz-adv-x="412" 
d="M23 51h97v598h-97v51h366v-51h-96v-598h96v-51h-366v51zM345 784h-275v89h275v-89z" />
    <glyph glyph-name="Itilde" unicode="&#x128;" horiz-adv-x="412" 
d="M23 51h97v598h-97v51h366v-51h-96v-598h96v-51h-366v51zM381 895q3 -35 -5.5 -59t-23 -38t-33 -20t-36.5 -6q-21 0 -39 5t-33.5 11.5t-29.5 11.5t-27 5q-17 0 -21.5 -10.5t-4.5 -23.5h-95q-3 36 5 60t22.5 38.5t33 20.5t36.5 6q21 0 39 -5.5t34 -12t29.5 -12t27.5 -5.5
q16 0 20.5 10t4.5 24h96z" />
    <glyph glyph-name="Jcircumflex" unicode="&#x134;" horiz-adv-x="637" 
d="M287 -12q-48 0 -94.5 13t-85 42t-64.5 75.5t-33 114.5h168q3 -32 13 -53t25 -33.5t33.5 -17.5t37.5 -5q50 0 78.5 36.5t28.5 88.5v451h173v-440q0 -62 -20.5 -112.5t-57 -86t-88 -54.5t-114.5 -19zM421 771h-124v4l113 120h135l115 -120v-4h-131l-55 47z" />
    <glyph glyph-name="Kcommaaccent" unicode="&#x136;" horiz-adv-x="708" 
d="M80 700h173v-311h52l210 311h183l-234 -333l236 -367h-193l-198 319h-56v-319h-173v700zM288 -269q29 7 48 23t24 44q-32 2 -52 22.5t-20 49.5q0 32 21.5 53t56.5 21t58 -23.5t23 -69.5q0 -35 -10 -68t-30 -58.5t-50 -41.5t-69 -18v66z" />
    <glyph glyph-name="Lacute" unicode="&#x139;" horiz-adv-x="602" 
d="M80 700h173v-568h324v-132h-497v700zM215 770h-127v5l75 120h174v-6z" />
    <glyph glyph-name="Lcommaaccent" unicode="&#x13b;" horiz-adv-x="602" 
d="M80 700h173v-568h324v-132h-497v700zM255 -269q29 7 48 23t24 44q-32 2 -52 22.5t-20 49.5q0 32 21.5 53t56.5 21t58 -23.5t23 -69.5q0 -35 -10 -68t-30 -58.5t-50 -41.5t-69 -18v66z" />
    <glyph glyph-name="Nacute" unicode="&#x143;" horiz-adv-x="773" 
d="M273 405l-39 68l1 -85l4 -388h-159v700h198l221 -371l40 -70l-1 81l-4 360h159v-700h-179zM438 770h-127v5l75 120h174v-6z" />
    <glyph glyph-name="Ncaron" unicode="&#x147;" horiz-adv-x="773" 
d="M273 405l-39 68l1 -85l4 -388h-159v700h198l221 -371l40 -70l-1 81l-4 360h159v-700h-179zM445 895h123v-2l-114 -122h-134l-114 122v2h130l55 -46z" />
    <glyph glyph-name="Ncommaaccent" unicode="&#x145;" horiz-adv-x="773" 
d="M273 405l-39 68l1 -85l4 -388h-159v700h198l221 -371l40 -70l-1 81l-4 360h159v-700h-179zM313 -269q29 7 48 23t24 44q-32 2 -52 22.5t-20 49.5q0 32 21.5 53t56.5 21t58 -23.5t23 -69.5q0 -35 -10 -68t-30 -58.5t-50 -41.5t-69 -18v66z" />
    <glyph glyph-name="Ntilde" unicode="&#xd1;" horiz-adv-x="773" 
d="M273 405l-39 68l1 -85l4 -388h-159v700h198l221 -371l40 -70l-1 81l-4 360h159v-700h-179zM560 895q3 -35 -5.5 -59t-23 -38t-33 -20t-36.5 -6q-21 0 -39 5t-33.5 11.5t-29.5 11.5t-27 5q-17 0 -21.5 -10.5t-4.5 -23.5h-95q-3 36 5 60t22.5 38.5t33 20.5t36.5 6
q21 0 39 -5.5t34 -12t29.5 -12t27.5 -5.5q16 0 20.5 10t4.5 24h96z" />
    <glyph glyph-name="Oacute" unicode="&#xd3;" horiz-adv-x="780" 
d="M390 -12q-78 0 -142 25.5t-110 73t-71 114t-25 149.5q0 82 25 149t71 114.5t110 73t142 25.5t142 -25.5t109.5 -73t71 -114.5t25.5 -149q0 -83 -25.5 -149.5t-71 -114t-109.5 -73t-142 -25.5zM390 575q-42 0 -75.5 -17.5t-56 -48t-34.5 -71.5t-12 -88t12 -88t34.5 -71.5
t56 -48t75.5 -17.5t74.5 17.5t55.5 48t35 71.5t12 88t-12 88t-35 71.5t-55.5 48t-74.5 17.5zM442 770h-127v5l75 120h174v-6z" />
    <glyph glyph-name="Obreve" unicode="&#x14e;" horiz-adv-x="780" 
d="M390 -12q-78 0 -142 25.5t-110 73t-71 114t-25 149.5q0 82 25 149t71 114.5t110 73t142 25.5t142 -25.5t109.5 -73t71 -114.5t25.5 -149q0 -83 -25.5 -149.5t-71 -114t-109.5 -73t-142 -25.5zM390 575q-42 0 -75.5 -17.5t-56 -48t-34.5 -71.5t-12 -88t12 -88t34.5 -71.5
t56 -48t75.5 -17.5t74.5 17.5t55.5 48t35 71.5t12 88t-12 88t-35 71.5t-55.5 48t-74.5 17.5zM390 848q30 0 47.5 12t19.5 35h98q-4 -68 -46.5 -97t-118.5 -29t-118.5 29t-46.5 97h98q2 -23 19.5 -35t47.5 -12z" />
    <glyph glyph-name="Ocircumflex" unicode="&#xd4;" horiz-adv-x="780" 
d="M390 -12q-78 0 -142 25.5t-110 73t-71 114t-25 149.5q0 82 25 149t71 114.5t110 73t142 25.5t142 -25.5t109.5 -73t71 -114.5t25.5 -149q0 -83 -25.5 -149.5t-71 -114t-109.5 -73t-142 -25.5zM390 575q-42 0 -75.5 -17.5t-56 -48t-34.5 -71.5t-12 -88t12 -88t34.5 -71.5
t56 -48t75.5 -17.5t74.5 17.5t55.5 48t35 71.5t12 88t-12 88t-35 71.5t-55.5 48t-74.5 17.5zM334 771h-124v4l113 120h135l115 -120v-4h-131l-55 47z" />
    <glyph glyph-name="Odieresis" unicode="&#xd6;" horiz-adv-x="780" 
d="M390 -12q-78 0 -142 25.5t-110 73t-71 114t-25 149.5q0 82 25 149t71 114.5t110 73t142 25.5t142 -25.5t109.5 -73t71 -114.5t25.5 -149q0 -83 -25.5 -149.5t-71 -114t-109.5 -73t-142 -25.5zM390 575q-42 0 -75.5 -17.5t-56 -48t-34.5 -71.5t-12 -88t12 -88t34.5 -71.5
t56 -48t75.5 -17.5t74.5 17.5t55.5 48t35 71.5t12 88t-12 88t-35 71.5t-55.5 48t-74.5 17.5zM496 769q-34 0 -57.5 23t-23.5 57q0 33 23.5 56t57.5 23q35 0 58.5 -23t23.5 -56q0 -34 -23.5 -57t-58.5 -23zM286 769q-34 0 -57.5 23t-23.5 57q0 33 23.5 56t57.5 23
q35 0 58.5 -23t23.5 -56q0 -34 -23.5 -57t-58.5 -23z" />
    <glyph glyph-name="OE" unicode="&#x152;" horiz-adv-x="1028" 
d="M991 0h-611q-75 0 -137.5 24.5t-107 70.5t-69 110.5t-24.5 144.5t24.5 144.5t69 110.5t107 70.5t137.5 24.5h604v-132h-319v-179h266v-72h-266v-185h326v-132zM380 568q-39 0 -70 -16.5t-52.5 -46t-33 -69.5t-11.5 -86q0 -47 11.5 -86.5t33 -69t52.5 -46t70 -16.5h112
v436h-112z" />
    <glyph glyph-name="Ograve" unicode="&#xd2;" horiz-adv-x="780" 
d="M390 -12q-78 0 -142 25.5t-110 73t-71 114t-25 149.5q0 82 25 149t71 114.5t110 73t142 25.5t142 -25.5t109.5 -73t71 -114.5t25.5 -149q0 -83 -25.5 -149.5t-71 -114t-109.5 -73t-142 -25.5zM390 575q-42 0 -75.5 -17.5t-56 -48t-34.5 -71.5t-12 -88t12 -88t34.5 -71.5
t56 -48t75.5 -17.5t74.5 17.5t55.5 48t35 71.5t12 88t-12 88t-35 71.5t-55.5 48t-74.5 17.5zM214 889v6h179l72 -120v-5h-129z" />
    <glyph glyph-name="Ohungarumlaut" unicode="&#x150;" horiz-adv-x="780" 
d="M390 -12q-78 0 -142 25.5t-110 73t-71 114t-25 149.5q0 82 25 149t71 114.5t110 73t142 25.5t142 -25.5t109.5 -73t71 -114.5t25.5 -149q0 -83 -25.5 -149.5t-71 -114t-109.5 -73t-142 -25.5zM390 575q-42 0 -75.5 -17.5t-56 -48t-34.5 -71.5t-12 -88t12 -88t34.5 -71.5
t56 -48t75.5 -17.5t74.5 17.5t55.5 48t35 71.5t12 88t-12 88t-35 71.5t-55.5 48t-74.5 17.5zM534 770h-109v5l63 120h154v-6zM344 770h-109v5l63 120h154v-6z" />
    <glyph glyph-name="hungarumlaut" unicode="&#x2dd;" horiz-adv-x="550" 
d="M420 575h-109v5l63 120h154v-6zM230 575h-109v5l63 120h154v-6z" />
    <glyph glyph-name="Omacron" unicode="&#x14c;" horiz-adv-x="780" 
d="M390 -12q-78 0 -142 25.5t-110 73t-71 114t-25 149.5q0 82 25 149t71 114.5t110 73t142 25.5t142 -25.5t109.5 -73t71 -114.5t25.5 -149q0 -83 -25.5 -149.5t-71 -114t-109.5 -73t-142 -25.5zM390 575q-42 0 -75.5 -17.5t-56 -48t-34.5 -71.5t-12 -88t12 -88t34.5 -71.5
t56 -48t75.5 -17.5t74.5 17.5t55.5 48t35 71.5t12 88t-12 88t-35 71.5t-55.5 48t-74.5 17.5zM528 784h-275v89h275v-89z" />
    <glyph glyph-name="Otilde" unicode="&#xd5;" horiz-adv-x="780" 
d="M390 -12q-78 0 -142 25.5t-110 73t-71 114t-25 149.5q0 82 25 149t71 114.5t110 73t142 25.5t142 -25.5t109.5 -73t71 -114.5t25.5 -149q0 -83 -25.5 -149.5t-71 -114t-109.5 -73t-142 -25.5zM390 575q-42 0 -75.5 -17.5t-56 -48t-34.5 -71.5t-12 -88t12 -88t34.5 -71.5
t56 -48t75.5 -17.5t74.5 17.5t55.5 48t35 71.5t12 88t-12 88t-35 71.5t-55.5 48t-74.5 17.5zM564 895q3 -35 -5.5 -59t-23 -38t-33 -20t-36.5 -6q-21 0 -39 5t-33.5 11.5t-29.5 11.5t-27 5q-17 0 -21.5 -10.5t-4.5 -23.5h-95q-3 36 5 60t22.5 38.5t33 20.5t36.5 6
q21 0 39 -5.5t34 -12t29.5 -12t27.5 -5.5q16 0 20.5 10t4.5 24h96z" />
    <glyph glyph-name="Racute" unicode="&#x154;" horiz-adv-x="679" 
d="M378 700q62 0 112.5 -16t86 -45.5t55 -70.5t19.5 -91q0 -69 -38 -117.5t-104 -72.5l157 -287h-188l-142 267h-83v-267h-173v700h298zM373 337q51 0 79 30.5t28 75.5q0 54 -28 89.5t-79 35.5h-120v-231h120zM417 770h-127v5l75 120h174v-6z" />
    <glyph glyph-name="Rcaron" unicode="&#x158;" horiz-adv-x="679" 
d="M378 700q62 0 112.5 -16t86 -45.5t55 -70.5t19.5 -91q0 -69 -38 -117.5t-104 -72.5l157 -287h-188l-142 267h-83v-267h-173v700h298zM373 337q51 0 79 30.5t28 75.5q0 54 -28 89.5t-79 35.5h-120v-231h120zM424 895h123v-2l-114 -122h-134l-114 122v2h130l55 -46z" />
    <glyph glyph-name="Rcommaaccent" unicode="&#x156;" horiz-adv-x="679" 
d="M378 700q62 0 112.5 -16t86 -45.5t55 -70.5t19.5 -91q0 -69 -38 -117.5t-104 -72.5l157 -287h-188l-142 267h-83v-267h-173v700h298zM373 337q51 0 79 30.5t28 75.5q0 54 -28 89.5t-79 35.5h-120v-231h120zM276 -269q29 7 48 23t24 44q-32 2 -52 22.5t-20 49.5
q0 32 21.5 53t56.5 21t58 -23.5t23 -69.5q0 -35 -10 -68t-30 -58.5t-50 -41.5t-69 -18v66z" />
    <glyph glyph-name="Sacute" unicode="&#x15a;" horiz-adv-x="627" 
d="M321 -12q-56 0 -106.5 12.5t-90.5 39t-66.5 68t-33.5 100.5h168q11 -46 41 -68.5t87 -22.5q24 0 44.5 4t35.5 14t24 26t9 39q0 24 -15 39.5t-39.5 25.5t-57 17t-66.5 15q-39 9 -78 22t-69.5 36t-50 58.5t-19.5 90.5q0 33 12 69.5t42 67t80.5 51t127.5 20.5q51 0 97 -12
t82 -37.5t60 -65.5t32 -96h-168q-26 82 -112 82q-40 0 -68 -16t-28 -50q0 -24 14.5 -39t38.5 -24.5t55 -15.5t65 -13q40 -8 81 -20.5t73 -36.5t52.5 -62.5t20.5 -98.5q0 -49 -19 -89t-54 -69t-86 -45t-115 -16zM355 770h-127v5l75 120h174v-6z" />
    <glyph glyph-name="Scaron" unicode="&#x160;" horiz-adv-x="627" 
d="M321 -12q-56 0 -106.5 12.5t-90.5 39t-66.5 68t-33.5 100.5h168q11 -46 41 -68.5t87 -22.5q24 0 44.5 4t35.5 14t24 26t9 39q0 24 -15 39.5t-39.5 25.5t-57 17t-66.5 15q-39 9 -78 22t-69.5 36t-50 58.5t-19.5 90.5q0 33 12 69.5t42 67t80.5 51t127.5 20.5q51 0 97 -12
t82 -37.5t60 -65.5t32 -96h-168q-26 82 -112 82q-40 0 -68 -16t-28 -50q0 -24 14.5 -39t38.5 -24.5t55 -15.5t65 -13q40 -8 81 -20.5t73 -36.5t52.5 -62.5t20.5 -98.5q0 -49 -19 -89t-54 -69t-86 -45t-115 -16zM362 895h123v-2l-114 -122h-134l-114 122v2h130l55 -46z" />
    <glyph glyph-name="Scedilla" unicode="&#x15e;" horiz-adv-x="627" 
d="M314 -252q-25 0 -47.5 6.5t-40 20t-27.5 34.5t-10 49h87q0 -15 10.5 -23.5t26.5 -8.5q17 0 28 9t11 26q0 16 -11 27t-31 11q-10 0 -22 -3l-24 15v81q-26 3 -50 8q-50 13 -90 39.5t-66.5 68t-33.5 100.5h168q11 -46 41 -68.5t87 -22.5q24 0 44.5 4t35.5 14t24 26t9 39
q0 24 -15 39.5t-39.5 25.5t-57 17t-66.5 15q-39 9 -78 22t-69.5 36t-50 58.5t-19.5 90.5q0 33 12 69.5t42 67t80.5 51t127.5 20.5q51 0 97 -12t82 -37.5t60 -65.5t32 -96h-168q-26 82 -112 82q-40 0 -68 -16t-28 -50q0 -24 14.5 -39t38.5 -24.5t55 -15.5t65 -13
q40 -8 81 -20.5t73 -36.5t52.5 -62.5t20.5 -98.5q0 -49 -19 -89t-54 -69t-86 -45q-37 -11 -81 -15v-29q38 -2 66 -29.5t28 -72.5q0 -28 -11 -49t-29.5 -34.5t-43 -20t-51.5 -6.5z" />
    <glyph glyph-name="Scircumflex" unicode="&#x15c;" horiz-adv-x="627" 
d="M321 -12q-56 0 -106.5 12.5t-90.5 39t-66.5 68t-33.5 100.5h168q11 -46 41 -68.5t87 -22.5q24 0 44.5 4t35.5 14t24 26t9 39q0 24 -15 39.5t-39.5 25.5t-57 17t-66.5 15q-39 9 -78 22t-69.5 36t-50 58.5t-19.5 90.5q0 33 12 69.5t42 67t80.5 51t127.5 20.5q51 0 97 -12
t82 -37.5t60 -65.5t32 -96h-168q-26 82 -112 82q-40 0 -68 -16t-28 -50q0 -24 14.5 -39t38.5 -24.5t55 -15.5t65 -13q40 -8 81 -20.5t73 -36.5t52.5 -62.5t20.5 -98.5q0 -49 -19 -89t-54 -69t-86 -45t-115 -16zM247 771h-124v4l113 120h135l115 -120v-4h-131l-55 47z" />
    <glyph glyph-name="Scommaaccent" unicode="&#x218;" horiz-adv-x="627" 
d="M321 -12q-56 0 -106.5 12.5t-90.5 39t-66.5 68t-33.5 100.5h168q11 -46 41 -68.5t87 -22.5q24 0 44.5 4t35.5 14t24 26t9 39q0 24 -15 39.5t-39.5 25.5t-57 17t-66.5 15q-39 9 -78 22t-69.5 36t-50 58.5t-19.5 90.5q0 33 12 69.5t42 67t80.5 51t127.5 20.5q51 0 97 -12
t82 -37.5t60 -65.5t32 -96h-168q-26 82 -112 82q-40 0 -68 -16t-28 -50q0 -24 14.5 -39t38.5 -24.5t55 -15.5t65 -13q40 -8 81 -20.5t73 -36.5t52.5 -62.5t20.5 -98.5q0 -49 -19 -89t-54 -69t-86 -45t-115 -16zM245 -269q29 7 48 23t24 44q-32 2 -52 22.5t-20 49.5
q0 32 21.5 53t56.5 21t58 -23.5t23 -69.5q0 -35 -10 -68t-30 -58.5t-50 -41.5t-69 -18v66z" />
    <glyph glyph-name="Tcaron" unicode="&#x164;" horiz-adv-x="601" 
d="M387 567v-567h-173v567h-204v133h581v-133h-204zM359 895h123v-2l-114 -122h-134l-114 122v2h130l55 -46z" />
    <glyph glyph-name="Tcommaaccent" unicode="&#x162;" horiz-adv-x="601" 
d="M387 567v-567h-173v567h-204v133h581v-133h-204zM227 -269q29 7 48 23t24 44q-32 2 -52 22.5t-20 49.5q0 32 21.5 53t56.5 21t58 -23.5t23 -69.5q0 -35 -10 -68t-30 -58.5t-50 -41.5t-69 -18v66z" />
    <glyph glyph-name="Uacute" unicode="&#xda;" horiz-adv-x="723" 
d="M238 236q0 -47 32 -79t92 -32q54 0 83.5 32t29.5 79v464h173v-440q0 -62 -21 -112.5t-58.5 -86t-90 -54.5t-116.5 -19q-67 0 -121.5 19t-93.5 54.5t-60.5 86t-21.5 112.5v440h173v-464v0zM413 770h-127v5l75 120h174v-6z" />
    <glyph glyph-name="Ubreve" unicode="&#x16c;" horiz-adv-x="723" 
d="M238 236q0 -47 32 -79t92 -32q54 0 83.5 32t29.5 79v464h173v-440q0 -62 -21 -112.5t-58.5 -86t-90 -54.5t-116.5 -19q-67 0 -121.5 19t-93.5 54.5t-60.5 86t-21.5 112.5v440h173v-464v0zM361 848q30 0 47.5 12t19.5 35h98q-4 -68 -46.5 -97t-118.5 -29t-118.5 29
t-46.5 97h98q2 -23 19.5 -35t47.5 -12z" />
    <glyph glyph-name="Ucircumflex" unicode="&#xdb;" horiz-adv-x="723" 
d="M238 236q0 -47 32 -79t92 -32q54 0 83.5 32t29.5 79v464h173v-440q0 -62 -21 -112.5t-58.5 -86t-90 -54.5t-116.5 -19q-67 0 -121.5 19t-93.5 54.5t-60.5 86t-21.5 112.5v440h173v-464v0zM305 771h-124v4l113 120h135l115 -120v-4h-131l-55 47z" />
    <glyph glyph-name="Udieresis" unicode="&#xdc;" horiz-adv-x="723" 
d="M238 236q0 -47 32 -79t92 -32q54 0 83.5 32t29.5 79v464h173v-440q0 -62 -21 -112.5t-58.5 -86t-90 -54.5t-116.5 -19q-67 0 -121.5 19t-93.5 54.5t-60.5 86t-21.5 112.5v440h173v-464v0zM467 769q-34 0 -57.5 23t-23.5 57q0 33 23.5 56t57.5 23q35 0 58.5 -23t23.5 -56
q0 -34 -23.5 -57t-58.5 -23zM257 769q-34 0 -57.5 23t-23.5 57q0 33 23.5 56t57.5 23q35 0 58.5 -23t23.5 -56q0 -34 -23.5 -57t-58.5 -23z" />
    <glyph glyph-name="Ugrave" unicode="&#xd9;" horiz-adv-x="723" 
d="M238 236q0 -47 32 -79t92 -32q54 0 83.5 32t29.5 79v464h173v-440q0 -62 -21 -112.5t-58.5 -86t-90 -54.5t-116.5 -19q-67 0 -121.5 19t-93.5 54.5t-60.5 86t-21.5 112.5v440h173v-464v0zM185 889v6h179l72 -120v-5h-129z" />
    <glyph glyph-name="Uhungarumlaut" unicode="&#x170;" horiz-adv-x="723" 
d="M238 236q0 -47 32 -79t92 -32q54 0 83.5 32t29.5 79v464h173v-440q0 -62 -21 -112.5t-58.5 -86t-90 -54.5t-116.5 -19q-67 0 -121.5 19t-93.5 54.5t-60.5 86t-21.5 112.5v440h173v-464v0zM505 770h-109v5l63 120h154v-6zM315 770h-109v5l63 120h154v-6z" />
    <glyph glyph-name="Umacron" unicode="&#x16a;" horiz-adv-x="723" 
d="M238 236q0 -47 32 -79t92 -32q54 0 83.5 32t29.5 79v464h173v-440q0 -62 -21 -112.5t-58.5 -86t-90 -54.5t-116.5 -19q-67 0 -121.5 19t-93.5 54.5t-60.5 86t-21.5 112.5v440h173v-464v0zM499 784h-275v89h275v-89z" />
    <glyph glyph-name="Uring" unicode="&#x16e;" horiz-adv-x="723" 
d="M238 236q0 -47 32 -79t92 -32q54 0 83.5 32t29.5 79v464h173v-440q0 -62 -21 -112.5t-58.5 -86t-90 -54.5t-116.5 -19q-67 0 -121.5 19t-93.5 54.5t-60.5 86t-21.5 112.5v440h173v-464v0zM360 803q18 0 31.5 13t13.5 33t-13.5 33t-31.5 13t-31.5 -13t-13.5 -33t13.5 -33
t31.5 -13zM360 954q21 0 40 -7.5t34 -21.5t24 -33t9 -43t-9 -43t-24 -33t-34 -21.5t-40 -7.5t-40 7.5t-34 21.5t-24 33t-9 43t9 43t24 33t34 21.5t40 7.5z" />
    <glyph glyph-name="Utilde" unicode="&#x168;" horiz-adv-x="723" 
d="M238 236q0 -47 32 -79t92 -32q54 0 83.5 32t29.5 79v464h173v-440q0 -62 -21 -112.5t-58.5 -86t-90 -54.5t-116.5 -19q-67 0 -121.5 19t-93.5 54.5t-60.5 86t-21.5 112.5v440h173v-464v0zM535 895q3 -35 -5.5 -59t-23 -38t-33 -20t-36.5 -6q-21 0 -39 5t-33.5 11.5
t-29.5 11.5t-27 5q-17 0 -21.5 -10.5t-4.5 -23.5h-95q-3 36 5 60t22.5 38.5t33 20.5t36.5 6q21 0 39 -5.5t34 -12t29.5 -12t27.5 -5.5q16 0 20.5 10t4.5 24h96z" />
    <glyph glyph-name="Wacute" unicode="&#x1e82;" horiz-adv-x="976" 
d="M10 700h171l92 -413l17 -87l18 87l99 412h167l99 -412l18 -87l17 87l92 413h166l-191 -700h-180l-91 385l-16 78l-16 -78l-91 -385h-180zM537 770h-127v5l75 120h174v-6z" />
    <glyph glyph-name="Wdieresis" unicode="&#x1e84;" horiz-adv-x="976" 
d="M10 700h171l92 -413l17 -87l18 87l99 412h167l99 -412l18 -87l17 87l92 413h166l-191 -700h-180l-91 385l-16 78l-16 -78l-91 -385h-180zM591 769q-34 0 -57.5 23t-23.5 57q0 33 23.5 56t57.5 23q35 0 58.5 -23t23.5 -56q0 -34 -23.5 -57t-58.5 -23zM381 769
q-34 0 -57.5 23t-23.5 57q0 33 23.5 56t57.5 23q35 0 58.5 -23t23.5 -56q0 -34 -23.5 -57t-58.5 -23z" />
    <glyph glyph-name="Wgrave" unicode="&#x1e80;" horiz-adv-x="976" 
d="M10 700h171l92 -413l17 -87l18 87l99 412h167l99 -412l18 -87l17 87l92 413h166l-191 -700h-180l-91 385l-16 78l-16 -78l-91 -385h-180zM309 889v6h179l72 -120v-5h-129z" />
    <glyph glyph-name="Wcircumflex" unicode="&#x174;" horiz-adv-x="976" 
d="M10 700h171l92 -413l17 -87l18 87l99 412h167l99 -412l18 -87l17 87l92 413h166l-191 -700h-180l-91 385l-16 78l-16 -78l-91 -385h-180zM429 771h-124v4l113 120h135l115 -120v-4h-131l-55 47z" />
    <glyph glyph-name="Yacute" unicode="&#xdd;" horiz-adv-x="647" 
d="M12 700h182l135 -296l135 296h171l-225 -445v-255h-173v260zM376 770h-127v5l75 120h174v-6z" />
    <glyph glyph-name="Ycircumflex" unicode="&#x176;" horiz-adv-x="647" 
d="M12 700h182l135 -296l135 296h171l-225 -445v-255h-173v260zM268 771h-124v4l113 120h135l115 -120v-4h-131l-55 47z" />
    <glyph glyph-name="Ydieresis" unicode="&#x178;" horiz-adv-x="647" 
d="M12 700h182l135 -296l135 296h171l-225 -445v-255h-173v260zM430 769q-34 0 -57.5 23t-23.5 57q0 33 23.5 56t57.5 23q35 0 58.5 -23t23.5 -56q0 -34 -23.5 -57t-58.5 -23zM220 769q-34 0 -57.5 23t-23.5 57q0 33 23.5 56t57.5 23q35 0 58.5 -23t23.5 -56
q0 -34 -23.5 -57t-58.5 -23z" />
    <glyph glyph-name="Zacute" unicode="&#x179;" horiz-adv-x="575" 
d="M20 104l332 466l-76 -2h-240v132h509v-103l-333 -467l98 2h228v-132h-518v104zM338 770h-127v5l75 120h174v-6z" />
    <glyph glyph-name="Zcaron" unicode="&#x17d;" horiz-adv-x="575" 
d="M20 104l332 466l-76 -2h-240v132h509v-103l-333 -467l98 2h228v-132h-518v104zM345 895h123v-2l-114 -122h-134l-114 122v2h130l55 -46z" />
    <glyph glyph-name="Zdotaccent" unicode="&#x17b;" horiz-adv-x="575" 
d="M20 104l332 466l-76 -2h-240v132h509v-103l-333 -467l98 2h228v-132h-518v104zM287 769q-34 0 -57.5 23t-23.5 57q0 33 23.5 56t57.5 23q35 0 58.5 -23t23.5 -56q0 -34 -23.5 -57t-58.5 -23z" />
    <glyph glyph-name="a" unicode="a" horiz-adv-x="529" 
d="M313 301v23q0 38 -19.5 59.5t-54.5 21.5t-53.5 -20.5t-18.5 -50.5h-131q1 44 17.5 78.5t44.5 58t67 35.5t85 12q52 0 92 -14.5t67 -40t40.5 -61t13.5 -76.5v-200q0 -20 14 -29.5t37 -4.5v-86q-37 -9 -70 -10q-44 1 -71 14t-44 43q-39 -32 -81.5 -47t-84.5 -15
q-58 0 -97.5 32t-39.5 91q0 60 49.5 101.5t159.5 67.5zM223 91q23 0 44.5 9.5t45.5 27.5v108l-41 -10q-57 -14 -82.5 -36t-25.5 -51q0 -23 15.5 -35.5t43.5 -12.5z" />
    <glyph glyph-name="b" unicode="b" horiz-adv-x="580" 
d="M214 700v-213q51 31 117 31q48 0 87.5 -18.5t68.5 -52t45 -82t16 -108.5q0 -61 -17 -110t-48.5 -84t-75.5 -54t-98 -19q-55 0 -96 17t-70 46l-38 -53h-41v700h150zM297 100q21 0 39.5 9t32.5 27.5t22.5 47t8.5 68.5q0 75 -28.5 112.5t-76.5 37.5q-23 0 -44 -7.5
t-37 -21.5v-238q33 -35 83 -35z" />
    <glyph glyph-name="c" unicode="c" horiz-adv-x="531" 
d="M377 328q-25 76 -95 76q-47 0 -75.5 -38.5t-28.5 -111.5q0 -66 27 -108t81 -42q32 0 57.5 17.5t34.5 46.5h131q-9 -44 -30 -77.5t-50 -56t-65 -33.5t-75 -11q-56 0 -103.5 18.5t-81.5 53t-53 83.5t-19 109t18.5 109t52 83.5t80 53t101.5 18.5q41 0 78.5 -11t67.5 -34
t51 -59t30 -86h-134v0z" />
    <glyph glyph-name="d" unicode="d" horiz-adv-x="580" 
d="M381 0l-3 41q-27 -23 -60 -36.5t-73 -13.5q-46 0 -85 18.5t-67.5 52.5t-44.5 82.5t-16 108.5t17 109t48.5 83.5t75 53.5t96.5 19t97 -19v201h150v-700h-135zM284 407q-22 0 -41.5 -8.5t-34 -27.5t-23 -48t-8.5 -69q0 -73 30.5 -112t80.5 -39q45 0 78 31v240
q-16 15 -37.5 24t-44.5 9z" />
    <glyph glyph-name="e" unicode="e" horiz-adv-x="533" 
d="M504 154q-20 -82 -79.5 -123t-142.5 -41q-55 0 -101 18.5t-79 52t-51.5 81.5t-18.5 107q0 61 18.5 111t51 85t78 54t99.5 19q48 0 90 -17t72.5 -49t48.5 -78t18 -104v-39h-333q5 -60 31.5 -97t77.5 -37q31 0 56 15.5t33 41.5h131zM274 409q-33 0 -61.5 -26.5t-36.5 -85.5
h192q-5 55 -30 83.5t-64 28.5z" />
    <glyph glyph-name="f" unicode="f" horiz-adv-x="356" 
d="M239 442v-442h-150v442h-80v63h80v42q0 40 11 76.5t35 64.5t61 45t89 17q49 0 84 -14v-118q-23 8 -49 8q-34 0 -57.5 -19.5t-23.5 -62.5v-39h121v-63h-121z" />
    <glyph glyph-name="g" unicode="g" horiz-adv-x="575" 
d="M511 24q0 -60 -18 -107.5t-50.5 -80t-78.5 -50t-102 -17.5q-105 0 -164 46.5t-64 129.5h136q6 -30 29 -46.5t61 -16.5q49 0 75 27.5t26 87.5v39q-24 -17 -52.5 -26t-61.5 -9q-47 0 -86 18t-68 51.5t-45 81t-16 106.5t17 107t48.5 82t75 52.5t96.5 18.5q51 0 91.5 -17
t69.5 -46l40 54h41v-485zM284 407q-22 0 -41.5 -8.5t-34 -26.5t-23 -46t-8.5 -67q0 -71 30.5 -109t80.5 -38q42 0 73 26v227q-14 20 -34 31t-43 11z" />
    <glyph glyph-name="h" unicode="h" horiz-adv-x="591" 
d="M214 700v-236q29 25 65 39.5t77 14.5q38 0 70 -13t55.5 -37.5t36.5 -59t13 -77.5v-331h-150v306q0 40 -19.5 66.5t-63.5 26.5q-20 0 -42.5 -9.5t-41.5 -26.5v-363h-150v700h150z" />
    <glyph glyph-name="i" unicode="i" 
d="M214 505v-505h-150v505h150zM138 568q-36 0 -61.5 25t-25.5 61q0 18 7 33.5t18.5 27t27.5 18t34 6.5t34 -6.5t28 -18t19 -27t7 -33.5q0 -36 -25.5 -61t-62.5 -25z" />
    <glyph glyph-name="j" unicode="j" 
d="M138 568q-36 0 -61.5 25t-25.5 61q0 18 7 33.5t18.5 27t27.5 18t34 6.5t34 -6.5t28 -18t19 -27t7 -33.5q0 -36 -25.5 -61t-62.5 -25zM64 505h150v-518q0 -44 -12.5 -81.5t-37.5 -66t-62 -44.5t-85 -16q-26 0 -45.5 4.5t-31.5 9.5v113q24 -8 45 -8q33 0 56 18.5t23 58.5
v530z" />
    <glyph glyph-name="k" unicode="k" horiz-adv-x="557" 
d="M214 700v-415h41l140 220h162l-162 -234l164 -271h-169l-129 221h-47v-221h-150v700h150z" />
    <glyph glyph-name="l" unicode="l" 
d="M214 700v-700h-150v700h150z" />
    <glyph glyph-name="m" unicode="m" horiz-adv-x="878" 
d="M199 505l2 -45q29 27 66 42.5t79 15.5q45 0 80 -18.5t58 -53.5q32 33 73.5 52.5t90.5 19.5q37 0 68.5 -13t54 -37.5t35 -59t12.5 -77.5v-331h-150v306q0 40 -19.5 66.5t-63.5 26.5q-36 0 -72 -30q3 -18 3 -38v-331h-150v306q0 40 -19.5 66.5t-63.5 26.5q-35 0 -69 -28
v-371h-150v505h135z" />
    <glyph glyph-name="n" unicode="n" horiz-adv-x="591" 
d="M199 505l2 -46q32 27 71 43t84 16q38 0 70 -13t55.5 -37.5t36.5 -59t13 -77.5v-331h-150v306q0 40 -19.5 66.5t-63.5 26.5q-20 0 -42.5 -8t-41.5 -22v-369h-150v505h135z" />
    <glyph glyph-name="o" unicode="o" horiz-adv-x="578" 
d="M289 -10q-56 0 -103.5 18.5t-81.5 53t-53 83.5t-19 109t19 109t53 83.5t81.5 53t103.5 18.5t103.5 -18.5t81.5 -53t53 -83.5t19 -109t-19 -109t-53 -83.5t-81.5 -53t-103.5 -18.5zM289 406q-54 0 -84 -42.5t-30 -109.5t30 -109.5t84 -42.5t84 42.5t30 109.5t-30 109.5
t-84 42.5z" />
    <glyph glyph-name="p" unicode="p" horiz-adv-x="580" 
d="M194 505l4 -38q27 24 60.5 37.5t72.5 13.5q48 0 87.5 -18.5t68.5 -52t45 -82t16 -108.5q0 -61 -17 -110t-48.5 -84t-75.5 -54t-98 -19q-28 0 -51.5 5.5t-43.5 14.5v-227h-150v722h130zM297 100q21 0 40.5 9t34 27.5t23 47t8.5 68.5q0 76 -29.5 115t-78.5 39
q-23 0 -44 -8.5t-37 -23.5v-241q33 -33 83 -33z" />
    <glyph glyph-name="q" unicode="q" horiz-adv-x="580" 
d="M366 -217v245q-26 -17 -56 -27t-65 -10q-46 0 -85 18.5t-67.5 52.5t-44.5 82.5t-16 108.5t17 109t48.5 83.5t75 53.5t96.5 19t93.5 -18t69.5 -48l38 57h46v-726h-150zM284 407q-22 0 -41.5 -8.5t-34 -27.5t-23 -48t-8.5 -69q0 -73 30.5 -112t80.5 -39q49 0 78 31v221
q-14 23 -35 37.5t-47 14.5z" />
    <glyph glyph-name="r" unicode="r" horiz-adv-x="379" 
d="M368 386q-49 -2 -87 -17.5t-67 -52.5v-316h-150v505h135l4 -80q34 44 75.5 67.5t89.5 25.5v-132z" />
    <glyph glyph-name="s" unicode="s" horiz-adv-x="472" 
d="M311 354q-8 25 -29.5 40t-59.5 15q-30 0 -46 -10.5t-16 -26.5q0 -13 10.5 -22t28 -16.5t40 -13.5t47.5 -13q29 -9 57.5 -20.5t51 -29t36.5 -43.5t14 -63q0 -34 -13 -63t-39 -50.5t-65.5 -33.5t-92.5 -12q-85 0 -143 37.5t-71 119.5h129q13 -57 90 -57q38 0 54.5 12.5
t16.5 28.5q0 12 -8.5 21t-23 16t-34 13t-41.5 12q-30 9 -60.5 20.5t-55 30t-40.5 45.5t-16 68q0 69 50.5 113.5t146.5 44.5q37 0 72 -9.5t63.5 -29.5t48.5 -51t28 -73h-130z" />
    <glyph glyph-name="t" unicode="t" horiz-adv-x="381" 
d="M239 442v-255q0 -40 21.5 -61t58.5 -21q21 0 51 11v-102q-26 -14 -53.5 -19t-54.5 -5q-35 0 -66.5 11.5t-55 34t-37.5 54.5t-14 73v279h-80v63h80v142l150 54v-196h121v-63h-121z" />
    <glyph glyph-name="u" unicode="u" horiz-adv-x="581" 
d="M382 0l-3 44q-29 -26 -65.5 -40t-78.5 -14q-38 0 -70.5 13t-55.5 37.5t-36 59.5t-13 78v327h150v-312q0 -38 19.5 -63t63.5 -25q18 0 37.5 6t36.5 19v375h150v-505h-135z" />
    <glyph glyph-name="v" unicode="v" horiz-adv-x="535" 
d="M353 0h-171l-177 505h160l105 -347l105 347h155z" />
    <glyph glyph-name="w" unicode="w" horiz-adv-x="778" 
d="M410 239l-21 93l-21 -93l-60 -239h-162l-141 505h149l60 -266l17 -83l18 83l66 264h153l66 -264l18 -84l17 84l60 266h144l-141 -505h-162z" />
    <glyph glyph-name="x" unicode="x" horiz-adv-x="524" 
d="M5 0l176 256l-163 249h164l86 -138l89 138h154l-167 -242l175 -263h-164l-98 154l-98 -154h-154z" />
    <glyph glyph-name="y" unicode="y" horiz-adv-x="535" 
d="M165 505l104 -346l105 346h156l-165 -476q-24 -69 -54.5 -116.5t-66.5 -76.5t-76.5 -42t-85.5 -13q-23 0 -47.5 3.5t-46.5 9.5v126q45 -18 86 -18q35 0 65 13t56 51l-190 539h160z" />
    <glyph glyph-name="z" unicode="z" horiz-adv-x="470" 
d="M21 90l245 303h-233v112h398v-94l-243 -300h252v-111h-419v90z" />
    <glyph glyph-name="aacute" unicode="&#xe1;" horiz-adv-x="529" 
d="M313 301v23q0 38 -19.5 59.5t-54.5 21.5t-53.5 -20.5t-18.5 -50.5h-131q1 44 17.5 78.5t44.5 58t67 35.5t85 12q52 0 92 -14.5t67 -40t40.5 -61t13.5 -76.5v-200q0 -20 14 -29.5t37 -4.5v-86q-37 -9 -70 -10q-44 1 -71 14t-44 43q-39 -32 -81.5 -47t-84.5 -15
q-58 0 -97.5 32t-39.5 91q0 60 49.5 101.5t159.5 67.5zM223 91q23 0 44.5 9.5t45.5 27.5v108l-41 -10q-57 -14 -82.5 -36t-25.5 -51q0 -23 15.5 -35.5t43.5 -12.5zM295 575h-127v5l75 120h174v-6z" />
    <glyph glyph-name="abreve" unicode="&#x103;" horiz-adv-x="529" 
d="M313 301v23q0 38 -19.5 59.5t-54.5 21.5t-53.5 -20.5t-18.5 -50.5h-131q1 44 17.5 78.5t44.5 58t67 35.5t85 12q52 0 92 -14.5t67 -40t40.5 -61t13.5 -76.5v-200q0 -20 14 -29.5t37 -4.5v-86q-37 -9 -70 -10q-44 1 -71 14t-44 43q-39 -32 -81.5 -47t-84.5 -15
q-58 0 -97.5 32t-39.5 91q0 60 49.5 101.5t159.5 67.5zM223 91q23 0 44.5 9.5t45.5 27.5v108l-41 -10q-57 -14 -82.5 -36t-25.5 -51q0 -23 15.5 -35.5t43.5 -12.5zM243 653q30 0 47.5 12t19.5 35h98q-4 -68 -46.5 -97t-118.5 -29t-118.5 29t-46.5 97h98q2 -23 19.5 -35
t47.5 -12z" />
    <glyph glyph-name="acircumflex" unicode="&#xe2;" horiz-adv-x="529" 
d="M313 301v23q0 38 -19.5 59.5t-54.5 21.5t-53.5 -20.5t-18.5 -50.5h-131q1 44 17.5 78.5t44.5 58t67 35.5t85 12q52 0 92 -14.5t67 -40t40.5 -61t13.5 -76.5v-200q0 -20 14 -29.5t37 -4.5v-86q-37 -9 -70 -10q-44 1 -71 14t-44 43q-39 -32 -81.5 -47t-84.5 -15
q-58 0 -97.5 32t-39.5 91q0 60 49.5 101.5t159.5 67.5zM223 91q23 0 44.5 9.5t45.5 27.5v108l-41 -10q-57 -14 -82.5 -36t-25.5 -51q0 -23 15.5 -35.5t43.5 -12.5zM187 576h-124v4l113 120h135l115 -120v-4h-131l-55 47z" />
    <glyph glyph-name="adieresis" unicode="&#xe4;" horiz-adv-x="529" 
d="M313 301v23q0 38 -19.5 59.5t-54.5 21.5t-53.5 -20.5t-18.5 -50.5h-131q1 44 17.5 78.5t44.5 58t67 35.5t85 12q52 0 92 -14.5t67 -40t40.5 -61t13.5 -76.5v-200q0 -20 14 -29.5t37 -4.5v-86q-37 -9 -70 -10q-44 1 -71 14t-44 43q-39 -32 -81.5 -47t-84.5 -15
q-58 0 -97.5 32t-39.5 91q0 60 49.5 101.5t159.5 67.5zM223 91q23 0 44.5 9.5t45.5 27.5v108l-41 -10q-57 -14 -82.5 -36t-25.5 -51q0 -23 15.5 -35.5t43.5 -12.5zM347 574q-34 0 -57.5 23t-23.5 57q0 33 23.5 56t57.5 23q35 0 58.5 -23t23.5 -56q0 -34 -23.5 -57t-58.5 -23
zM137 574q-34 0 -57.5 23t-23.5 57q0 33 23.5 56t57.5 23q35 0 58.5 -23t23.5 -56q0 -34 -23.5 -57t-58.5 -23z" />
    <glyph glyph-name="ae" unicode="&#xe6;" horiz-adv-x="817" 
d="M25 112q0 30 11.5 60.5t43.5 56t88.5 43.5t147.5 23v29q0 38 -19.5 59.5t-54.5 21.5t-54.5 -20.5t-19.5 -50.5h-131q1 44 17.5 78.5t45 58t67.5 35.5t86 12q53 0 91 -16.5t61 -45.5q31 29 70.5 45.5t87.5 16.5t90 -17t72.5 -49t48.5 -78t18 -104v-39h-333q5 -60 31.5 -97
t77.5 -37q31 0 56 16.5t33 45.5h131q-9 -42 -29 -73.5t-49.5 -53t-66 -32t-77.5 -10.5q-62 0 -111 20.5t-82 60.5q-45 -42 -96 -61t-100 -19q-32 0 -59.5 8t-48 24t-32.5 38t-12 51zM224 87q27 0 54 12.5t57 37.5q-16 39 -19 92q-49 -4 -79 -12.5t-46.5 -20t-22 -24.5
t-5.5 -26q0 -29 16.5 -44t44.5 -15zM558 409q-33 0 -61.5 -26.5t-36.5 -85.5h192q-5 55 -30 83.5t-64 28.5z" />
    <glyph glyph-name="agrave" unicode="&#xe0;" horiz-adv-x="529" 
d="M313 301v23q0 38 -19.5 59.5t-54.5 21.5t-53.5 -20.5t-18.5 -50.5h-131q1 44 17.5 78.5t44.5 58t67 35.5t85 12q52 0 92 -14.5t67 -40t40.5 -61t13.5 -76.5v-200q0 -20 14 -29.5t37 -4.5v-86q-37 -9 -70 -10q-44 1 -71 14t-44 43q-39 -32 -81.5 -47t-84.5 -15
q-58 0 -97.5 32t-39.5 91q0 60 49.5 101.5t159.5 67.5zM223 91q23 0 44.5 9.5t45.5 27.5v108l-41 -10q-57 -14 -82.5 -36t-25.5 -51q0 -23 15.5 -35.5t43.5 -12.5zM67 694v6h179l72 -120v-5h-129z" />
    <glyph glyph-name="amacron" unicode="&#x101;" horiz-adv-x="529" 
d="M313 301v23q0 38 -19.5 59.5t-54.5 21.5t-53.5 -20.5t-18.5 -50.5h-131q1 44 17.5 78.5t44.5 58t67 35.5t85 12q52 0 92 -14.5t67 -40t40.5 -61t13.5 -76.5v-200q0 -20 14 -29.5t37 -4.5v-86q-37 -9 -70 -10q-44 1 -71 14t-44 43q-39 -32 -81.5 -47t-84.5 -15
q-58 0 -97.5 32t-39.5 91q0 60 49.5 101.5t159.5 67.5zM223 91q23 0 44.5 9.5t45.5 27.5v108l-41 -10q-57 -14 -82.5 -36t-25.5 -51q0 -23 15.5 -35.5t43.5 -12.5zM381 589h-275v89h275v-89z" />
    <glyph glyph-name="aring" unicode="&#xe5;" horiz-adv-x="529" 
d="M313 301v23q0 38 -19.5 59.5t-54.5 21.5t-53.5 -20.5t-18.5 -50.5h-131q1 44 17.5 78.5t44.5 58t67 35.5t85 12q52 0 92 -14.5t67 -40t40.5 -61t13.5 -76.5v-200q0 -20 14 -29.5t37 -4.5v-86q-37 -9 -70 -10q-44 1 -71 14t-44 43q-39 -32 -81.5 -47t-84.5 -15
q-58 0 -97.5 32t-39.5 91q0 60 49.5 101.5t159.5 67.5zM223 91q23 0 44.5 9.5t45.5 27.5v108l-41 -10q-57 -14 -82.5 -36t-25.5 -51q0 -23 15.5 -35.5t43.5 -12.5zM242 608q18 0 31.5 13t13.5 33t-13.5 33t-31.5 13t-31.5 -13t-13.5 -33t13.5 -33t31.5 -13zM242 759
q21 0 40 -7.5t34 -21.5t24 -33t9 -43t-9 -43t-24 -33t-34 -21.5t-40 -7.5t-40 7.5t-34 21.5t-24 33t-9 43t9 43t24 33t34 21.5t40 7.5z" />
    <glyph glyph-name="atilde" unicode="&#xe3;" horiz-adv-x="529" 
d="M313 301v23q0 38 -19.5 59.5t-54.5 21.5t-53.5 -20.5t-18.5 -50.5h-131q1 44 17.5 78.5t44.5 58t67 35.5t85 12q52 0 92 -14.5t67 -40t40.5 -61t13.5 -76.5v-200q0 -20 14 -29.5t37 -4.5v-86q-37 -9 -70 -10q-44 1 -71 14t-44 43q-39 -32 -81.5 -47t-84.5 -15
q-58 0 -97.5 32t-39.5 91q0 60 49.5 101.5t159.5 67.5zM223 91q23 0 44.5 9.5t45.5 27.5v108l-41 -10q-57 -14 -82.5 -36t-25.5 -51q0 -23 15.5 -35.5t43.5 -12.5zM417 700q3 -35 -5.5 -59t-23 -38t-33 -20t-36.5 -6q-21 0 -39 5t-33.5 11.5t-29.5 11.5t-27 5
q-17 0 -21.5 -10.5t-4.5 -23.5h-95q-3 36 5 60t22.5 38.5t33 20.5t36.5 6q21 0 39 -5.5t34 -12t29.5 -12t27.5 -5.5q16 0 20.5 10t4.5 24h96z" />
    <glyph glyph-name="cacute" unicode="&#x107;" horiz-adv-x="531" 
d="M377 328q-25 76 -95 76q-47 0 -75.5 -38.5t-28.5 -111.5q0 -66 27 -108t81 -42q32 0 57.5 17.5t34.5 46.5h131q-9 -44 -30 -77.5t-50 -56t-65 -33.5t-75 -11q-56 0 -103.5 18.5t-81.5 53t-53 83.5t-19 109t18.5 109t52 83.5t80 53t101.5 18.5q41 0 78.5 -11t67.5 -34
t51 -59t30 -86h-134v0zM337 575h-127v5l75 120h174v-6z" />
    <glyph glyph-name="ccaron" unicode="&#x10d;" horiz-adv-x="531" 
d="M377 328q-25 76 -95 76q-47 0 -75.5 -38.5t-28.5 -111.5q0 -66 27 -108t81 -42q32 0 57.5 17.5t34.5 46.5h131q-9 -44 -30 -77.5t-50 -56t-65 -33.5t-75 -11q-56 0 -103.5 18.5t-81.5 53t-53 83.5t-19 109t18.5 109t52 83.5t80 53t101.5 18.5q41 0 78.5 -11t67.5 -34
t51 -59t30 -86h-134v0zM344 700h123v-2l-114 -122h-134l-114 122v2h130l55 -46z" />
    <glyph glyph-name="ccedilla" unicode="&#xe7;" horiz-adv-x="531" 
d="M281 -252q-25 0 -47.5 6.5t-40 20t-27.5 34.5t-10 49h87q0 -15 10.5 -23.5t26.5 -8.5q17 0 28 9t11 26q0 16 -11 27t-31 11q-10 0 -22 -3l-24 15v85q-24 4 -46 12q-47 19 -81 53.5t-53 83.5t-19 109t18.5 109t52 83.5t80 53t101.5 18.5q41 0 78.5 -11t67.5 -34t51 -59
t30 -86h-134q-25 76 -95 76q-47 0 -75.5 -38.5t-28.5 -111.5q0 -66 27 -108t81 -42q32 0 57.5 17.5t34.5 46.5h131q-9 -44 -30 -77.5t-50 -56t-65 -33.5q-21 -6 -42 -9v-32q38 -2 66 -29.5t28 -72.5q0 -28 -11 -49t-29.5 -34.5t-43 -20t-51.5 -6.5z" />
    <glyph glyph-name="ccircumflex" unicode="&#x109;" horiz-adv-x="531" 
d="M377 328q-25 76 -95 76q-47 0 -75.5 -38.5t-28.5 -111.5q0 -66 27 -108t81 -42q32 0 57.5 17.5t34.5 46.5h131q-9 -44 -30 -77.5t-50 -56t-65 -33.5t-75 -11q-56 0 -103.5 18.5t-81.5 53t-53 83.5t-19 109t18.5 109t52 83.5t80 53t101.5 18.5q41 0 78.5 -11t67.5 -34
t51 -59t30 -86h-134v0zM229 576h-124v4l113 120h135l115 -120v-4h-131l-55 47z" />
    <glyph glyph-name="cdotaccent" unicode="&#x10b;" horiz-adv-x="531" 
d="M377 328q-25 76 -95 76q-47 0 -75.5 -38.5t-28.5 -111.5q0 -66 27 -108t81 -42q32 0 57.5 17.5t34.5 46.5h131q-9 -44 -30 -77.5t-50 -56t-65 -33.5t-75 -11q-56 0 -103.5 18.5t-81.5 53t-53 83.5t-19 109t18.5 109t52 83.5t80 53t101.5 18.5q41 0 78.5 -11t67.5 -34
t51 -59t30 -86h-134v0zM286 574q-34 0 -57.5 23t-23.5 57q0 33 23.5 56t57.5 23q35 0 58.5 -23t23.5 -56q0 -34 -23.5 -57t-58.5 -23z" />
    <glyph glyph-name="dotlessi" unicode="&#x131;" 
d="M214 505v-505h-150v505h150z" />
    <glyph glyph-name="dotlessj" unicode="&#x237;" 
d="M64 505h150v-517q0 -44 -12.5 -81.5t-37.5 -66t-62 -44.5t-85 -16q-26 0 -45.5 4.5t-31.5 9.5v113q24 -8 45 -8q33 0 56 18.5t23 58.5v529z" />
    <glyph glyph-name="eacute" unicode="&#xe9;" horiz-adv-x="533" 
d="M504 154q-20 -82 -79.5 -123t-142.5 -41q-55 0 -101 18.5t-79 52t-51.5 81.5t-18.5 107q0 61 18.5 111t51 85t78 54t99.5 19q48 0 90 -17t72.5 -49t48.5 -78t18 -104v-39h-333q5 -60 31.5 -97t77.5 -37q31 0 56 15.5t33 41.5h131zM274 409q-33 0 -61.5 -26.5t-36.5 -85.5
h192q-5 55 -30 83.5t-64 28.5zM327 575h-127v5l75 120h174v-6z" />
    <glyph glyph-name="ebreve" unicode="&#x115;" horiz-adv-x="533" 
d="M504 154q-20 -82 -79.5 -123t-142.5 -41q-55 0 -101 18.5t-79 52t-51.5 81.5t-18.5 107q0 61 18.5 111t51 85t78 54t99.5 19q48 0 90 -17t72.5 -49t48.5 -78t18 -104v-39h-333q5 -60 31.5 -97t77.5 -37q31 0 56 15.5t33 41.5h131zM274 409q-33 0 -61.5 -26.5t-36.5 -85.5
h192q-5 55 -30 83.5t-64 28.5zM275 653q30 0 47.5 12t19.5 35h98q-4 -68 -46.5 -97t-118.5 -29t-118.5 29t-46.5 97h98q2 -23 19.5 -35t47.5 -12z" />
    <glyph glyph-name="ecaron" unicode="&#x11b;" horiz-adv-x="533" 
d="M504 154q-20 -82 -79.5 -123t-142.5 -41q-55 0 -101 18.5t-79 52t-51.5 81.5t-18.5 107q0 61 18.5 111t51 85t78 54t99.5 19q48 0 90 -17t72.5 -49t48.5 -78t18 -104v-39h-333q5 -60 31.5 -97t77.5 -37q31 0 56 15.5t33 41.5h131zM274 409q-33 0 -61.5 -26.5t-36.5 -85.5
h192q-5 55 -30 83.5t-64 28.5zM334 700h123v-2l-114 -122h-134l-114 122v2h130l55 -46z" />
    <glyph glyph-name="ecircumflex" unicode="&#xea;" horiz-adv-x="533" 
d="M504 154q-20 -82 -79.5 -123t-142.5 -41q-55 0 -101 18.5t-79 52t-51.5 81.5t-18.5 107q0 61 18.5 111t51 85t78 54t99.5 19q48 0 90 -17t72.5 -49t48.5 -78t18 -104v-39h-333q5 -60 31.5 -97t77.5 -37q31 0 56 15.5t33 41.5h131zM274 409q-33 0 -61.5 -26.5t-36.5 -85.5
h192q-5 55 -30 83.5t-64 28.5zM220 576h-124v4l113 120h135l115 -120v-4h-131l-55 47z" />
    <glyph glyph-name="edieresis" unicode="&#xeb;" horiz-adv-x="533" 
d="M504 154q-20 -82 -79.5 -123t-142.5 -41q-55 0 -101 18.5t-79 52t-51.5 81.5t-18.5 107q0 61 18.5 111t51 85t78 54t99.5 19q48 0 90 -17t72.5 -49t48.5 -78t18 -104v-39h-333q5 -60 31.5 -97t77.5 -37q31 0 56 15.5t33 41.5h131zM274 409q-33 0 -61.5 -26.5t-36.5 -85.5
h192q-5 55 -30 83.5t-64 28.5zM382 574q-34 0 -57.5 23t-23.5 57q0 33 23.5 56t57.5 23q35 0 58.5 -23t23.5 -56q0 -34 -23.5 -57t-58.5 -23zM172 574q-34 0 -57.5 23t-23.5 57q0 33 23.5 56t57.5 23q35 0 58.5 -23t23.5 -56q0 -34 -23.5 -57t-58.5 -23z" />
    <glyph glyph-name="edotaccent" unicode="&#x117;" horiz-adv-x="533" 
d="M504 154q-20 -82 -79.5 -123t-142.5 -41q-55 0 -101 18.5t-79 52t-51.5 81.5t-18.5 107q0 61 18.5 111t51 85t78 54t99.5 19q48 0 90 -17t72.5 -49t48.5 -78t18 -104v-39h-333q5 -60 31.5 -97t77.5 -37q31 0 56 15.5t33 41.5h131zM274 409q-33 0 -61.5 -26.5t-36.5 -85.5
h192q-5 55 -30 83.5t-64 28.5zM276 574q-34 0 -57.5 23t-23.5 57q0 33 23.5 56t57.5 23q35 0 58.5 -23t23.5 -56q0 -34 -23.5 -57t-58.5 -23z" />
    <glyph glyph-name="egrave" unicode="&#xe8;" horiz-adv-x="533" 
d="M504 154q-20 -82 -79.5 -123t-142.5 -41q-55 0 -101 18.5t-79 52t-51.5 81.5t-18.5 107q0 61 18.5 111t51 85t78 54t99.5 19q48 0 90 -17t72.5 -49t48.5 -78t18 -104v-39h-333q5 -60 31.5 -97t77.5 -37q31 0 56 15.5t33 41.5h131zM274 409q-33 0 -61.5 -26.5t-36.5 -85.5
h192q-5 55 -30 83.5t-64 28.5zM100 694v6h179l72 -120v-5h-129z" />
    <glyph glyph-name="emacron" unicode="&#x113;" horiz-adv-x="533" 
d="M504 154q-20 -82 -79.5 -123t-142.5 -41q-55 0 -101 18.5t-79 52t-51.5 81.5t-18.5 107q0 61 18.5 111t51 85t78 54t99.5 19q48 0 90 -17t72.5 -49t48.5 -78t18 -104v-39h-333q5 -60 31.5 -97t77.5 -37q31 0 56 15.5t33 41.5h131zM274 409q-33 0 -61.5 -26.5t-36.5 -85.5
h192q-5 55 -30 83.5t-64 28.5zM413 589h-275v89h275v-89z" />
    <glyph glyph-name="gbreve" unicode="&#x11f;" horiz-adv-x="575" 
d="M511 24q0 -60 -18 -107.5t-50.5 -80t-78.5 -50t-102 -17.5q-105 0 -164 46.5t-64 129.5h136q6 -30 29 -46.5t61 -16.5q49 0 75 27.5t26 87.5v39q-24 -17 -52.5 -26t-61.5 -9q-47 0 -86 18t-68 51.5t-45 81t-16 106.5t17 107t48.5 82t75 52.5t96.5 18.5q51 0 91.5 -17
t69.5 -46l40 54h41v-485zM284 407q-22 0 -41.5 -8.5t-34 -26.5t-23 -46t-8.5 -67q0 -71 30.5 -109t80.5 -38q42 0 73 26v227q-14 20 -34 31t-43 11zM281 653q30 0 47.5 12t19.5 35h98q-4 -68 -46.5 -97t-118.5 -29t-118.5 29t-46.5 97h98q2 -23 19.5 -35t47.5 -12z" />
    <glyph glyph-name="gcircumflex" unicode="&#x11d;" horiz-adv-x="575" 
d="M511 24q0 -60 -18 -107.5t-50.5 -80t-78.5 -50t-102 -17.5q-105 0 -164 46.5t-64 129.5h136q6 -30 29 -46.5t61 -16.5q49 0 75 27.5t26 87.5v39q-24 -17 -52.5 -26t-61.5 -9q-47 0 -86 18t-68 51.5t-45 81t-16 106.5t17 107t48.5 82t75 52.5t96.5 18.5q51 0 91.5 -17
t69.5 -46l40 54h41v-485zM284 407q-22 0 -41.5 -8.5t-34 -26.5t-23 -46t-8.5 -67q0 -71 30.5 -109t80.5 -38q42 0 73 26v227q-14 20 -34 31t-43 11zM225 576h-124v4l113 120h135l115 -120v-4h-131l-55 47z" />
    <glyph glyph-name="gdotaccent" unicode="&#x121;" horiz-adv-x="575" 
d="M511 24q0 -60 -18 -107.5t-50.5 -80t-78.5 -50t-102 -17.5q-105 0 -164 46.5t-64 129.5h136q6 -30 29 -46.5t61 -16.5q49 0 75 27.5t26 87.5v39q-24 -17 -52.5 -26t-61.5 -9q-47 0 -86 18t-68 51.5t-45 81t-16 106.5t17 107t48.5 82t75 52.5t96.5 18.5q51 0 91.5 -17
t69.5 -46l40 54h41v-485zM284 407q-22 0 -41.5 -8.5t-34 -26.5t-23 -46t-8.5 -67q0 -71 30.5 -109t80.5 -38q42 0 73 26v227q-14 20 -34 31t-43 11zM282 574q-34 0 -57.5 23t-23.5 57q0 33 23.5 56t57.5 23q35 0 58.5 -23t23.5 -56q0 -34 -23.5 -57t-58.5 -23z" />
    <glyph glyph-name="germandbls" unicode="&#xdf;" horiz-adv-x="685" 
d="M329 615q-24 0 -45 -7t-36.5 -23t-24.5 -41.5t-9 -62.5v-481h-150v475q0 52 15.5 99t48 83t83.5 57t123 21q61 0 105 -14t72 -37.5t41.5 -54.5t13.5 -65q0 -27 -7 -47t-19 -35t-26.5 -26t-29.5 -20q-14 -8 -27 -15.5t-23 -15t-16 -16t-6 -19.5q0 -14 9 -23.5t23.5 -16
t33.5 -12t39 -11.5q25 -8 49.5 -19t44 -29t31.5 -44.5t12 -63.5q0 -34 -11.5 -63t-35.5 -50.5t-60.5 -33.5t-85.5 -12q-81 0 -136 37.5t-68 119.5h129q13 -59 80 -59q29 0 42.5 12.5t13.5 29.5q0 26 -25.5 39t-61.5 24q-26 7 -52.5 18.5t-48 29t-35 42t-13.5 57.5q0 30 9 51
t23.5 36t31 26.5t31.5 23.5q17 13 29.5 28.5t12.5 39.5q0 34 -27.5 51t-66.5 17z" />
    <glyph glyph-name="hcircumflex" unicode="&#x125;" horiz-adv-x="591" 
d="M214 700v-236q29 25 65 39.5t77 14.5q38 0 70 -13t55.5 -37.5t36.5 -59t13 -77.5v-331h-150v306q0 40 -19.5 66.5t-63.5 26.5q-20 0 -42.5 -9.5t-41.5 -26.5v-363h-150v700h150zM239 771h-124v4l113 120h135l115 -120v-4h-131l-55 47z" />
    <glyph glyph-name="iacute" unicode="&#xed;" 
d="M214 505v-505h-150v505h150zM192 575h-127v5l75 120h174v-6z" />
    <glyph glyph-name="ibreve" unicode="&#x12d;" 
d="M214 505v-505h-150v505h150zM140 653q30 0 47.5 12t19.5 35h98q-4 -68 -46.5 -97t-118.5 -29t-118.5 29t-46.5 97h98q2 -23 19.5 -35t47.5 -12z" />
    <glyph glyph-name="icircumflex" unicode="&#xee;" 
d="M214 505v-505h-150v505h150zM84 576h-124v4l113 120h135l115 -120v-4h-131l-55 47z" />
    <glyph glyph-name="idieresis" unicode="&#xef;" 
d="M214 505v-505h-150v505h150zM246 574q-34 0 -57.5 23t-23.5 57q0 33 23.5 56t57.5 23q35 0 58.5 -23t23.5 -56q0 -34 -23.5 -57t-58.5 -23zM36 574q-34 0 -57.5 23t-23.5 57q0 33 23.5 56t57.5 23q35 0 58.5 -23t23.5 -56q0 -34 -23.5 -57t-58.5 -23z" />
    <glyph glyph-name="igrave" unicode="&#xec;" 
d="M214 505v-505h-150v505h150zM-36 694v6h179l72 -120v-5h-129z" />
    <glyph glyph-name="itilde" unicode="&#x129;" 
d="M214 505v-505h-150v505h150zM314 700q3 -35 -5.5 -59t-23 -38t-33 -20t-36.5 -6q-21 0 -39 5t-33.5 11.5t-29.5 11.5t-27 5q-17 0 -21.5 -10.5t-4.5 -23.5h-95q-3 36 5 60t22.5 38.5t33 20.5t36.5 6q21 0 39 -5.5t34 -12t29.5 -12t27.5 -5.5q16 0 20.5 10t4.5 24h96z" />
    <glyph glyph-name="jcircumflex" unicode="&#x135;" 
d="M64 505h150v-517q0 -44 -12.5 -81.5t-37.5 -66t-62 -44.5t-85 -16q-26 0 -45.5 4.5t-31.5 9.5v113q24 -8 45 -8q33 0 56 18.5t23 58.5v529zM80 575h-124v4l113 120h135l115 -120v-4h-131l-55 47z" />
    <glyph glyph-name="kcommaaccent" unicode="&#x137;" horiz-adv-x="557" 
d="M214 700v-415h41l140 220h162l-162 -234l164 -271h-169l-129 221h-47v-221h-150v700h150zM205 -269q29 7 48 23t24 44q-32 2 -52 22.5t-20 49.5q0 32 21.5 53t56.5 21t58 -23.5t23 -69.5q0 -35 -10 -68t-30 -58.5t-50 -41.5t-69 -18v66z" />
    <glyph glyph-name="lacute" unicode="&#x13a;" 
d="M214 700v-700h-150v700h150zM192 770h-127v5l75 120h174v-6z" />
    <glyph glyph-name="lcommaaccent" unicode="&#x13c;" 
d="M214 700v-700h-150v700h150zM67 -269q29 7 48 23t24 44q-32 2 -52 22.5t-20 49.5q0 32 21.5 53t56.5 21t58 -23.5t23 -69.5q0 -35 -10 -68t-30 -58.5t-50 -41.5t-69 -18v66z" />
    <glyph glyph-name="nacute" unicode="&#x144;" horiz-adv-x="591" 
d="M199 505l2 -46q32 27 71 43t84 16q38 0 70 -13t55.5 -37.5t36.5 -59t13 -77.5v-331h-150v306q0 40 -19.5 66.5t-63.5 26.5q-20 0 -42.5 -8t-41.5 -22v-369h-150v505h135zM347 575h-127v5l75 120h174v-6z" />
    <glyph glyph-name="ncaron" unicode="&#x148;" horiz-adv-x="591" 
d="M199 505l2 -46q32 27 71 43t84 16q38 0 70 -13t55.5 -37.5t36.5 -59t13 -77.5v-331h-150v306q0 40 -19.5 66.5t-63.5 26.5q-20 0 -42.5 -8t-41.5 -22v-369h-150v505h135zM354 700h123v-2l-114 -122h-134l-114 122v2h130l55 -46z" />
    <glyph glyph-name="ncommaaccent" unicode="&#x146;" horiz-adv-x="591" 
d="M199 505l2 -46q32 27 71 43t84 16q38 0 70 -13t55.5 -37.5t36.5 -59t13 -77.5v-331h-150v306q0 40 -19.5 66.5t-63.5 26.5q-20 0 -42.5 -8t-41.5 -22v-369h-150v505h135zM222 -269q29 7 48 23t24 44q-32 2 -52 22.5t-20 49.5q0 32 21.5 53t56.5 21t58 -23.5t23 -69.5
q0 -35 -10 -68t-30 -58.5t-50 -41.5t-69 -18v66z" />
    <glyph glyph-name="ntilde" unicode="&#xf1;" horiz-adv-x="591" 
d="M199 505l2 -46q32 27 71 43t84 16q38 0 70 -13t55.5 -37.5t36.5 -59t13 -77.5v-331h-150v306q0 40 -19.5 66.5t-63.5 26.5q-20 0 -42.5 -8t-41.5 -22v-369h-150v505h135zM469 700q3 -35 -5.5 -59t-23 -38t-33 -20t-36.5 -6q-21 0 -39 5t-33.5 11.5t-29.5 11.5t-27 5
q-17 0 -21.5 -10.5t-4.5 -23.5h-95q-3 36 5 60t22.5 38.5t33 20.5t36.5 6q21 0 39 -5.5t34 -12t29.5 -12t27.5 -5.5q16 0 20.5 10t4.5 24h96z" />
    <glyph glyph-name="oacute" unicode="&#xf3;" horiz-adv-x="578" 
d="M289 -10q-56 0 -103.5 18.5t-81.5 53t-53 83.5t-19 109t19 109t53 83.5t81.5 53t103.5 18.5t103.5 -18.5t81.5 -53t53 -83.5t19 -109t-19 -109t-53 -83.5t-81.5 -53t-103.5 -18.5zM289 406q-54 0 -84 -42.5t-30 -109.5t30 -109.5t84 -42.5t84 42.5t30 109.5t-30 109.5
t-84 42.5zM341 575h-127v5l75 120h174v-6z" />
    <glyph glyph-name="obreve" unicode="&#x14f;" horiz-adv-x="578" 
d="M289 -10q-56 0 -103.5 18.5t-81.5 53t-53 83.5t-19 109t19 109t53 83.5t81.5 53t103.5 18.5t103.5 -18.5t81.5 -53t53 -83.5t19 -109t-19 -109t-53 -83.5t-81.5 -53t-103.5 -18.5zM289 406q-54 0 -84 -42.5t-30 -109.5t30 -109.5t84 -42.5t84 42.5t30 109.5t-30 109.5
t-84 42.5zM289 653q30 0 47.5 12t19.5 35h98q-4 -68 -46.5 -97t-118.5 -29t-118.5 29t-46.5 97h98q2 -23 19.5 -35t47.5 -12z" />
    <glyph glyph-name="ocircumflex" unicode="&#xf4;" horiz-adv-x="578" 
d="M289 -10q-56 0 -103.5 18.5t-81.5 53t-53 83.5t-19 109t19 109t53 83.5t81.5 53t103.5 18.5t103.5 -18.5t81.5 -53t53 -83.5t19 -109t-19 -109t-53 -83.5t-81.5 -53t-103.5 -18.5zM289 406q-54 0 -84 -42.5t-30 -109.5t30 -109.5t84 -42.5t84 42.5t30 109.5t-30 109.5
t-84 42.5zM233 576h-124v4l113 120h135l115 -120v-4h-131l-55 47z" />
    <glyph glyph-name="odieresis" unicode="&#xf6;" horiz-adv-x="578" 
d="M289 -10q-56 0 -103.5 18.5t-81.5 53t-53 83.5t-19 109t19 109t53 83.5t81.5 53t103.5 18.5t103.5 -18.5t81.5 -53t53 -83.5t19 -109t-19 -109t-53 -83.5t-81.5 -53t-103.5 -18.5zM289 406q-54 0 -84 -42.5t-30 -109.5t30 -109.5t84 -42.5t84 42.5t30 109.5t-30 109.5
t-84 42.5zM395 574q-34 0 -57.5 23t-23.5 57q0 33 23.5 56t57.5 23q35 0 58.5 -23t23.5 -56q0 -34 -23.5 -57t-58.5 -23zM185 574q-34 0 -57.5 23t-23.5 57q0 33 23.5 56t57.5 23q35 0 58.5 -23t23.5 -56q0 -34 -23.5 -57t-58.5 -23z" />
    <glyph glyph-name="oe" unicode="&#x153;" horiz-adv-x="904" 
d="M289 -10q-56 0 -103.5 18.5t-81.5 53t-53 83.5t-19 109t19 109t53 83.5t81.5 53t103.5 18.5q57 0 104 -19.5t81 -56.5q32 36 77.5 56t99.5 20q48 0 90 -17t72.5 -49t48.5 -78t18 -104v-39h-333q5 -60 31.5 -97t77.5 -37q31 0 56 16.5t33 45.5h131q-9 -42 -29 -73.5
t-49.5 -53t-66 -32t-77.5 -10.5q-57 0 -103 19.5t-78 55.5q-34 -36 -80.5 -55.5t-103.5 -19.5zM289 406q-54 0 -84 -42.5t-30 -109.5t30 -109.5t84 -42.5t84 42.5t30 109.5t-30 109.5t-84 42.5zM646 409q-33 0 -61.5 -26.5t-36.5 -85.5h192q-5 55 -30 83.5t-64 28.5z" />
    <glyph glyph-name="ograve" unicode="&#xf2;" horiz-adv-x="578" 
d="M289 -10q-56 0 -103.5 18.5t-81.5 53t-53 83.5t-19 109t19 109t53 83.5t81.5 53t103.5 18.5t103.5 -18.5t81.5 -53t53 -83.5t19 -109t-19 -109t-53 -83.5t-81.5 -53t-103.5 -18.5zM289 406q-54 0 -84 -42.5t-30 -109.5t30 -109.5t84 -42.5t84 42.5t30 109.5t-30 109.5
t-84 42.5zM113 694v6h179l72 -120v-5h-129z" />
    <glyph glyph-name="ohungarumlaut" unicode="&#x151;" horiz-adv-x="578" 
d="M289 -10q-56 0 -103.5 18.5t-81.5 53t-53 83.5t-19 109t19 109t53 83.5t81.5 53t103.5 18.5t103.5 -18.5t81.5 -53t53 -83.5t19 -109t-19 -109t-53 -83.5t-81.5 -53t-103.5 -18.5zM289 406q-54 0 -84 -42.5t-30 -109.5t30 -109.5t84 -42.5t84 42.5t30 109.5t-30 109.5
t-84 42.5zM433 575h-109v5l63 120h154v-6zM243 575h-109v5l63 120h154v-6z" />
    <glyph glyph-name="omacron" unicode="&#x14d;" horiz-adv-x="578" 
d="M289 -10q-56 0 -103.5 18.5t-81.5 53t-53 83.5t-19 109t19 109t53 83.5t81.5 53t103.5 18.5t103.5 -18.5t81.5 -53t53 -83.5t19 -109t-19 -109t-53 -83.5t-81.5 -53t-103.5 -18.5zM289 406q-54 0 -84 -42.5t-30 -109.5t30 -109.5t84 -42.5t84 42.5t30 109.5t-30 109.5
t-84 42.5zM427 589h-275v89h275v-89z" />
    <glyph glyph-name="otilde" unicode="&#xf5;" horiz-adv-x="578" 
d="M289 -10q-56 0 -103.5 18.5t-81.5 53t-53 83.5t-19 109t19 109t53 83.5t81.5 53t103.5 18.5t103.5 -18.5t81.5 -53t53 -83.5t19 -109t-19 -109t-53 -83.5t-81.5 -53t-103.5 -18.5zM289 406q-54 0 -84 -42.5t-30 -109.5t30 -109.5t84 -42.5t84 42.5t30 109.5t-30 109.5
t-84 42.5zM463 700q3 -35 -5.5 -59t-23 -38t-33 -20t-36.5 -6q-21 0 -39 5t-33.5 11.5t-29.5 11.5t-27 5q-17 0 -21.5 -10.5t-4.5 -23.5h-95q-3 36 5 60t22.5 38.5t33 20.5t36.5 6q21 0 39 -5.5t34 -12t29.5 -12t27.5 -5.5q16 0 20.5 10t4.5 24h96z" />
    <glyph glyph-name="racute" unicode="&#x155;" horiz-adv-x="379" 
d="M368 386q-49 -2 -87 -17.5t-67 -52.5v-316h-150v505h135l4 -80q34 44 75.5 67.5t89.5 25.5v-132zM289 575h-127v5l75 120h174v-6z" />
    <glyph glyph-name="rcaron" unicode="&#x159;" horiz-adv-x="379" 
d="M368 386q-49 -2 -87 -17.5t-67 -52.5v-316h-150v505h135l4 -80q34 44 75.5 67.5t89.5 25.5v-132zM296 700h123v-2l-114 -122h-134l-114 122v2h130l55 -46z" />
    <glyph glyph-name="rcommaaccent" unicode="&#x157;" horiz-adv-x="379" 
d="M368 386q-49 -2 -87 -17.5t-67 -52.5v-316h-150v505h135l4 -80q34 44 75.5 67.5t89.5 25.5v-132zM67 -269q29 7 48 23t24 44q-32 2 -52 22.5t-20 49.5q0 32 21.5 53t56.5 21t58 -23.5t23 -69.5q0 -35 -10 -68t-30 -58.5t-50 -41.5t-69 -18v66z" />
    <glyph glyph-name="sacute" unicode="&#x15b;" horiz-adv-x="472" 
d="M311 354q-8 25 -29.5 40t-59.5 15q-30 0 -46 -10.5t-16 -26.5q0 -13 10.5 -22t28 -16.5t40 -13.5t47.5 -13q29 -9 57.5 -20.5t51 -29t36.5 -43.5t14 -63q0 -34 -13 -63t-39 -50.5t-65.5 -33.5t-92.5 -12q-85 0 -143 37.5t-71 119.5h129q13 -57 90 -57q38 0 54.5 12.5
t16.5 28.5q0 12 -8.5 21t-23 16t-34 13t-41.5 12q-30 9 -60.5 20.5t-55 30t-40.5 45.5t-16 68q0 69 50.5 113.5t146.5 44.5q37 0 72 -9.5t63.5 -29.5t48.5 -51t28 -73h-130zM280 575h-127v5l75 120h174v-6z" />
    <glyph glyph-name="scaron" unicode="&#x161;" horiz-adv-x="472" 
d="M311 354q-8 25 -29.5 40t-59.5 15q-30 0 -46 -10.5t-16 -26.5q0 -13 10.5 -22t28 -16.5t40 -13.5t47.5 -13q29 -9 57.5 -20.5t51 -29t36.5 -43.5t14 -63q0 -34 -13 -63t-39 -50.5t-65.5 -33.5t-92.5 -12q-85 0 -143 37.5t-71 119.5h129q13 -57 90 -57q38 0 54.5 12.5
t16.5 28.5q0 12 -8.5 21t-23 16t-34 13t-41.5 12q-30 9 -60.5 20.5t-55 30t-40.5 45.5t-16 68q0 69 50.5 113.5t146.5 44.5q37 0 72 -9.5t63.5 -29.5t48.5 -51t28 -73h-130zM287 700h123v-2l-114 -122h-134l-114 122v2h130l55 -46z" />
    <glyph glyph-name="scedilla" unicode="&#x15f;" horiz-adv-x="472" 
d="M229 -252q-25 0 -47.5 6.5t-40 20t-27.5 34.5t-10 49h87q0 -15 10.5 -23.5t26.5 -8.5q17 0 28 9t11 26q0 16 -11 27t-31 11q-10 0 -22 -3l-24 15v86q-49 8 -87 32q-58 38 -71 120h129q13 -57 90 -57q38 0 54.5 12.5t16.5 28.5q0 12 -8.5 21t-23 16t-34 13t-41.5 12
q-30 9 -60.5 20.5t-55 30t-40.5 45.5t-16 68q0 69 50.5 113.5t146.5 44.5q37 0 72 -9.5t63.5 -29.5t48.5 -51t28 -73h-130q-8 25 -29.5 40t-59.5 15q-30 0 -46 -10.5t-16 -26.5q0 -13 10.5 -22t28 -16.5t40 -13.5t47.5 -13q29 -9 57.5 -20.5t51 -29t36.5 -43.5t14 -63
q0 -34 -13 -63t-39 -50.5t-66 -33.5q-25 -8 -57 -10v-34q38 -2 66 -29.5t28 -72.5q0 -28 -11 -49t-29.5 -34.5t-43 -20t-51.5 -6.5z" />
    <glyph glyph-name="scircumflex" unicode="&#x15d;" horiz-adv-x="472" 
d="M311 354q-8 25 -29.5 40t-59.5 15q-30 0 -46 -10.5t-16 -26.5q0 -13 10.5 -22t28 -16.5t40 -13.5t47.5 -13q29 -9 57.5 -20.5t51 -29t36.5 -43.5t14 -63q0 -34 -13 -63t-39 -50.5t-65.5 -33.5t-92.5 -12q-85 0 -143 37.5t-71 119.5h129q13 -57 90 -57q38 0 54.5 12.5
t16.5 28.5q0 12 -8.5 21t-23 16t-34 13t-41.5 12q-30 9 -60.5 20.5t-55 30t-40.5 45.5t-16 68q0 69 50.5 113.5t146.5 44.5q37 0 72 -9.5t63.5 -29.5t48.5 -51t28 -73h-130zM172 576h-124v4l113 120h135l115 -120v-4h-131l-55 47z" />
    <glyph glyph-name="scommaaccent" unicode="&#x219;" horiz-adv-x="472" 
d="M311 354q-8 25 -29.5 40t-59.5 15q-30 0 -46 -10.5t-16 -26.5q0 -13 10.5 -22t28 -16.5t40 -13.5t47.5 -13q29 -9 57.5 -20.5t51 -29t36.5 -43.5t14 -63q0 -34 -13 -63t-39 -50.5t-65.5 -33.5t-92.5 -12q-85 0 -143 37.5t-71 119.5h129q13 -57 90 -57q38 0 54.5 12.5
t16.5 28.5q0 12 -8.5 21t-23 16t-34 13t-41.5 12q-30 9 -60.5 20.5t-55 30t-40.5 45.5t-16 68q0 69 50.5 113.5t146.5 44.5q37 0 72 -9.5t63.5 -29.5t48.5 -51t28 -73h-130zM161 -269q29 7 48 23t24 44q-32 2 -52 22.5t-20 49.5q0 32 21.5 53t56.5 21t58 -23.5t23 -69.5
q0 -35 -10 -68t-30 -58.5t-50 -41.5t-69 -18v66z" />
    <glyph glyph-name="tcommaaccent" unicode="&#x163;" horiz-adv-x="342" 
d="M239 442v-255q0 -40 21.5 -61t58.5 -21q21 0 51 11v-102q-26 -14 -53.5 -19t-54.5 -5q-35 0 -66.5 11.5t-55 34t-37.5 54.5t-14 73v279h-80v63h80v142l150 54v-196h121v-63h-121zM130 -269q29 7 48 23t24 44q-32 2 -52 22.5t-20 49.5q0 32 21.5 53t56.5 21t58 -23.5
t23 -69.5q0 -35 -10 -68t-30 -58.5t-50 -41.5t-69 -18v66z" />
    <glyph glyph-name="uacute" unicode="&#xfa;" horiz-adv-x="581" 
d="M382 0l-3 44q-29 -26 -65.5 -40t-78.5 -14q-38 0 -70.5 13t-55.5 37.5t-36 59.5t-13 78v327h150v-312q0 -38 19.5 -63t63.5 -25q18 0 37.5 6t36.5 19v375h150v-505h-135zM342 575h-127v5l75 120h174v-6z" />
    <glyph glyph-name="ubreve" unicode="&#x16d;" horiz-adv-x="581" 
d="M382 0l-3 44q-29 -26 -65.5 -40t-78.5 -14q-38 0 -70.5 13t-55.5 37.5t-36 59.5t-13 78v327h150v-312q0 -38 19.5 -63t63.5 -25q18 0 37.5 6t36.5 19v375h150v-505h-135zM290 653q30 0 47.5 12t19.5 35h98q-4 -68 -46.5 -97t-118.5 -29t-118.5 29t-46.5 97h98
q2 -23 19.5 -35t47.5 -12z" />
    <glyph glyph-name="ucircumflex" unicode="&#xfb;" horiz-adv-x="581" 
d="M382 0l-3 44q-29 -26 -65.5 -40t-78.5 -14q-38 0 -70.5 13t-55.5 37.5t-36 59.5t-13 78v327h150v-312q0 -38 19.5 -63t63.5 -25q18 0 37.5 6t36.5 19v375h150v-505h-135zM234 576h-124v4l113 120h135l115 -120v-4h-131l-55 47z" />
    <glyph glyph-name="udieresis" unicode="&#xfc;" horiz-adv-x="581" 
d="M382 0l-3 44q-29 -26 -65.5 -40t-78.5 -14q-38 0 -70.5 13t-55.5 37.5t-36 59.5t-13 78v327h150v-312q0 -38 19.5 -63t63.5 -25q18 0 37.5 6t36.5 19v375h150v-505h-135zM396 574q-34 0 -57.5 23t-23.5 57q0 33 23.5 56t57.5 23q35 0 58.5 -23t23.5 -56q0 -34 -23.5 -57
t-58.5 -23zM186 574q-34 0 -57.5 23t-23.5 57q0 33 23.5 56t57.5 23q35 0 58.5 -23t23.5 -56q0 -34 -23.5 -57t-58.5 -23z" />
    <glyph glyph-name="ugrave" unicode="&#xf9;" horiz-adv-x="581" 
d="M382 0l-3 44q-29 -26 -65.5 -40t-78.5 -14q-38 0 -70.5 13t-55.5 37.5t-36 59.5t-13 78v327h150v-312q0 -38 19.5 -63t63.5 -25q18 0 37.5 6t36.5 19v375h150v-505h-135zM114 694v6h179l72 -120v-5h-129z" />
    <glyph glyph-name="uhungarumlaut" unicode="&#x171;" horiz-adv-x="581" 
d="M382 0l-3 44q-29 -26 -65.5 -40t-78.5 -14q-38 0 -70.5 13t-55.5 37.5t-36 59.5t-13 78v327h150v-312q0 -38 19.5 -63t63.5 -25q18 0 37.5 6t36.5 19v375h150v-505h-135zM434 575h-109v5l63 120h154v-6zM244 575h-109v5l63 120h154v-6z" />
    <glyph glyph-name="umacron" unicode="&#x16b;" horiz-adv-x="581" 
d="M382 0l-3 44q-29 -26 -65.5 -40t-78.5 -14q-38 0 -70.5 13t-55.5 37.5t-36 59.5t-13 78v327h150v-312q0 -38 19.5 -63t63.5 -25q18 0 37.5 6t36.5 19v375h150v-505h-135zM428 589h-275v89h275v-89z" />
    <glyph glyph-name="uring" unicode="&#x16f;" horiz-adv-x="581" 
d="M382 0l-3 44q-29 -26 -65.5 -40t-78.5 -14q-38 0 -70.5 13t-55.5 37.5t-36 59.5t-13 78v327h150v-312q0 -38 19.5 -63t63.5 -25q18 0 37.5 6t36.5 19v375h150v-505h-135zM289 608q18 0 31.5 13t13.5 33t-13.5 33t-31.5 13t-31.5 -13t-13.5 -33t13.5 -33t31.5 -13z
M289 759q21 0 40 -7.5t34 -21.5t24 -33t9 -43t-9 -43t-24 -33t-34 -21.5t-40 -7.5t-40 7.5t-34 21.5t-24 33t-9 43t9 43t24 33t34 21.5t40 7.5z" />
    <glyph glyph-name="utilde" unicode="&#x169;" horiz-adv-x="581" 
d="M382 0l-3 44q-29 -26 -65.5 -40t-78.5 -14q-38 0 -70.5 13t-55.5 37.5t-36 59.5t-13 78v327h150v-312q0 -38 19.5 -63t63.5 -25q18 0 37.5 6t36.5 19v375h150v-505h-135zM464 700q3 -35 -5.5 -59t-23 -38t-33 -20t-36.5 -6q-21 0 -39 5t-33.5 11.5t-29.5 11.5t-27 5
q-17 0 -21.5 -10.5t-4.5 -23.5h-95q-3 36 5 60t22.5 38.5t33 20.5t36.5 6q21 0 39 -5.5t34 -12t29.5 -12t27.5 -5.5q16 0 20.5 10t4.5 24h96z" />
    <glyph glyph-name="wacute" unicode="&#x1e83;" horiz-adv-x="778" 
d="M410 239l-21 93l-21 -93l-60 -239h-162l-141 505h149l60 -266l17 -83l18 83l66 264h153l66 -264l18 -84l17 84l60 266h144l-141 -505h-162zM438 575h-127v5l75 120h174v-6z" />
    <glyph glyph-name="wdieresis" unicode="&#x1e85;" horiz-adv-x="778" 
d="M410 239l-21 93l-21 -93l-60 -239h-162l-141 505h149l60 -266l17 -83l18 83l66 264h153l66 -264l18 -84l17 84l60 266h144l-141 -505h-162zM490 574q-34 0 -57.5 23t-23.5 57q0 33 23.5 56t57.5 23q35 0 58.5 -23t23.5 -56q0 -34 -23.5 -57t-58.5 -23zM280 574
q-34 0 -57.5 23t-23.5 57q0 33 23.5 56t57.5 23q35 0 58.5 -23t23.5 -56q0 -34 -23.5 -57t-58.5 -23z" />
    <glyph glyph-name="wgrave" unicode="&#x1e81;" horiz-adv-x="778" 
d="M410 239l-21 93l-21 -93l-60 -239h-162l-141 505h149l60 -266l17 -83l18 83l66 264h153l66 -264l18 -84l17 84l60 266h144l-141 -505h-162zM210 694v6h179l72 -120v-5h-129z" />
    <glyph glyph-name="wcircumflex" unicode="&#x175;" horiz-adv-x="778" 
d="M410 239l-21 93l-21 -93l-60 -239h-162l-141 505h149l60 -266l17 -83l18 83l66 264h153l66 -264l18 -84l17 84l60 266h144l-141 -505h-162zM330 576h-124v4l113 120h135l115 -120v-4h-131l-55 47z" />
    <glyph glyph-name="yacute" unicode="&#xfd;" horiz-adv-x="535" 
d="M165 505l104 -346l105 346h156l-165 -476q-24 -69 -54.5 -116.5t-66.5 -76.5t-76.5 -42t-85.5 -13q-23 0 -47.5 3.5t-46.5 9.5v126q45 -18 86 -18q35 0 65 13t56 51l-190 539h160zM319 575h-127v5l75 120h174v-6z" />
    <glyph glyph-name="ycircumflex" unicode="&#x177;" horiz-adv-x="535" 
d="M165 505l104 -346l105 346h156l-165 -476q-24 -69 -54.5 -116.5t-66.5 -76.5t-76.5 -42t-85.5 -13q-23 0 -47.5 3.5t-46.5 9.5v126q45 -18 86 -18q35 0 65 13t56 51l-190 539h160zM212 576h-124v4l113 120h135l115 -120v-4h-131l-55 47z" />
    <glyph glyph-name="ydieresis" unicode="&#xff;" horiz-adv-x="535" 
d="M165 505l104 -346l105 346h156l-165 -476q-24 -69 -54.5 -116.5t-66.5 -76.5t-76.5 -42t-85.5 -13q-23 0 -47.5 3.5t-46.5 9.5v126q45 -18 86 -18q35 0 65 13t56 51l-190 539h160zM372 574q-34 0 -57.5 23t-23.5 57q0 33 23.5 56t57.5 23q35 0 58.5 -23t23.5 -56
q0 -34 -23.5 -57t-58.5 -23zM162 574q-34 0 -57.5 23t-23.5 57q0 33 23.5 56t57.5 23q35 0 58.5 -23t23.5 -56q0 -34 -23.5 -57t-58.5 -23z" />
    <glyph glyph-name="zacute" unicode="&#x17a;" horiz-adv-x="470" 
d="M21 90l245 303h-233v112h398v-94l-243 -300h252v-111h-419v90zM282 575h-127v5l75 120h174v-6z" />
    <glyph glyph-name="zcaron" unicode="&#x17e;" horiz-adv-x="470" 
d="M21 90l245 303h-233v112h398v-94l-243 -300h252v-111h-419v90zM289 700h123v-2l-114 -122h-134l-114 122v2h130l55 -46z" />
    <glyph glyph-name="zdotaccent" unicode="&#x17c;" horiz-adv-x="470" 
d="M21 90l245 303h-233v112h398v-94l-243 -300h252v-111h-419v90zM231 574q-34 0 -57.5 23t-23.5 57q0 33 23.5 56t57.5 23q35 0 58.5 -23t23.5 -56q0 -34 -23.5 -57t-58.5 -23z" />
    <glyph glyph-name="ampersand" unicode="&#x26;" horiz-adv-x="675" 
d="M448 197q30 49 46 120.5t14 165.5h129q0 -126 -27.5 -220t-78.5 -157l98 -106h-80l-59 64q-90 -78 -224 -78q-53 0 -96.5 12.5t-75.5 37t-49.5 60t-17.5 81.5q0 69 42 123t112 100q-40 47 -63 86.5t-23 82.5q0 30 12 56.5t35 46t56 31t75 11.5q93 0 139 -39.5t46 -104.5
q0 -27 -6.5 -51t-23.5 -48.5t-47 -52.5t-77 -64l20 -21zM278 98q77 0 132 52l-154 167q-26 -21 -43 -39.5t-26.5 -35t-13 -31t-3.5 -29.5q0 -38 27 -61t81 -23zM199 533q0 -20 8 -42.5t29 -52.5q50 36 69 62.5t19 52.5q0 22 -15.5 37.5t-40.5 15.5q-31 0 -50 -20t-19 -53z
" />
    <glyph glyph-name="ogonek" unicode="&#x2db;" horiz-adv-x="550" 
d="M299 -230q-29 0 -54.5 7.5t-44.5 23t-30 39t-11 55.5q0 39 15 68.5t39.5 50t55.5 30t63 7.5l2 -51q-22 -2 -37.5 -10t-25.5 -20t-14.5 -26t-4.5 -27q0 -33 17.5 -45t42.5 -12q34 0 62 17v-87q-16 -11 -35 -15.5t-40 -4.5z" />
    <glyph glyph-name="period" unicode="." horiz-adv-x="257" 
d="M128 164q37 0 62.5 -25t25.5 -61q0 -18 -7 -33.5t-19 -27t-28 -18t-34 -6.5t-34 6.5t-27.5 18t-18.5 27t-7 33.5q0 36 25.5 61t61.5 25z" />
    <glyph glyph-name="comma" unicode="," horiz-adv-x="257" 
d="M41 -74q35 4 55 22.5t25 47.5q-37 4 -58.5 26t-21.5 55q0 36 24.5 61.5t62.5 25.5q39 0 64.5 -26.5t25.5 -77.5q0 -39 -11 -75.5t-33.5 -65t-55.5 -46t-77 -20.5v73z" />
    <glyph glyph-name="colon" unicode=":" horiz-adv-x="244" 
d="M128 164q37 0 62.5 -25t25.5 -61q0 -18 -7 -33.5t-19 -27t-28 -18t-34 -6.5t-34 6.5t-27.5 18t-18.5 27t-7 33.5q0 36 25.5 61t61.5 25zM128 512q37 0 62.5 -25t25.5 -61q0 -18 -7 -33.5t-19 -27t-28 -18t-34 -6.5t-34 6.5t-27.5 18t-18.5 27t-7 33.5q0 36 25.5 61
t61.5 25z" />
    <glyph glyph-name="semicolon" unicode=";" horiz-adv-x="244" 
d="M41 -74q35 4 55 22.5t25 47.5q-37 4 -58.5 26t-21.5 55q0 36 24.5 61.5t62.5 25.5q39 0 64.5 -26.5t25.5 -77.5q0 -39 -11 -75.5t-33.5 -65t-55.5 -46t-77 -20.5v73zM128 512q37 0 62.5 -25t25.5 -61q0 -18 -7 -33.5t-19 -27t-28 -18t-34 -6.5t-34 6.5t-27.5 18t-18.5 27
t-7 33.5q0 36 25.5 61t61.5 25z" />
    <glyph glyph-name="ellipsis" unicode="&#x2026;" horiz-adv-x="791" 
d="M128 164q37 0 62.5 -25t25.5 -61q0 -18 -7 -33.5t-19 -27t-28 -18t-34 -6.5t-34 6.5t-27.5 18t-18.5 27t-7 33.5q0 36 25.5 61t61.5 25zM395 164q37 0 62.5 -25t25.5 -61q0 -18 -7 -33.5t-19 -27t-28 -18t-34 -6.5t-34 6.5t-27.5 18t-18.5 27t-7 33.5q0 36 25.5 61
t61.5 25zM662 164q37 0 62.5 -25t25.5 -61q0 -18 -7 -33.5t-19 -27t-28 -18t-34 -6.5t-34 6.5t-27.5 18t-18.5 27t-7 33.5q0 36 25.5 61t61.5 25z" />
    <glyph glyph-name="exclam" unicode="!" horiz-adv-x="243" 
d="M119 164q37 0 62.5 -25t25.5 -61q0 -18 -7 -33.5t-19 -27t-28 -18t-34 -6.5t-34 6.5t-27.5 18t-18.5 27t-7 33.5q0 36 25.5 61t61.5 25zM177 224h-112l-25 477h162z" />
    <glyph glyph-name="exclamdown" unicode="&#xa1;" horiz-adv-x="243" 
d="M124 344q-37 0 -62.5 25t-25.5 61q0 18 7 33.5t19 27t28 18t34 6.5t34 -6.5t27.5 -18t18.5 -27t7 -33.5q0 -36 -25.5 -61t-61.5 -25zM66 284h112l25 -477h-162z" />
    <glyph glyph-name="question" unicode="?" horiz-adv-x="489" 
d="M234 164q37 0 62.5 -25t25.5 -61q0 -18 -7 -33.5t-19 -27t-28 -18t-34 -6.5t-34 6.5t-27.5 18t-18.5 27t-7 33.5q0 36 25.5 61t61.5 25zM171 395h45q54 0 83.5 30.5t29.5 75.5q0 41 -26 69t-75 28q-42 0 -69.5 -24.5t-32.5 -69.5h-126q1 49 18.5 88.5t49 67.5t76.5 43.5
t101 15.5q52 0 94.5 -14.5t73.5 -41.5t48 -65t17 -85q0 -45 -16 -81.5t-40.5 -63t-55 -42.5t-60.5 -20l-5 -82h-125z" />
    <glyph glyph-name="questiondown" unicode="&#xbf;" horiz-adv-x="479" 
d="M244 344q-37 0 -62.5 25t-25.5 61q0 18 7 33.5t19 27t28 18t34 6.5t34 -6.5t27.5 -18t18.5 -27t7 -33.5q0 -36 -25.5 -61t-61.5 -25zM307 113h-45q-54 0 -83.5 -30.5t-29.5 -75.5q0 -41 26 -69t75 -28q42 0 69.5 24.5t32.5 69.5h126q-1 -49 -18.5 -88.5t-49 -67.5
t-76.5 -43.5t-101 -15.5q-52 0 -94.5 14.5t-73.5 41.5t-48 65t-17 85q0 45 16 81.5t40.5 63t55 42.5t60.5 20l5 82h125z" />
    <glyph glyph-name="quoteleft" unicode="&#x2018;" horiz-adv-x="247" 
d="M208 672q-34 -4 -53 -21.5t-24 -45.5q35 -4 56 -25t21 -53q0 -35 -23.5 -59.5t-60.5 -24.5t-61.5 25.5t-24.5 74.5q0 38 10.5 73t32 62.5t53 44t74.5 19.5v-70z" />
    <glyph glyph-name="quoteright" unicode="&#x2019;" horiz-adv-x="247" 
d="M41 521q34 4 53 21.5t24 45.5q-35 4 -56 25t-21 53q0 35 23.5 59t60.5 24t61.5 -25t24.5 -74q0 -38 -10.5 -73t-32 -62.5t-53 -44t-74.5 -19.5v70z" />
    <glyph glyph-name="quotedblleft" unicode="&#x201c;" horiz-adv-x="466" 
d="M435 672q-34 -4 -53 -21.5t-24 -45.5q35 -4 56 -25t21 -53q0 -35 -23.5 -59.5t-60.5 -24.5t-61.5 25.5t-24.5 74.5q0 38 10.5 73t32 62.5t53 44t74.5 19.5v-70zM219 672q-34 -4 -53 -21.5t-24 -45.5q35 -4 56 -25t21 -53q0 -35 -23.5 -59.5t-60.5 -24.5t-61.5 25.5
t-24.5 74.5q0 38 10.5 73t32 62.5t53 44t74.5 19.5v-70z" />
    <glyph glyph-name="quotedblright" unicode="&#x201d;" horiz-adv-x="462" 
d="M39 520q34 4 53 21.5t24 45.5q-35 4 -56 25t-21 53q0 35 23.5 59t60.5 24t61.5 -25t24.5 -74q0 -38 -10.5 -73t-32 -62.5t-53 -44t-74.5 -19.5v70zM255 520q34 4 53 21.5t24 45.5q-35 4 -56 25t-21 53q0 35 23.5 59t60.5 24t61.5 -25t24.5 -74q0 -38 -10.5 -73t-32 -62.5
t-53 -44t-74.5 -19.5v70z" />
    <glyph glyph-name="slash" unicode="/" horiz-adv-x="524" 
d="M101 0h-89l409 700h88z" />
    <glyph glyph-name="backslash" unicode="\" horiz-adv-x="527" 
d="M100 700l409 -700h-89l-408 700h88z" />
    <glyph glyph-name="bar" unicode="|" horiz-adv-x="317" 
d="M84 766h150v-831h-150v831z" />
    <glyph glyph-name="brokenbar" unicode="&#xa6;" horiz-adv-x="317" 
d="M84 766h150v-384h-150v384zM84 318h150v-383h-150v383z" />
    <glyph glyph-name="bullet" unicode="&#x2022;" horiz-adv-x="431" 
d="M80 327q0 28 10 51.5t27.5 41t41.5 27.5t52 10q27 0 51 -10t42 -27.5t28 -41t10 -51.5t-10 -51.5t-28 -41t-42 -27.5t-51 -10q-28 0 -52 10t-41.5 27.5t-27.5 41t-10 51.5z" />
    <glyph glyph-name="periodcentered" unicode="&#xb7;" horiz-adv-x="244" 
d="M128 427q37 0 62.5 -25t25.5 -61q0 -18 -7 -33.5t-19 -27t-28 -18t-34 -6.5t-34 6.5t-27.5 18t-18.5 27t-7 33.5q0 36 25.5 61t61.5 25z" />
    <glyph glyph-name="hyphen" unicode="-" horiz-adv-x="451" 
d="M406 258h-360v92h360v-92z" />
    <glyph glyph-name="endash" unicode="&#x2013;" horiz-adv-x="541" 
d="M496 261h-450v74h450v-74z" />
    <glyph glyph-name="emdash" unicode="&#x2014;" horiz-adv-x="724" 
d="M679 261h-633v74h633v-74z" />
    <glyph glyph-name="parenleft" unicode="(" horiz-adv-x="341" 
d="M28 292q0 94 20 171t57 133t88.5 89t114.5 41v-137q-32 -10 -58 -31t-45 -56t-29 -86.5t-10 -123.5t10 -123.5t29 -86.5t45 -56t58 -31v-137q-63 7 -114.5 40.5t-88.5 89.5t-57 133t-20 171z" />
    <glyph glyph-name="parenright" unicode=")" horiz-adv-x="341" 
d="M313 292q0 -94 -20 -171t-57 -133t-88.5 -89.5t-114.5 -40.5v137q32 10 58 31t45 56t29 86.5t10 123.5t-10 123.5t-29 86.5t-45 56t-58 31v137q63 -8 114.5 -41t88.5 -89t57 -133t20 -171z" />
    <glyph glyph-name="bracketleft" unicode="[" horiz-adv-x="344" 
d="M56 717h256v-117h-106v-637h107v-117h-257v871z" />
    <glyph glyph-name="bracketright" unicode="]" horiz-adv-x="344" 
d="M289 -154h-257v117h107v637h-106v117h256v-871z" />
    <glyph glyph-name="braceleft" unicode="{" horiz-adv-x="358" 
d="M322 -142q-44 -2 -82 8.5t-65.5 32t-43 52t-15.5 69.5t3.5 72t3.5 68q0 58 -22.5 84t-66.5 26h-36v46h36q44 0 66.5 26t22.5 84q0 35 -3.5 68t-3.5 72t15.5 69.5t43 52t65.5 32t82 8.5v-130q-33 -1 -51 -20.5t-18 -60.5q0 -27 3.5 -53t3.5 -55q0 -41 -24.5 -69.5
t-61.5 -46.5q37 -19 61.5 -48t24.5 -69q0 -29 -3.5 -54.5t-3.5 -53.5q0 -41 18 -61.5t51 -21.5v-127v0z" />
    <glyph glyph-name="braceright" unicode="}" horiz-adv-x="358" 
d="M36 -142v127q33 1 51 21.5t18 61.5q0 28 -3.5 53.5t-3.5 54.5q0 40 24.5 69t61.5 48q-37 18 -61.5 46.5t-24.5 69.5q0 29 3.5 55t3.5 53q0 41 -18 60.5t-51 20.5v130q44 2 82 -8.5t65.5 -32t43 -52t15.5 -69.5t-3.5 -72t-3.5 -68q0 -58 22.5 -84t66.5 -26h36v-46h-36
q-44 0 -66.5 -26t-22.5 -84q0 -35 3.5 -68t3.5 -72t-15.5 -69.5t-43 -52t-65.5 -32t-82 -8.5z" />
    <glyph glyph-name="asterisk" unicode="*" horiz-adv-x="410" 
d="M292 530l86 -43v-96l-126 67l2 -108h-102l2 108l-126 -67v96l86 43l-86 45v98l126 -70l-2 109h102l-2 -109l126 70v-98z" />
    <glyph glyph-name="asciicircum" unicode="^" horiz-adv-x="468" 
d="M310 700l135 -332v-3h-136l-78 217l-78 -217h-130v3l135 332h152z" />
    <glyph glyph-name="asciitilde" unicode="~" horiz-adv-x="523" 
d="M501 413q-5 -80 -44.5 -122.5t-99.5 -42.5q-27 0 -51 8t-46 19t-41.5 19.5t-39.5 8.5q-37 0 -43 -42h-113q5 80 44.5 123t100.5 43q27 0 50.5 -8.5t45.5 -19.5q22 -10 41.5 -18.5t39.5 -8.5q19 0 28 11.5t11 29.5h117z" />
    <glyph glyph-name="underscore" unicode="_" horiz-adv-x="440" 
d="M-5 -108v63h450v-63h-450z" />
    <glyph glyph-name="quotesingle" unicode="'" horiz-adv-x="226" 
d="M45 714h136l-15 -276h-106z" />
    <glyph glyph-name="quotedbl" unicode="&#x22;" horiz-adv-x="406" 
d="M66 438l-21 276h136l-9 -276h-106zM224 714h137l-22 -276h-105z" />
    <glyph glyph-name="at" unicode="@" horiz-adv-x="763" 
d="M539 196q-68 0 -96 36q-28 -24 -59 -35.5t-60 -11.5q-41 0 -68 21.5t-27 62.5q0 42 33.5 71t108.5 49l50 13v5q0 24 -12 37.5t-34 13.5t-34 -13.5t-12 -33.5h-92q0 31 11 54.5t30.5 39.5t46 24.5t57.5 8.5q71 0 107.5 -36.5t36.5 -93.5v-96q0 -52 45 -52q37 0 63.5 32
t26.5 101q0 56 -18.5 104.5t-53 84.5t-83 57t-109.5 21q-71 0 -126.5 -24.5t-93.5 -66.5t-58 -98.5t-20 -121.5q0 -66 20.5 -122t59 -97t94 -64t124.5 -23q67 0 119.5 19.5t88.5 54.5l36 -45q-43 -41 -107.5 -64.5t-141.5 -23.5q-81 0 -147 26.5t-113.5 74.5t-73.5 115.5
t-26 148.5q0 82 26 150.5t73.5 117t114 75.5t146.5 27q73 0 134.5 -23t105.5 -65.5t69 -103t25 -134.5q0 -97 -51.5 -147t-135.5 -50zM423 276q-1 6 -1.5 12.5t-0.5 13.5v56l-23 -6q-72 -19 -72 -62q0 -19 10.5 -28.5t27.5 -9.5q27 0 59 24z" />
    <glyph glyph-name="copyright" unicode="&#xa9;" horiz-adv-x="776" 
d="M388 -9q-80 0 -145.5 28.5t-113 77t-73.5 113.5t-26 138t26 138.5t73.5 114t113 77t145.5 28.5q79 0 145 -28.5t113.5 -77t73.5 -114t26 -138.5t-26 -138t-73.5 -113.5t-113.5 -77t-145 -28.5zM388 49q62 0 115.5 22.5t92.5 62t61.5 94.5t22.5 120q0 66 -22.5 121
t-61.5 94.5t-92.5 62t-115.5 22.5t-115.5 -22.5t-92.5 -62t-61.5 -94.5t-22.5 -121q0 -65 22.5 -120t61.5 -94.5t92.5 -62t115.5 -22.5zM457 398q-18 55 -70 55q-35 0 -57 -27.5t-22 -80.5q0 -48 20.5 -78t61.5 -30q24 0 42.5 12.5t25.5 34.5h96q-14 -63 -58.5 -95
t-103.5 -32q-41 0 -76 13.5t-60 38t-39 59t-14 77.5t13.5 78t38.5 59.5t59 37.5t75 13q61 0 107 -31.5t60 -103.5h-99z" />
    <glyph glyph-name="registered" unicode="&#xae;" horiz-adv-x="457" 
d="M21 517q0 43 14.5 80t41 64t64 42.5t83.5 15.5t83 -15.5t63.5 -42.5t41 -64t14.5 -80q0 -42 -14.5 -79t-41 -64t-63.5 -42.5t-83 -15.5t-83.5 15.5t-64 42.5t-41 64t-14.5 79zM61 517q0 -37 12.5 -67.5t34 -52t51.5 -33t65 -11.5q34 0 64 11.5t51.5 33t34 52t12.5 67.5
t-12.5 67.5t-34 52.5t-51.5 33.5t-64 11.5q-35 0 -65 -11.5t-51.5 -33.5t-34 -52.5t-12.5 -67.5zM147 615h82q35 0 55.5 -19t20.5 -49q0 -36 -32 -52l41 -69h-61l-34 60h-21v-60h-51v189zM198 574v-60h30q14 0 20.5 8t6.5 21q0 14 -7 22.5t-20 8.5h-30z" />
    <glyph glyph-name="trademark" unicode="&#x2122;" horiz-adv-x="679" 
d="M322 700h100l66 -164l70 164h94v-294h-82l1 152l-47 -112h-75l-47 112l1 -152h-81v294zM276 700v-78h-86v-216h-89v216h-89v78h264z" />
    <glyph glyph-name="Euro" unicode="&#x20ac;" horiz-adv-x="728" 
d="M526 461q-17 60 -52.5 87t-83.5 27q-58 0 -95 -42.5t-51 -110.5h236l-25 -63h-218v-15q0 -10 0.5 -19.5t1.5 -18.5h198l-25 -63h-161q17 -57 53 -88t82 -31q50 0 85.5 26t56.5 83h168q-19 -71 -50 -118.5t-71 -75.5t-88 -39.5t-101 -11.5q-57 0 -107.5 16.5t-91 48.5
t-69 79.5t-41.5 110.5h-74v63h65q-1 9 -1 18.5v19.5v15h-64l10 63h59q10 68 37 121.5t68.5 91t95 57.5t117.5 20q53 0 103 -12t91 -41t71 -77t42 -121h-171z" />
    <glyph glyph-name="dollar" unicode="$" horiz-adv-x="627" 
d="M339 771v-77q42 -3 79.5 -16.5t67 -37.5t49 -60t26.5 -85h-162q-20 52 -60 68v-136l26 -5q39 -8 77.5 -20t69 -35t50 -60t19.5 -95q0 -45 -16.5 -82t-48 -64.5t-76 -43.5t-101.5 -19v-72l-68 -1v75q-45 5 -84.5 19.5t-70 40t-51 62t-26.5 86.5h162q14 -63 70 -79v162
l-14 3q-36 8 -72 20.5t-64.5 34.5t-46.5 56.5t-18 87.5q0 29 10 61.5t35 61t66 48.5t104 25v76zM428 207q0 31 -25.5 47t-63.5 26v-151q38 3 63.5 21t25.5 57zM204 509q0 -28 18.5 -43t48.5 -24v127q-29 -5 -48 -19.5t-19 -40.5z" />
    <glyph glyph-name="cent" unicode="&#xa2;" horiz-adv-x="531" 
d="M377 318q-19 59 -64 73v-276q23 7 40 23t25 40h131q-9 -41 -27.5 -72.5t-44 -54t-57.5 -35t-67 -15.5v-75h-68v77q-48 7 -87 27.5t-67 52.5t-43.5 75.5t-15.5 95.5q0 53 15.5 96.5t43.5 76t67 52.5t87 26v82h68v-81q73 -7 127 -51.5t71 -136.5h-134zM175 254
q0 -50 17.5 -85.5t52.5 -49.5v270q-32 -12 -51 -46t-19 -89z" />
    <glyph glyph-name="sterling" unicode="&#xa3;" horiz-adv-x="587" 
d="M275 296v-74q0 -23 -3 -44t-20 -47h332v-131h-553v132h41q26 0 31 22.5t5 69.5v72h-77v65h77v119q0 67 19 112t51.5 72t74.5 38.5t89 11.5q49 0 90.5 -12.5t73 -39t52.5 -67t29 -97.5h-150q-14 43 -33 61.5t-57 18.5q-39 0 -55.5 -22t-16.5 -65v-130h145v-65h-145z" />
    <glyph glyph-name="yen" unicode="&#xa5;" horiz-adv-x="647" 
d="M83 205h154v53h-154v63h123l-194 379h182l135 -296l135 296h171l-192 -379h121v-63h-153l-1 -3v-50h154v-63h-154v-142h-173v142h-154v63z" />
    <glyph glyph-name="numbersign" unicode="#" horiz-adv-x="729" 
d="M319 498h166l63 202h88l-62 -202h129v-70h-151l-45 -147h133v-70h-154l-65 -211h-89l65 211h-166l-65 -211h-89l65 211h-121v70h142l46 147h-125v70h146l63 202h88zM252 281h166l46 147h-167z" />
    <glyph glyph-name="zero" unicode="0" horiz-adv-x="681" 
d="M340 585q-63 0 -97.5 -62.5t-34.5 -172.5t34.5 -172.5t97.5 -62.5t97.5 62.5t34.5 172.5t-34.5 172.5t-97.5 62.5zM340 -12q-67 0 -122.5 25.5t-95 73t-61 114t-21.5 149.5q0 82 21.5 149t61 114.5t95 73t122.5 25.5t122.5 -25.5t95 -73t61.5 -114.5t22 -149
q0 -83 -22 -149.5t-61.5 -114t-95 -73t-122.5 -25.5z" />
    <glyph glyph-name="one" unicode="1" horiz-adv-x="410" 
d="M291 700v-649h96v-51h-364v51h97v599h-97v50h268z" />
    <glyph glyph-name="two" unicode="2" horiz-adv-x="572" 
d="M259 133l283 4v-137h-506v87l253 280q41 45 57.5 74t16.5 60q0 37 -25 57.5t-61 20.5q-40 0 -67 -26t-31 -76h-146q0 54 19.5 98t54.5 75t85 47.5t110 16.5q48 0 90 -12t74 -37t50.5 -62t18.5 -87q0 -27 -7 -52t-21.5 -50.5t-36.5 -52.5t-52 -59z" />
    <glyph glyph-name="three" unicode="3" horiz-adv-x="587" 
d="M551 204q0 -46 -18.5 -85.5t-53 -69t-83.5 -46t-109 -16.5q-58 0 -105 15.5t-81.5 45t-54 71t-22.5 93.5h146q8 -50 40 -74t74 -24q49 0 78 30t29 82q0 19 -6.5 36t-21 30t-38 21t-56.5 8h-57v67h49q56 0 86 26t30 64q0 46 -27.5 75t-69.5 29q-43 0 -72 -25t-34 -73h-146
q3 53 22.5 95.5t54 72.5t83 46t109.5 16q63 0 108.5 -16.5t75.5 -44t44.5 -63t14.5 -73.5q0 -48 -22 -86t-59 -66q44 -25 68 -67.5t24 -93.5z" />
    <glyph glyph-name="four" unicode="4" horiz-adv-x="621" 
d="M386 700h138v-465h79v-70h-79v-165h-159v165h-331v107zM365 235v243l-209 -243h209z" />
    <glyph glyph-name="five" unicode="5" horiz-adv-x="585" 
d="M185 432q26 11 57.5 19t73.5 8q54 0 98 -16.5t75 -47t47.5 -73.5t16.5 -96t-18.5 -97t-52 -75.5t-81.5 -49t-106 -17.5t-105 15t-81 42.5t-53 66.5t-22 87h146q7 -42 35.5 -63t69.5 -21q52 0 80 30.5t28 79.5q0 50 -30 80.5t-84 30.5q-40 0 -68.5 -11.5t-45.5 -31.5h-118
v408h467v-130h-329v-138z" />
    <glyph glyph-name="six" unicode="6" horiz-adv-x="620" 
d="M338 712q104 0 164.5 -52.5t65.5 -143.5h-146q-7 31 -29 50t-61 19q-122 0 -128 -213q32 36 75.5 54t94.5 18q50 0 89.5 -16.5t66.5 -45.5t41 -69t14 -86q0 -52 -18.5 -95.5t-52 -75.5t-80.5 -50t-104 -18q-61 0 -114 22t-92 67t-61.5 113t-22.5 160q0 86 21.5 153.5
t60.5 114t94 70.5t122 24zM326 322q-32 0 -63 -14.5t-53 -44.5q6 -42 18.5 -70.5t29 -46t35.5 -24.5t40 -7q42 0 69 26.5t27 72.5q0 49 -28 78.5t-75 29.5z" />
    <glyph glyph-name="seven" unicode="7" horiz-adv-x="516" 
d="M345 570h-331v130h491v-114q-47 -54 -85.5 -115t-65.5 -132.5t-40 -155.5t-10 -183h-181q0 86 16.5 166.5t45.5 152.5t69 134.5t87 112.5z" />
    <glyph glyph-name="eight" unicode="8" horiz-adv-x="609" 
d="M306 -9q-57 0 -105 14.5t-83 42t-54.5 67.5t-19.5 91q0 54 27 94.5t72 66.5q-34 26 -53 62.5t-19 82.5q0 45 18 83t50 65t74.5 42.5t92.5 15.5q49 0 92 -15t74.5 -42t50 -65t18.5 -84t-19 -82.5t-53 -62.5q45 -26 72 -66.5t27 -93.5q0 -51 -19.5 -91t-54 -67.5
t-82.5 -42.5t-106 -15zM306 305q-51 0 -82.5 -27.5t-31.5 -71.5t31.5 -71.5t82.5 -27.5t82.5 27.5t31.5 71.5t-31.5 71.5t-82.5 27.5zM306 601q-38 0 -63.5 -25t-25.5 -64t25.5 -64t63.5 -25t63.5 25t25.5 64t-25.5 64t-63.5 25z" />
    <glyph glyph-name="nine" unicode="9" horiz-adv-x="616" 
d="M279 -12q-104 0 -164.5 52.5t-65.5 143.5h146q7 -31 29 -50t61 -19q122 0 128 212q-64 -71 -167 -71q-50 0 -89.5 16.5t-66.5 45.5t-41 68.5t-14 86.5q0 52 18 95.5t51 75.5t79.5 50t103.5 18q61 0 114 -22t92 -67t61.5 -113t22.5 -160q0 -86 -21.5 -153.5t-60.5 -114
t-94 -70.5t-122 -24zM294 378q31 0 61 14.5t52 44.5q-6 42 -18.5 70.5t-29 45.5t-35.5 24.5t-40 7.5q-40 0 -66.5 -26.5t-26.5 -72.5q0 -49 28 -78.5t75 -29.5z" />
    <glyph glyph-name="onesuperior" unicode="&#xb9;" horiz-adv-x="258" 
d="M12 280v37h57v347h-57v36h176v-383h56v-37h-232z" />
    <glyph glyph-name="twosuperior" unicode="&#xb2;" horiz-adv-x="353" 
d="M175 372l160 3v-95h-314v66l122 132q23 24 42 44.5t19 48.5q0 23 -12 33.5t-31 10.5q-20 0 -33.5 -13.5t-15.5 -39.5h-100q-1 34 11 61t34 46t53 29.5t69 10.5q29 0 55 -6.5t46 -22t32 -40.5t12 -62q0 -22 -8.5 -41.5t-22.5 -38.5t-32.5 -38t-38.5 -40z" />
    <glyph glyph-name="threesuperior" unicode="&#xb3;" horiz-adv-x="360" 
d="M185 272q-76 0 -120.5 36.5t-46.5 101.5h101q5 -25 20.5 -37.5t34.5 -12.5q23 0 36.5 16.5t13.5 42.5q0 23 -12.5 40t-38.5 17h-37v30h29q26 0 39 16t13 39q0 26 -12.5 41t-33.5 15q-40 0 -52 -50h-101q3 66 47 104t119 38q38 0 66.5 -10t47 -26.5t27.5 -38t9 -44.5
q0 -26 -12 -51t-41 -44q24 -11 40.5 -37t16.5 -61q0 -27 -11.5 -50t-32 -39.5t-48.5 -26t-61 -9.5z" />
    <glyph glyph-name="fraction" unicode="&#x2044;" horiz-adv-x="500" 
d="M131 0h-89l336 700h88z" />
    <glyph glyph-name="onehalf" unicode="&#xbd;" horiz-adv-x="808" 
d="M630 92l160 3v-95h-314v66l122 132q23 24 42 44.5t19 48.5q0 23 -12 33.5t-31 10.5q-20 0 -33.5 -13.5t-15.5 -39.5h-100q-1 34 11 61t34 46t53 29.5t69 10.5q29 0 55 -6.5t46 -22t32 -40.5t12 -62q0 -22 -8.5 -41.5t-22.5 -38.5t-32.5 -38t-38.5 -40zM12 280v37h57v347
h-57v36h176v-383h56v-37h-232zM242 0h-89l336 700h88z" />
    <glyph glyph-name="onequarter" unicode="&#xbc;" horiz-adv-x="762" 
d="M609 420h96v-286h42v-33h-42v-101h-111v101h-195v61zM594 134v131l-113 -131h113zM12 280v37h57v347h-57v36h176v-383h56v-37h-232zM242 0h-89l336 700h88z" />
    <glyph glyph-name="threequarters" unicode="&#xbe;" horiz-adv-x="866" 
d="M713 420h96v-286h42v-33h-42v-101h-111v101h-195v61zM698 134v131l-113 -131h113zM185 272q-76 0 -120.5 36.5t-46.5 101.5h101q5 -25 20.5 -37.5t34.5 -12.5q23 0 36.5 16.5t13.5 42.5q0 23 -12.5 40t-38.5 17h-37v30h29q26 0 39 16t13 39q0 26 -12.5 41t-33.5 15
q-40 0 -52 -50h-101q3 66 47 104t119 38q38 0 66.5 -10t47 -26.5t27.5 -38t9 -44.5q0 -26 -12 -51t-41 -44q24 -11 40.5 -37t16.5 -61q0 -27 -11.5 -50t-32 -39.5t-48.5 -26t-61 -9.5zM330 0h-89l336 700h88z" />
    <glyph glyph-name="percent" unicode="%" horiz-adv-x="968" 
d="M761 340q-32 0 -49.5 -33.5t-17.5 -96.5t17.5 -96.5t49.5 -33.5t49.5 33.5t17.5 96.5t-17.5 96.5t-49.5 33.5zM761 -8q-41 0 -75 15.5t-58 44t-37 68.5t-13 90q0 49 13 89.5t37 69t58 44t75 15.5t75 -15.5t58 -44t37.5 -69t13.5 -89.5q0 -50 -13.5 -90t-37.5 -68.5
t-58 -44t-75 -15.5zM206 620q-32 0 -49.5 -33.5t-17.5 -96.5t17.5 -96.5t49.5 -33.5t49.5 33.5t17.5 96.5t-17.5 96.5t-49.5 33.5zM206 272q-41 0 -75 15.5t-58 44t-37 68.5t-13 90q0 49 13 89.5t37 69t58 44t75 15.5t75 -15.5t58 -44t37.5 -69t13.5 -89.5q0 -50 -13.5 -90
t-37.5 -68.5t-58 -44t-75 -15.5zM695 700l-335 -700h-89l336 700h88z" />
    <glyph glyph-name="plus" unicode="+" horiz-adv-x="510" 
d="M203 110v152h-153v92h153v159h104v-159h153v-92h-153v-152h-104z" />
    <glyph glyph-name="minus" unicode="&#x2212;" horiz-adv-x="510" 
d="M460 354v-92h-410v92h410z" />
    <glyph glyph-name="multiply" unicode="&#xd7;" horiz-adv-x="504" 
d="M62 191l120 120l-122 122l71 71l123 -122l121 121l66 -66l-122 -121l124 -124l-71 -71l-124 124l-120 -121z" />
    <glyph glyph-name="equal" unicode="=" horiz-adv-x="510" 
d="M460 265v-92h-410v92h410zM460 443v-92h-410v92h410z" />
    <glyph glyph-name="less" unicode="&#x3c;" horiz-adv-x="502" 
d="M388 435l-177 -125l177 -124v-130l-311 221v60l311 223v-125z" />
    <glyph glyph-name="greater" unicode="&#x3e;" horiz-adv-x="502" 
d="M117 181l177 125l-177 124v130l311 -221v-60l-311 -223v125z" />
    <glyph glyph-name="degree" unicode="&#xb0;" horiz-adv-x="470" 
d="M51 532q0 39 13 72.5t37 58t58.5 38t76.5 13.5t76 -13.5t58 -38t37 -58t13 -72.5t-13 -72.5t-37 -58t-58 -38.5t-76 -14t-76.5 14t-58.5 38.5t-37 58t-13 72.5zM149 532q1 -44 26.5 -69t60.5 -25q34 0 59.5 25t25.5 69q0 43 -25.5 68.5t-59.5 25.5q-35 0 -61 -25.5
t-26 -68.5z" />
    <glyph glyph-name="space" unicode=" " horiz-adv-x="233" 
 />
    </font>
</defs>
</svg>
